SplineFontDB: 3.0
FontName: ume-stroke-stroke-condensed-int-180-ext-180
FullName: Ume P Gothic Balsa Regular
FamilyName: ume-stroke-stroke-condensed-int-180-ext-180
Weight: Book
Copyright: Author: HORAI Wataru. License: This font is a free software. Unlimited permission is granted to use, copy, and distribute it, with or without modification, either commercially and noncommercially. THIS FONT IS PROVIDED "AS IS" WITHOUT WARRANTY.
Version: Look update time of this file.
ItalicAngle: 0
UnderlinePosition: -180
UnderlineWidth: 24
Ascent: 1760
Descent: 288
InvalidEm: 0
sfntRevision: 0x00000000
LayerCount: 2
Layer: 0 0 "Arri+AOgA-re" 1
Layer: 1 0 "Avant" 0
XUID: [1021 622 -412722398 615430]
StyleMap: 0x0000
FSType: 0
OS2Version: 3
OS2_WeightWidthSlopeOnly: 0
OS2_UseTypoMetrics: 0
CreationTime: 1493334908
ModificationTime: 1498144233
PfmFamily: 17
TTFWeight: 400
TTFWidth: 3
LineGap: 184
VLineGap: 0
Panose: 2 0 5 6 0 0 0 0 0 0
OS2TypoAscent: 1760
OS2TypoAOffset: 0
OS2TypoDescent: -288
OS2TypoDOffset: 0
OS2TypoLinegap: 184
OS2WinAscent: 2350
OS2WinAOffset: 0
OS2WinDescent: 375
OS2WinDOffset: 0
HheadAscent: 2350
HheadAOffset: 0
HheadDescent: -375
HheadDOffset: 0
OS2SubXSize: 1331
OS2SubYSize: 1433
OS2SubXOff: 0
OS2SubYOff: 286
OS2SupXSize: 1331
OS2SupYSize: 1433
OS2SupXOff: 0
OS2SupYOff: 983
OS2StrikeYSize: 102
OS2StrikeYPos: 530
OS2CapHeight: 1592
OS2XHeight: 1205
OS2Vendor: 'PfEd'
OS2CodePages: 00000001.00000000
OS2UnicodeRanges: 80000027.4000200a.00000000.00000000
DEI: 91125
LangName: 1033 "" "" "" "FontForge 2.0 : Ume P Gothic Balsa Regular : 22-6-2017"
Encoding: UnicodeBmp
UnicodeInterp: none
NameList: AGL For New Fonts
DisplaySize: -72
AntiAlias: 1
FitToEm: 0
WinInfo: 162 18 7
BeginPrivate: 7
BlueValues 25 [0 0 1176 1176 1552 1552]
OtherBlues 11 [-288 -288]
BlueShift 1 0
StdHW 5 [160]
StdVW 5 [143]
StemSnapH 41 [134 141 145 160 166 182 196 200 218 225]
StemSnapV 41 [120 132 138 143 147 180 212 216 221 227]
EndPrivate
BeginChars: 65538 232

StartChar: .notdef
Encoding: 65536 -1 0
Width: 748
Flags: W
LayerCount: 2
Fore
SplineSet
68 0 m 1
 68 1365 l 1
 612 1365 l 1
 612 0 l 1
 68 0 l 1
136 68 m 1
 544 68 l 1
 544 1297 l 1
 136 1297 l 1
 136 68 l 1
EndSplineSet
Validated: 1
EndChar

StartChar: exclam
Encoding: 33 33 3
Width: 448
GlyphClass: 2
Flags: MW
HStem: -90.6104 443.103<176.22 225.241 213.989 225.241 225.241 263.011>
VStem: 110.73 217.77<-25.1211 262.492 -0.610352 262.492 419.927 464.639 -0.610352 465.38> 148.5 142.23<-25.1211 262.492 -0.610352 262.492 419.927 467.631> 168.503 102.228<1550 1550>
LayerCount: 2
Fore
SplineSet
258.5 1640 m 0xc0
 208.856445312 1640 169.328125 1598.2265625 168.502929688 1550.9453125 c 0x90
 168.39453125 1514.7265625 148.5 490.82421875 148.5 444.4375 c 0xa0
 148.5 395.416015625 189.478515625 354.4375 238.5 354.4375 c 0
 287.521484375 354.4375 328.5 395.416015625 328.5 444.4375 c 0
 328.5 484.840820312 348.5 1516.3203125 348.5 1550 c 0
 348.5 1599.02148438 307.521484375 1640 258.5 1640 c 0xc0
180.73046875 1640 m 0
 131.708984375 1640 90.73046875 1599.02148438 90.73046875 1550 c 0
 90.73046875 1501.85742188 110.73046875 486.323242188 110.73046875 444.4375 c 0xc0
 110.73046875 395.416015625 151.708984375 354.4375 200.73046875 354.4375 c 0
 249.751953125 354.4375 290.73046875 395.416015625 290.73046875 444.4375 c 0xa0
 290.73046875 491.795898438 270.73046875 1507.31640625 270.73046875 1550 c 0
 270.73046875 1599.02148438 229.751953125 1640 180.73046875 1640 c 0
238.5 352.4921875 m 0
 189.478515625 352.4921875 148.5 311.513671875 148.5 262.4921875 c 2
 148.5 -0.6103515625 l 2xa0
 148.5 -49.6318359375 189.478515625 -90.6103515625 238.5 -90.6103515625 c 0
 287.521484375 -90.6103515625 328.5 -49.6318359375 328.5 -0.6103515625 c 2
 328.5 262.4921875 l 2
 328.5 311.513671875 287.521484375 352.4921875 238.5 352.4921875 c 0
200.73046875 352.4921875 m 0
 151.708984375 352.4921875 110.73046875 311.513671875 110.73046875 262.4921875 c 2
 110.73046875 -0.6103515625 l 2xc0
 110.73046875 -49.6318359375 151.708984375 -90.6103515625 200.73046875 -90.6103515625 c 0
 249.751953125 -90.6103515625 290.73046875 -49.6318359375 290.73046875 -0.6103515625 c 2
 290.73046875 262.4921875 l 2
 290.73046875 311.513671875 249.751953125 352.4921875 200.73046875 352.4921875 c 0
EndSplineSet
Validated: 5
EndChar

StartChar: quotedbl
Encoding: 34 34 4
Width: 1024
GlyphClass: 2
Flags: MW
HStem: 1199 182.935<333.989 345.241 333.989 345.241 333.989 383.011 333.989 383.011 633.989 645.241 633.989 683.011>
VStem: 268.5 142.23<1264.49 1550 1264.49 1550 1289 1316.45 1289 1316.45 1289 1316.45 1289 1316.45 1289 1550 1289 1550> 530.73 217.77<1264.49 1289 1289 1291.93 1291.93 1550> 568.5 142.23<1264.49 1550 1289 1316.45 1289 1316.45 1289 1550> 568.5 180<1264.49 1289 1275.88 1291.93 1291.93 1316.45 1275.93 1291.93 1291.93 1316.45 1289 1291.93 1291.93 1550>
LayerCount: 2
Fore
SplineSet
358.5 1640 m 0xc0
 309.478515625 1640 268.5 1599.02148438 268.5 1550 c 2
 268.5 1289 l 2
 268.5 1239.97851562 309.478515625 1199 358.5 1199 c 0
 407.521484375 1199 448.5 1239.97851562 448.5 1289 c 2
 448.5 1550 l 2
 448.5 1599.02148438 407.521484375 1640 358.5 1640 c 0xc0
320.73046875 1640 m 0
 271.708984375 1640 230.73046875 1599.02148438 230.73046875 1550 c 2
 230.73046875 1289 l 2
 230.73046875 1239.97851562 271.708984375 1199 320.73046875 1199 c 0
 369.751953125 1199 410.73046875 1239.97851562 410.73046875 1289 c 2
 410.73046875 1550 l 2
 410.73046875 1599.02148438 369.751953125 1640 320.73046875 1640 c 0
358.5 1381.93457031 m 0
 309.478515625 1381.93457031 268.5 1340.95605469 268.5 1291.93457031 c 0
 268.5 1259.92480469 199.7734375 1185.89941406 181.946289062 1158.625 c 0
 155.126953125 1117.59082031 167.008789062 1060.87011719 208.04296875 1034.04980469 c 0
 249.077148438 1007.23046875 305.797851562 1019.11230469 332.618164062 1060.14648438 c 2
 433.8359375 1215.0078125 l 2
 441.475585938 1226.69628906 448.5 1246.70703125 448.5 1264.24707031 c 2
 448.5 1291.93457031 l 2
 448.5 1340.95605469 407.521484375 1381.93457031 358.5 1381.93457031 c 0
358.5 1381.93457031 m 0
 309.478515625 1381.93457031 268.5 1340.95605469 268.5 1291.93457031 c 0
 268.5 1259.83300781 199.461914062 1185.5625 181.59375 1158.25488281 c 0
 154.75390625 1117.23339844 166.607421875 1060.50683594 207.627929688 1033.66601562 c 0
 248.649414062 1006.82617188 305.375976562 1018.6796875 332.216796875 1059.70019531 c 2
 433.811523438 1214.96972656 l 2
 441.46875 1226.67285156 448.5 1246.69140625 448.5 1264.24707031 c 2
 448.5 1291.93457031 l 2
 448.5 1340.95605469 407.521484375 1381.93457031 358.5 1381.93457031 c 0
358.5 1640 m 0
 309.478515625 1640 268.5 1599.02148438 268.5 1550 c 2
 268.5 1289 l 2
 268.5 1239.97851562 309.478515625 1199 358.5 1199 c 0
 407.521484375 1199 448.5 1239.97851562 448.5 1289 c 2
 448.5 1550 l 2
 448.5 1599.02148438 407.521484375 1640 358.5 1640 c 0
320.73046875 1640 m 0
 271.708984375 1640 230.73046875 1599.02148438 230.73046875 1550 c 2
 230.73046875 1289 l 2
 230.73046875 1239.97851562 271.708984375 1199 320.73046875 1199 c 0
 369.751953125 1199 410.73046875 1239.97851562 410.73046875 1289 c 2
 410.73046875 1550 l 2
 410.73046875 1599.02148438 369.751953125 1640 320.73046875 1640 c 0
358.5 1381.93457031 m 0
 309.478515625 1381.93457031 268.5 1340.95605469 268.5 1291.93457031 c 0
 268.5 1259.92480469 199.7734375 1185.89941406 181.946289062 1158.625 c 0
 155.126953125 1117.59082031 167.008789062 1060.87011719 208.04296875 1034.04980469 c 0
 249.077148438 1007.23046875 305.797851562 1019.11230469 332.618164062 1060.14648438 c 2
 433.8359375 1215.0078125 l 2
 441.475585938 1226.69628906 448.5 1246.70703125 448.5 1264.24707031 c 2
 448.5 1291.93457031 l 2
 448.5 1340.95605469 407.521484375 1381.93457031 358.5 1381.93457031 c 0
358.5 1381.93457031 m 0
 309.478515625 1381.93457031 268.5 1340.95605469 268.5 1291.93457031 c 0
 268.5 1259.83300781 199.461914062 1185.5625 181.59375 1158.25488281 c 0
 154.75390625 1117.23339844 166.607421875 1060.50683594 207.627929688 1033.66601562 c 0
 248.649414062 1006.82617188 305.375976562 1018.6796875 332.216796875 1059.70019531 c 2
 433.811523438 1214.96972656 l 2
 441.46875 1226.67285156 448.5 1246.69140625 448.5 1264.24707031 c 2
 448.5 1291.93457031 l 2
 448.5 1340.95605469 407.521484375 1381.93457031 358.5 1381.93457031 c 0
658.5 1640 m 0
 609.478515625 1640 568.5 1599.02148438 568.5 1550 c 2
 568.5 1289 l 2xc8
 568.5 1239.97851562 609.478515625 1199 658.5 1199 c 0
 707.521484375 1199 748.5 1239.97851562 748.5 1289 c 2
 748.5 1550 l 2xe0
 748.5 1599.02148438 707.521484375 1640 658.5 1640 c 0
620.73046875 1640 m 0
 571.708984375 1640 530.73046875 1599.02148438 530.73046875 1550 c 2
 530.73046875 1289 l 2xe0
 530.73046875 1239.97851562 571.708984375 1199 620.73046875 1199 c 0
 669.751953125 1199 710.73046875 1239.97851562 710.73046875 1289 c 2
 710.73046875 1550 l 2xd0
 710.73046875 1599.02148438 669.751953125 1640 620.73046875 1640 c 0
658.5 1381.93457031 m 0
 609.478515625 1381.93457031 568.5 1340.95605469 568.5 1291.93457031 c 0xd0
 568.5 1259.92480469 499.7734375 1185.89941406 481.946289062 1158.625 c 0
 455.126953125 1117.59082031 467.008789062 1060.87011719 508.04296875 1034.04980469 c 0
 549.077148438 1007.23046875 605.797851562 1019.11230469 632.618164062 1060.14648438 c 2
 733.8359375 1215.0078125 l 2
 741.475585938 1226.69628906 748.5 1246.70703125 748.5 1264.24707031 c 2xe0
 748.5 1291.93457031 l 2xc8
 748.5 1340.95605469 707.521484375 1381.93457031 658.5 1381.93457031 c 0
658.5 1381.93457031 m 0
 609.478515625 1381.93457031 568.5 1340.95605469 568.5 1291.93457031 c 0xd0
 568.5 1259.83300781 499.461914062 1185.5625 481.59375 1158.25488281 c 0
 454.75390625 1117.23339844 466.607421875 1060.50683594 507.627929688 1033.66601562 c 0
 548.649414062 1006.82617188 605.375976562 1018.6796875 632.216796875 1059.70019531 c 2
 733.811523438 1214.96972656 l 2
 741.46875 1226.67285156 748.5 1246.69140625 748.5 1264.24707031 c 2xe0
 748.5 1291.93457031 l 2xc8
 748.5 1340.95605469 707.521484375 1381.93457031 658.5 1381.93457031 c 0
EndSplineSet
Validated: 37
EndChar

StartChar: numbersign
Encoding: 35 35 5
Width: 1024
GlyphClass: 2
Flags: W
LayerCount: 2
Fore
SplineSet
24 464 m 1
 24 576 l 1
 199 576 l 1
 276 1040 l 1
 88 1040 l 1
 88 1152 l 1
 294 1152 l 1
 360 1552 l 1
 504 1552 l 1
 438 1152 l 1
 702 1152 l 1
 768 1552 l 1
 912 1552 l 1
 846 1152 l 1
 1000 1152 l 1
 1000 1040 l 1
 828 1040 l 1
 751 576 l 1
 928 576 l 1
 928 464 l 1
 732 464 l 1
 656 0 l 1
 512 0 l 1
 588 464 l 1
 324 464 l 1
 248 0 l 1
 104 0 l 1
 180 464 l 1
 24 464 l 1
343 576 m 1
 607 576 l 1
 684 1040 l 1
 420 1040 l 1
 343 576 l 1
EndSplineSet
Validated: 1
EndChar

StartChar: dollar
Encoding: 36 36 6
Width: 1024
GlyphClass: 2
Flags: W
LayerCount: 2
Fore
SplineSet
80 184 m 1
 80 376 l 1
 160 285 237 224 312 192 c 0
 357 172 400 158 440 151 c 1
 440 722 l 1
 395 733 345 749 292 772 c 0
 236 796 187 839 144 900 c 0
 101 961 80 1040 80 1136 c 0
 80 1259 109 1359 168 1436 c 0
 218 1503 309 1541 440 1550 c 1
 440 1760 l 1
 584 1760 l 1
 584 1548 l 1
 641 1542 695 1529 744 1508 c 0
 813 1479 877 1435 936 1376 c 1
 936 1160 l 1
 861 1251 795 1316 736 1356 c 0
 693 1385 643 1404 584 1412 c 1
 584 822 l 1
 645 811 705 787 764 752 c 0
 825 715 871 668 900 612 c 0
 929 556 944 488 944 408 c 0
 944 269 911 167 844 100 c 0
 788 44 701 11 584 2 c 1
 584 -288 l 1
 440 -288 l 1
 440 6 l 1
 391 13 339 27 284 48 c 0
 201 80 133 125 80 184 c 1
232 1136 m 0
 232 1045 253 979 296 936 c 0
 335 897 383 872 440 859 c 1
 440 1412 l 1
 367 1404 317 1381 288 1344 c 0
 251 1296 232 1227 232 1136 c 0
584 148 m 1
 645 156 693 175 728 204 c 0
 776 244 800 312 800 408 c 0
 800 499 772 567 716 612 c 0
 667 652 623 679 584 692 c 1
 584 148 l 1
EndSplineSet
Validated: 1
EndChar

StartChar: percent
Encoding: 37 37 7
Width: 1024
GlyphClass: 2
Flags: MW
VStem: -917.465 201.634<1321.2 1388.79 1321.2 1433.74> -895.831 158.366<1296.27 1414.06 1296.27 1419.78> -632.408 201.634<1321.07 1388.66> -610.774 158.366<1296 1413.79> -406.753 201.634<331.37 398.956 331.37 443.916> -385.119 158.366<306.435 365.196> -121.696 201.634<331.233 398.825> -100.062 158.366<306.164 423.96>
LayerCount: 2
Fore
SplineSet
19.8251953125 1850.16796875 m 0x00
 -24.9755859375 1870.06933594 -79.060546875 1849.25585938 -98.962890625 1804.45605469 c 2
 -878.67578125 49.2685546875 l 2
 -898.577148438 4.46875 -877.764648438 -49.6171875 -832.963867188 -69.5185546875 c 0
 -788.1640625 -89.419921875 -734.078125 -68.607421875 -714.176757812 -23.8076171875 c 2
 65.5361328125 1731.37988281 l 2
 85.4375 1776.18066406 64.625 1830.265625 19.8251953125 1850.16796875 c 0x00
-15.7919921875 1861.78125 m 0
 -61.2783203125 1880.05957031 -114.581054688 1857.31640625 -132.859375 1811.83007812 c 2
 -847.299804688 33.935546875 l 2
 -865.578125 -11.55078125 -842.833984375 -64.853515625 -797.34765625 -83.1318359375 c 0
 -751.861328125 -101.41015625 -698.55859375 -78.6669921875 -680.280273438 -33.1806640625 c 2
 34.16015625 1744.71386719 l 2
 52.4384765625 1790.20019531 29.6953125 1843.50292969 -15.7919921875 1861.78125 c 0
-430.774414062 1355.02929688 m 0xa0
 -430.774414062 1512.45898438 -497.301757812 1719.90625 -674.12109375 1719.90527344 c 0
 -850.939453125 1719.90625 -917.46484375 1512.46191406 -917.46484375 1355.02734375 c 0
 -917.46484375 1197.59863281 -850.938476562 990.153320312 -674.120117188 990.15234375 c 0
 -497.299804688 990.153320312 -430.774414062 1197.59277344 -430.774414062 1355.02929688 c 0xa0
-610.774414062 1355.02929688 m 0x50
 -610.774414062 1236.96191406 -664.544921875 1173.99121094 -674.120117188 1170.26464844 c 1
 -684.143554688 1174.16601562 -737.46484375 1237.50292969 -737.46484375 1355.02832031 c 0
 -737.46484375 1473.09570312 -683.694335938 1536.06640625 -674.120117188 1539.79296875 c 1
 -664.095703125 1535.890625 -610.774414062 1472.5546875 -610.774414062 1355.02929688 c 0x50
-452.408203125 1355.02832031 m 0
 -452.408203125 1484.46972656 -498.87109375 1707.33984375 -674.119140625 1707.34179688 c 0
 -849.357421875 1707.34179688 -895.831054688 1484.52441406 -895.831054688 1355.02832031 c 0
 -895.831054688 1224.91894531 -848.604492188 1004.71582031 -674.120117188 1004.71582031 c 0
 -499.642578125 1004.71582031 -452.408203125 1224.88378906 -452.408203125 1355.02832031 c 0
-632.408203125 1355.02832031 m 0xa0
 -632.408203125 1287.10253906 -654.5 1221.08007812 -674.120117188 1193.83300781 c 1
 -694.331054688 1221.90234375 -715.831054688 1287.37402344 -715.831054688 1355.02929688 c 0
 -715.831054688 1422.54589844 -694.029296875 1489.30175781 -674.120117188 1517.59960938 c 1
 -653.612304688 1488.45117188 -632.408203125 1422.28515625 -632.408203125 1355.02832031 c 0xa0
79.9375 365.197265625 m 0x0a
 79.9375 522.625976562 13.412109375 730.07421875 -163.408203125 730.073242188 c 0
 -340.2265625 730.072265625 -406.752929688 522.6328125 -406.752929688 365.198242188 c 0
 -406.752929688 207.767578125 -340.225585938 0.3193359375 -163.40625 0.3203125 c 0
 13.412109375 0.3193359375 79.9375 207.762695312 79.9375 365.197265625 c 0x0a
-100.0625 365.197265625 m 0x05
 -100.0625 247.129882812 -153.833007812 184.159179688 -163.407226562 180.432617188 c 1
 -173.430664062 184.333984375 -226.752929688 247.671875 -226.752929688 365.197265625 c 0
 -226.752929688 483.263671875 -172.983398438 546.233398438 -163.407226562 549.9609375 c 1
 -153.383789062 546.059570312 -100.0625 482.72265625 -100.0625 365.197265625 c 0x05
58.3037109375 365.197265625 m 0
 58.3037109375 494.635742188 11.8427734375 717.509765625 -163.407226562 717.509765625 c 0
 -338.642578125 717.509765625 -385.120117188 494.692382812 -385.119140625 365.196289062 c 0
 -385.119140625 235.0859375 -337.891601562 14.8837890625 -163.407226562 14.8837890625 c 0
 11.0703125 14.8837890625 58.3037109375 235.05078125 58.3037109375 365.197265625 c 0
-121.696289062 365.196289062 m 0x0a
 -121.696289062 297.270507812 -143.788085938 231.248046875 -163.407226562 204.000976562 c 1
 -183.620117188 232.071289062 -205.119140625 297.541992188 -205.119140625 365.197265625 c 0
 -205.119140625 432.713867188 -183.317382812 499.467773438 -163.407226562 527.767578125 c 1
 -142.900390625 498.619140625 -121.696289062 432.453125 -121.696289062 365.196289062 c 0x0a
EndSplineSet
Validated: 37
EndChar

StartChar: ampersand
Encoding: 38 38 8
Width: 1216
GlyphClass: 2
Flags: MW
HStem: -60 215<406.963 526.215 406.963 564.192> -25 145<403.416 531.352 403.416 556.71> 1378 212<493.474 581.845> 1410 148<485.348 583.959 583.959 594.614>
VStem: 26.3066 213.238<315.463 372.574 315.463 463.501> 59.5439 146.763 158.307 209.192<1131.66 1172.33> 187.499 150.81 701.808 209.192<1078.65 1151.91 1042.25 1238.68> 731 150.808 905.576 224.104<-24.5107 27.7192> 949.681 135.896<-24.5107 24.5605>
LayerCount: 2
Fore
SplineSet
988.801757812 354.650390625 m 1xa020
 1080.39453125 548.493164062 1125.30078125 761.577148438 1125.30078125 904.133789062 c 0
 1125.30078125 953.155273438 1084.32226562 994.133789062 1035.30078125 994.133789062 c 0
 986.279296875 994.133789062 945.30078125 953.155273438 945.30078125 904.133789062 c 0
 945.30078125 814.092773438 916.9375 656.766601562 859.61328125 509.612304688 c 1
 774.174804688 600.887695312 683.561523438 681.676757812 613.299804688 741.76953125 c 1
 763.3046875 813.326171875 911 932.583007812 911 1151.91015625 c 1
 904.921875 1460.25390625 719.620117188 1590 583.958984375 1590 c 2
 485.34765625 1590 l 2
 353.181640625 1590 166.932617188 1468.27636719 158.306640625 1172.33496094 c 1xa280
 158.306640625 1027.10253906 209.53515625 908.110351562 294.913085938 799.7578125 c 1
 137.608398438 711.295898438 26.306640625 563.846679688 26.306640625 363.15625 c 0
 26.306640625 77.49609375 266.06640625 -60 474.653320312 -60 c 0
 653.731445312 -60 791.484375 49.947265625 887.56640625 181.676757812 c 1
 928.423828125 112.63671875 949.680664062 49.12109375 949.680664062 0 c 0xa810
 949.680664062 -49.021484375 990.659179688 -90 1039.68066406 -90 c 0
 1088.70214844 -90 1129.68066406 -49.021484375 1129.68066406 0 c 0
 1129.68066406 127.995117188 1066.14648438 247.784179688 988.801757812 354.650390625 c 1xa020
467.166015625 874.444335938 m 1
 377.703125 975.119140625 338.712890625 1059.0546875 338.30859375 1169.7578125 c 1
 345.50390625 1382.67871094 460.919921875 1410 485.34765625 1410 c 2
 583.958984375 1410 l 2
 605.268554688 1410 725.9609375 1380.71777344 731 1150.13574219 c 0x1140
 730.276367188 1009.45703125 636.302734375 942.176757812 467.166015625 874.444335938 c 1
774.155273438 335.538085938 m 1
 689.72265625 199.390625 588.05078125 120 474.653320312 120 c 0
 332.177734375 120 206.306640625 201.0390625 206.306640625 363.15625 c 0x44
 206.306640625 505.208007812 281.673828125 598.331054688 425.758789062 664.485351562 c 1
 506.299804688 596.926757812 655.428710938 472.975585938 774.155273438 335.538085938 c 1
850.352539062 187.056640625 m 1
 886.1640625 119.590820312 905.576171875 55.4384765625 905.576171875 0 c 0x5420
 905.576171875 -49.021484375 946.5546875 -90 995.576171875 -90 c 0
 1044.59765625 -90 1085.57617188 -49.021484375 1085.57617188 0 c 0
 1085.57617188 131.54296875 1027.15332031 254.498046875 954.053710938 362.962890625 c 1
 1051.85058594 572.166992188 1092.44726562 797.98828125 1092.44726562 904.186523438 c 0
 1092.44726562 953.208007812 1051.46875 994.186523438 1002.44726562 994.186523438 c 0
 953.42578125 994.186523438 912.447265625 953.208007812 912.447265625 904.186523438 c 0
 912.447265625 848.936523438 886.116210938 681.616210938 826.876953125 524.508789062 c 1
 750.51171875 609.938476562 670.47265625 684.516601562 607.240234375 741.07421875 c 1
 752.565429688 814.563476562 881.807617188 939.255859375 881.807617188 1153.11621094 c 0
 881.807617188 1391.69726562 743.037109375 1558 534.306640625 1558 c 0
 358.739257812 1558 187.499023438 1423.83496094 187.499023438 1173.11621094 c 0x5150
 187.499023438 1053.66894531 230.627929688 913.342773438 302.534179688 799.665039062 c 1
 148.225585938 702.763671875 58.392578125 542.889648438 59.5439453125 371.821289062 c 0
 60.205078125 152.166992188 246.290039062 -25 475 -25 c 0
 638.420898438 -25 763.38671875 71.5205078125 850.352539062 187.056640625 c 1
468.438476562 875.416015625 m 1
 408.259765625 959.856445312 367.499023438 1090.21191406 367.499023438 1173.11621094 c 0
 367.499023438 1332.10839844 452.641601562 1378 534.306640625 1378 c 0
 629.3828125 1378 701.807617188 1324.24609375 701.807617188 1153.11621094 c 0x2280
 701.807617188 1004.19335938 620.282226562 938.883789062 468.438476562 875.416015625 c 1
424.51171875 662.302734375 m 1
 501.74609375 594.420898438 635.137695312 478.345703125 741.669921875 347.111328125 c 1
 666.071289062 224.581054688 577.430664062 155 475 155 c 0
 338.92578125 155 239.544921875 258.3515625 239.544921875 372.57421875 c 0x88
 238.520507812 486.708984375 301.727539062 597.728515625 424.51171875 662.302734375 c 1
EndSplineSet
Validated: 37
EndChar

StartChar: quotesingle
Encoding: 39 39 9
Width: 416
GlyphClass: 2
Flags: MW
HStem: 1199 182.935<213.989 225.241 213.989 263.011>
VStem: 110.73 217.77<1264.49 1289 1289 1291.93 1291.93 1550> 148.5 142.23<1264.49 1550 1289 1316.45 1289 1316.45 1289 1550> 148.5 180<1264.49 1289 1275.88 1291.93 1291.93 1316.45 1275.93 1291.93 1291.93 1316.45 1289 1291.93 1291.93 1550>
LayerCount: 2
Fore
SplineSet
238.5 1640 m 0xc0
 189.478515625 1640 148.5 1599.02148438 148.5 1550 c 2
 148.5 1289 l 2x90
 148.5 1239.97851562 189.478515625 1199 238.5 1199 c 0
 287.521484375 1199 328.5 1239.97851562 328.5 1289 c 2
 328.5 1550 l 2
 328.5 1599.02148438 287.521484375 1640 238.5 1640 c 0xc0
200.73046875 1640 m 0
 151.708984375 1640 110.73046875 1599.02148438 110.73046875 1550 c 2
 110.73046875 1289 l 2xc0
 110.73046875 1239.97851562 151.708984375 1199 200.73046875 1199 c 0
 249.751953125 1199 290.73046875 1239.97851562 290.73046875 1289 c 2
 290.73046875 1550 l 2xa0
 290.73046875 1599.02148438 249.751953125 1640 200.73046875 1640 c 0
238.5 1381.93457031 m 0
 189.478515625 1381.93457031 148.5 1340.95605469 148.5 1291.93457031 c 0xa0
 148.5 1259.92480469 79.7734375 1185.89941406 61.9462890625 1158.625 c 0
 35.126953125 1117.59082031 47.0087890625 1060.87011719 88.04296875 1034.04980469 c 0
 129.077148438 1007.23046875 185.797851562 1019.11230469 212.618164062 1060.14648438 c 2
 313.8359375 1215.0078125 l 2
 321.475585938 1226.69628906 328.5 1246.70703125 328.5 1264.24707031 c 2xc0
 328.5 1291.93457031 l 2x90
 328.5 1340.95605469 287.521484375 1381.93457031 238.5 1381.93457031 c 0
238.5 1381.93457031 m 0
 189.478515625 1381.93457031 148.5 1340.95605469 148.5 1291.93457031 c 0xa0
 148.5 1259.83300781 79.4619140625 1185.5625 61.59375 1158.25488281 c 0
 34.75390625 1117.23339844 46.607421875 1060.50683594 87.6279296875 1033.66601562 c 0
 128.649414062 1006.82617188 185.375976562 1018.6796875 212.216796875 1059.70019531 c 2
 313.811523438 1214.96972656 l 2
 321.46875 1226.67285156 328.5 1246.69140625 328.5 1264.24707031 c 2xc0
 328.5 1291.93457031 l 2x90
 328.5 1340.95605469 287.521484375 1381.93457031 238.5 1381.93457031 c 0
EndSplineSet
Validated: 37
EndChar

StartChar: parenleft
Encoding: 40 40 10
Width: 624
GlyphClass: 2
Flags: MW
VStem: 60.793 222.229 103.021 137.771
LayerCount: 2
Fore
SplineSet
529.627929688 -297.350585938 m 0x80
 566.02734375 -264.514648438 569.004882812 -206.638671875 536.16796875 -170.240234375 c 0
 517.797851562 -149.875976562 241.295898438 200.528320312 240.79296875 757.650390625 c 1x40
 246.151367188 1248.40429688 494.127929688 1582.23144531 540.8515625 1648.3203125 c 0
 569.150390625 1688.34863281 559.345703125 1745.46484375 519.317382812 1773.76464844 c 0
 479.2890625 1802.06347656 422.172851562 1792.25878906 393.873046875 1752.23046875 c 0
 344.735351562 1682.72753906 66.263671875 1308.38867188 60.79296875 758.548828125 c 1
 60.79296875 138.712890625 360.078125 -243.767578125 402.517578125 -290.810546875 c 0
 435.353515625 -327.209960938 493.229492188 -330.1875 529.627929688 -297.350585938 c 0x80
532.008789062 -295.815429688 m 0
 568.87109375 -262.559570312 570.65234375 -205.545898438 538.671875 -168.828125 c 0
 514.822265625 -140.077148438 283.458007812 205.693359375 283.021484375 755.196289062 c 1x80
 288.35546875 1249.85839844 502.715820312 1592.54980469 543.229492188 1649.85449219 c 0
 571.529296875 1689.8828125 561.725585938 1746.99902344 521.697265625 1775.29882812 c 0
 481.668945312 1803.59863281 424.552734375 1793.79492188 396.252929688 1753.76660156 c 0
 340.89453125 1675.46679688 108.454101562 1302.0859375 103.021484375 756.094726562 c 1
 103.021484375 140.2578125 356.123046875 -235.213867188 404.897460938 -289.278320312 c 0
 437.734375 -325.67578125 495.610351562 -328.653320312 532.008789062 -295.815429688 c 0
EndSplineSet
Validated: 37
EndChar

StartChar: parenright
Encoding: 41 41 11
Width: 624
GlyphClass: 2
Flags: MW
VStem: 352.34 222.229 394.568 137.771
LayerCount: 2
Fore
SplineSet
105.733398438 -297.350585938 m 0x40
 142.131835938 -330.1875 200.0078125 -327.209960938 232.84375 -290.810546875 c 0
 275.283203125 -243.767578125 574.568359375 138.712890625 574.568359375 758.548828125 c 1x80
 569.09765625 1308.38867188 290.625976562 1682.72753906 241.48828125 1752.23046875 c 0
 213.188476562 1792.25878906 156.072265625 1802.06347656 116.043945312 1773.76464844 c 0
 76.015625 1745.46484375 66.2109375 1688.34863281 94.509765625 1648.3203125 c 0
 141.233398438 1582.23144531 389.209960938 1248.40429688 394.568359375 757.650390625 c 1
 394.065429688 200.528320312 117.563476562 -149.875976562 99.193359375 -170.240234375 c 0
 66.3564453125 -206.638671875 69.333984375 -264.514648438 105.733398438 -297.350585938 c 0x40
103.352539062 -295.815429688 m 0
 139.750976562 -328.653320312 197.626953125 -325.67578125 230.463867188 -289.278320312 c 0
 279.23828125 -235.213867188 532.33984375 140.2578125 532.33984375 756.094726562 c 1x40
 526.908203125 1302.0859375 294.465820312 1675.46679688 239.108398438 1753.76660156 c 0
 210.80859375 1793.79492188 153.692382812 1803.59863281 113.6640625 1775.29882812 c 0
 73.6357421875 1746.99902344 63.83203125 1689.8828125 92.1318359375 1649.85449219 c 0
 132.645507812 1592.54980469 347.006835938 1249.85839844 352.33984375 755.196289062 c 1
 351.903320312 205.693359375 120.5390625 -140.077148438 96.689453125 -168.828125 c 0
 64.708984375 -205.545898438 66.490234375 -262.559570312 103.352539062 -295.815429688 c 0
EndSplineSet
Validated: 37
EndChar

StartChar: asterisk
Encoding: 42 42 12
Width: 1024
GlyphClass: 2
Flags: W
LayerCount: 2
Fore
SplineSet
80 512 m 1
 392 776 l 1
 80 1048 l 1
 192 1208 l 1
 448 920 l 1
 424 1552 l 1
 600 1552 l 1
 576 920 l 1
 840 1208 l 1
 944 1048 l 1
 640 776 l 1
 952 512 l 1
 840 344 l 1
 576 648 l 1
 600 0 l 1
 424 0 l 1
 448 648 l 1
 192 344 l 1
 80 512 l 1
EndSplineSet
Validated: 1
EndChar

StartChar: plus
Encoding: 43 43 13
Width: 1024
GlyphClass: 2
Flags: W
LayerCount: 2
Fore
SplineSet
77.48828125 586.1875 m 0
 77.48828125 537.166015625 118.466796875 496.1875 167.48828125 496.1875 c 2
 879.48828125 496.1875 l 2
 928.509765625 496.1875 969.48828125 537.166015625 969.48828125 586.1875 c 0
 969.48828125 635.208984375 928.509765625 676.1875 879.48828125 676.1875 c 2
 167.48828125 676.1875 l 2
 118.466796875 676.1875 77.48828125 635.208984375 77.48828125 586.1875 c 0
77.48828125 586.1875 m 0
 77.48828125 537.166015625 118.466796875 496.1875 167.48828125 496.1875 c 2
 879.48828125 496.1875 l 2
 928.509765625 496.1875 969.48828125 537.166015625 969.48828125 586.1875 c 0
 969.48828125 635.208984375 928.509765625 676.1875 879.48828125 676.1875 c 2
 167.48828125 676.1875 l 2
 118.466796875 676.1875 77.48828125 635.208984375 77.48828125 586.1875 c 0
-2871.11328125 2350.57421875 m 0
 -2920.13476562 2350.57421875 -2961.11328125 2309.59667969 -2961.11328125 2260.57421875 c 2
 -2961.11328125 1548.57421875 l 2
 -2961.11328125 1499.55273438 -2920.13476562 1458.57421875 -2871.11328125 1458.57421875 c 0
 -2822.09179688 1458.57421875 -2781.11328125 1499.55273438 -2781.11328125 1548.57421875 c 2
 -2781.11328125 2260.57421875 l 2
 -2781.11328125 2309.59667969 -2822.09179688 2350.57421875 -2871.11328125 2350.57421875 c 0
-2871.11328125 2350.57421875 m 0
 -2920.13476562 2350.57421875 -2961.11328125 2309.59667969 -2961.11328125 2260.57421875 c 2
 -2961.11328125 1548.57421875 l 2
 -2961.11328125 1499.55273438 -2920.13476562 1458.57421875 -2871.11328125 1458.57421875 c 0
 -2822.09179688 1458.57421875 -2781.11328125 1499.55273438 -2781.11328125 1548.57421875 c 2
 -2781.11328125 2260.57421875 l 2
 -2781.11328125 2309.59667969 -2822.09179688 2350.57421875 -2871.11328125 2350.57421875 c 0
EndSplineSet
Validated: 5
EndChar

StartChar: comma
Encoding: 44 44 14
Width: 416
GlyphClass: 2
Flags: MW
HStem: -90.3506 182.935<213.989 225.241 213.989 263.011>
VStem: 110.73 217.77<-24.8613 -0.350586 -0.350586 2.58398 2.58398 260.649> 148.5 142.23<-24.8613 260.649 -0.350586 27.0947 -0.350586 27.0947 -0.350586 260.649> 148.5 180<-24.8613 -0.350586 -13.4658 2.58398 2.58398 27.0947 -13.4204 2.58398 2.58398 27.0947 -0.350586 2.58398 2.58398 260.649>
LayerCount: 2
Fore
SplineSet
238.5 350.649414062 m 0xc0
 189.478515625 350.649414062 148.5 309.670898438 148.5 260.649414062 c 2
 148.5 -0.3505859375 l 2x90
 148.5 -49.3720703125 189.478515625 -90.3505859375 238.5 -90.3505859375 c 0
 287.521484375 -90.3505859375 328.5 -49.3720703125 328.5 -0.3505859375 c 2
 328.5 260.649414062 l 2
 328.5 309.670898438 287.521484375 350.649414062 238.5 350.649414062 c 0xc0
200.73046875 350.649414062 m 0
 151.708984375 350.649414062 110.73046875 309.670898438 110.73046875 260.649414062 c 2
 110.73046875 -0.3505859375 l 2xc0
 110.73046875 -49.3720703125 151.708984375 -90.3505859375 200.73046875 -90.3505859375 c 0
 249.751953125 -90.3505859375 290.73046875 -49.3720703125 290.73046875 -0.3505859375 c 2
 290.73046875 260.649414062 l 2xa0
 290.73046875 309.670898438 249.751953125 350.649414062 200.73046875 350.649414062 c 0
238.5 92.583984375 m 0
 189.478515625 92.583984375 148.5 51.60546875 148.5 2.583984375 c 0xa0
 148.5 -29.4248046875 79.7724609375 -103.451171875 61.9462890625 -130.725585938 c 0
 35.1259765625 -171.759765625 47.0087890625 -228.48046875 88.04296875 -255.30078125 c 0
 129.077148438 -282.120117188 185.797851562 -270.23828125 212.618164062 -229.204101562 c 2
 313.8359375 -74.341796875 l 2
 321.475585938 -62.6533203125 328.5 -42.642578125 328.5 -25.1025390625 c 2xc0
 328.5 2.583984375 l 2x90
 328.5 51.60546875 287.521484375 92.583984375 238.5 92.583984375 c 0
238.5 92.583984375 m 0
 189.478515625 92.583984375 148.5 51.60546875 148.5 2.583984375 c 0xa0
 148.5 -29.515625 79.4619140625 -103.788085938 61.59375 -131.096679688 c 0
 34.75390625 -172.1171875 46.607421875 -228.84375 87.62890625 -255.684570312 c 0
 128.649414062 -282.524414062 185.375976562 -270.670898438 212.216796875 -229.649414062 c 2
 313.811523438 -74.37890625 l 2
 321.46875 -62.6767578125 328.5 -42.658203125 328.5 -25.1025390625 c 2xc0
 328.5 2.583984375 l 2x90
 328.5 51.60546875 287.521484375 92.583984375 238.5 92.583984375 c 0
EndSplineSet
Validated: 37
EndChar

StartChar: hyphen
Encoding: 45 45 15
Width: 1024
GlyphClass: 2
Flags: MW
HStem: 496.188 180<167.488 879.488 167.488 879.488>
LayerCount: 2
Fore
SplineSet
77.48828125 586.1875 m 0
 77.48828125 537.166015625 118.466796875 496.1875 167.48828125 496.1875 c 2
 879.48828125 496.1875 l 2
 928.509765625 496.1875 969.48828125 537.166015625 969.48828125 586.1875 c 0
 969.48828125 635.208984375 928.509765625 676.1875 879.48828125 676.1875 c 2
 167.48828125 676.1875 l 2
 118.466796875 676.1875 77.48828125 635.208984375 77.48828125 586.1875 c 0
77.48828125 586.1875 m 0
 77.48828125 537.166015625 118.466796875 496.1875 167.48828125 496.1875 c 2
 879.48828125 496.1875 l 2
 928.509765625 496.1875 969.48828125 537.166015625 969.48828125 586.1875 c 0
 969.48828125 635.208984375 928.509765625 676.1875 879.48828125 676.1875 c 2
 167.48828125 676.1875 l 2
 118.466796875 676.1875 77.48828125 635.208984375 77.48828125 586.1875 c 0
EndSplineSet
Validated: 5
EndChar

StartChar: period
Encoding: 46 46 16
Width: 416
GlyphClass: 2
Flags: MW
HStem: -89.6104 441.103<176.363 225.385 213.846 225.385 225.385 262.867>
VStem: 110.874 217.482<-24.1211 261.492 0.389648 261.492> 148.356 142.518<-24.1211 261.492 0.389648 261.492>
LayerCount: 2
Fore
SplineSet
238.356445312 351.4921875 m 0xc0
 189.334960938 351.4921875 148.356445312 310.513671875 148.356445312 261.4921875 c 2
 148.356445312 0.3896484375 l 2xa0
 148.356445312 -48.6318359375 189.334960938 -89.6103515625 238.356445312 -89.6103515625 c 0
 287.377929688 -89.6103515625 328.356445312 -48.6318359375 328.356445312 0.3896484375 c 2
 328.356445312 261.4921875 l 2
 328.356445312 310.513671875 287.377929688 351.4921875 238.356445312 351.4921875 c 0xc0
200.874023438 351.4921875 m 0
 151.852539062 351.4921875 110.874023438 310.513671875 110.874023438 261.4921875 c 2
 110.874023438 0.3896484375 l 2xc0
 110.874023438 -48.6318359375 151.852539062 -89.6103515625 200.874023438 -89.6103515625 c 0
 249.895507812 -89.6103515625 290.874023438 -48.6318359375 290.874023438 0.3896484375 c 2
 290.874023438 261.4921875 l 2
 290.874023438 310.513671875 249.895507812 351.4921875 200.874023438 351.4921875 c 0
EndSplineSet
Validated: 5
EndChar

StartChar: slash
Encoding: 47 47 17
Width: 1024
GlyphClass: 2
Flags: HW
LayerCount: 2
Fore
SplineSet
937.430664062 1731.38769531 m 4
 892.630859375 1751.29003906 838.544921875 1730.4765625 818.642578125 1685.67675781 c 6
 38.9287109375 -69.5107421875 l 6
 19.02734375 -114.310546875 39.8408203125 -168.396484375 84.640625 -188.297851562 c 4
 129.440429688 -208.200195312 183.526367188 -187.38671875 203.427734375 -142.586914062 c 6
 983.141601562 1612.60058594 l 6
 1003.04394531 1657.40039062 982.23046875 1711.48632812 937.430664062 1731.38769531 c 4
901.813476562 1743.00097656 m 4
 856.327148438 1761.27929688 803.024414062 1738.53515625 784.74609375 1693.04882812 c 6
 70.306640625 -84.8447265625 l 6
 52.02734375 -130.331054688 74.771484375 -183.633789062 120.2578125 -201.912109375 c 4
 165.744140625 -220.190429688 219.046875 -197.447265625 237.325195312 -151.959960938 c 6
 951.765625 1625.93261719 l 6
 970.043945312 1671.41894531 947.299804688 1724.72167969 901.813476562 1743.00097656 c 4
EndSplineSet
Validated: 524325
EndChar

StartChar: zero
Encoding: 48 48 18
Width: 1024
GlyphClass: 2
Flags: MW
HStem: -59.9951 222.346 -17.6494 137.645<517 517> 1380.14 220.434 1420.58 139.566
VStem: 64.7451 228.291<767.677 967.698> 113.036 131.709<767.984 965.29> 742.577 227.807<578.732 967.707 554.89 991.834> 790.384 132.193<598.375 976.496 598.375 979.771>
LayerCount: 2
Fore
SplineSet
113.036132812 770.471679688 m 0x55
 113.036132812 425.612304688 178.002929688 -17.6494140625 517.080078125 -17.6494140625 c 0
 856.526367188 -17.6494140625 922.577148438 425.267578125 922.577148438 771.483398438 c 0
 922.577148438 1181.50878906 841.401367188 1559.93554688 518.564453125 1560.14355469 c 0
 193.353515625 1560.3515625 113.036132812 1160.10839844 113.036132812 770.471679688 c 0x55
293.036132812 770.471679688 m 0xaa
 293.036132812 1192.35253906 397.498046875 1380.22070312 518.44921875 1380.14355469 c 0
 641.774414062 1380.06445312 742.577148438 1212.18457031 742.577148438 771.483398438 c 0
 742.577148438 385.98046875 644.493164062 162.350585938 517.080078125 162.350585938 c 0
 390.452148438 162.350585938 293.036132812 385.727539062 293.036132812 770.471679688 c 0xaa
790.383789062 771.701171875 m 0x55
 790.383789062 324.895507812 655.928710938 121.474609375 517.625976562 119.995117188 c 0
 383.901367188 118.564453125 249.3828125 311.805664062 244.859375 749.537109375 c 0
 244.783203125 756.877929688 244.745117188 764.266601562 244.745117188 771.701171875 c 0
 244.745117188 1187.859375 389.809570312 1420.57714844 488.515625 1420.57714844 c 2
 546.614257812 1420.57714844 l 2
 645.216796875 1420.57714844 790.383789062 1187.84179688 790.383789062 771.701171875 c 0x55
970.383789062 771.701171875 m 0xaa
 970.383789062 1163.71289062 855.685546875 1600.57714844 546.614257812 1600.57714844 c 2
 488.515625 1600.57714844 l 2
 179.346679688 1600.57714844 64.7451171875 1163.6953125 64.7451171875 771.701171875 c 0
 64.7451171875 763.65234375 64.7861328125 755.643554688 64.8681640625 747.677734375 c 0
 69.255859375 323.08984375 194.197265625 -63.4755859375 519.551757812 -59.9951171875 c 0
 848.477539062 -56.4765625 970.383789062 338.079101562 970.383789062 771.701171875 c 0xaa
EndSplineSet
Validated: 41
EndChar

StartChar: one
Encoding: 49 49 19
Width: 1024
GlyphClass: 2
Flags: MW
HStem: -40 225<200 820 469.63 518.651> 5 135<200 820 505.611 554.633> 1159.38 216.904<174.911 243.613> 1196.28 143.096<174.911 249.603 174.911 249.603> 1196.28 180<174.911 249.603 174.911 249.603>
VStem: 109.416 510.706<1224.87 1273.89> 109.422 474.578<1261.77 1484.45 1261.77 1484.45> 404 180<1443.99 1484.45 1443.99 1484.45 1343.21 1549.99> 440.122 144.011<50.0078 95 50.0078 1231.56>
LayerCount: 2
Fore
SplineSet
494.140625 -40 m 0x81
 543.162109375 -40 584.13671875 0.986328125 584.1328125 50.0078125 c 2x8080
 584 1550.0078125 l 2
 583.99609375 1599.02929688 543.013671875 1640.00390625 493.9921875 1640 c 0
 444.970703125 1639.99609375 403.99609375 1599.01367188 404 1549.9921875 c 2
 404.1328125 49.9921875 l 2
 404.13671875 0.970703125 445.119140625 -40 494.140625 -40 c 0x81
494 1549.93554688 m 0
 444.978515625 1549.93554688 404 1508.95703125 404 1459.93554688 c 0x09
 404 1428.04785156 318.123046875 1376.28222656 199.421875 1376.28222656 c 0
 150.400390625 1376.28222656 109.421875 1335.30371094 109.421875 1286.28222656 c 0x22
 109.421875 1237.26074219 150.400390625 1196.28222656 199.421875 1196.28222656 c 0
 299.783203125 1196.28222656 584 1226.49121094 584 1459.93554688 c 0x09
 584 1508.95703125 543.021484375 1549.93554688 494 1549.93554688 c 0
494 1549.93554688 m 0
 444.978515625 1549.93554688 404 1508.95703125 404 1459.93554688 c 0x09
 404 1428.04785156 318.123046875 1376.28222656 199.421875 1376.28222656 c 0
 150.400390625 1376.28222656 109.421875 1335.30371094 109.421875 1286.28222656 c 0x22
 109.421875 1237.26074219 150.400390625 1196.28222656 199.421875 1196.28222656 c 0
 299.783203125 1196.28222656 584 1226.49121094 584 1459.93554688 c 0
 584 1508.95703125 543.021484375 1549.93554688 494 1549.93554688 c 0
440.122070312 1550 m 1x6080
 440.122070312 1443.70117188 333.841796875 1339.37792969 199.416015625 1339.37792969 c 0
 150.39453125 1339.37792969 109.416015625 1298.39941406 109.416015625 1249.37792969 c 0x54
 109.416015625 1200.35644531 150.39453125 1159.37792969 199.416015625 1159.37792969 c 0
 287.809570312 1159.37792969 370.716796875 1185.94433594 440.122070312 1231.5625 c 1
 440.122070312 95 l 2x2080
 440.122070312 45.978515625 481.100585938 5 530.122070312 5 c 0
 579.143554688 5 620.122070312 45.978515625 620.122070312 95 c 2
 620.122070312 1550 l 2x64
 620.122070312 1551 440.122070312 1550 440.122070312 1550 c 1x6080
110 50 m 0
 110 0.978515625 150.978515625 -40 200 -40 c 2
 820 -40 l 2x80
 869.021484375 -40 910 0.978515625 910 50 c 0
 910 99.021484375 869.021484375 140 820 140 c 2
 200 140 l 2
 150.978515625 140 110 99.021484375 110 50 c 0
110 95 m 0
 110 45.978515625 150.978515625 5 200 5 c 2
 820 5 l 2x40
 869.021484375 5 910 45.978515625 910 95 c 0
 910 144.021484375 869.021484375 185 820 185 c 2
 200 185 l 2
 150.978515625 185 110 144.021484375 110 95 c 0
EndSplineSet
Validated: 37
EndChar

StartChar: two
Encoding: 50 50 20
Width: 1024
GlyphClass: 2
Flags: MW
HStem: 0 140<163.699 871.443 299.74 871.443 299.74 871.474 299.74 895.984> 1390 200<451.812 562.815 356.56 565.54> 1410 160<451.455 562.815 562.815 596.351 375.421 602.617>
VStem: 108.896 224.058<1120.38 1208.9 1120.38 1270.76> 152.954 135.942<1120.38 1224.26> 698.011 216.733<1085.35 1191.54 1078.62 1276.9> 734.743 143.268
LayerCount: 2
Fore
SplineSet
198.896484375 1054.88964844 m 0xd4
 247.91796875 1054.88964844 288.896484375 1095.86816406 288.896484375 1144.88964844 c 0
 288.896484375 1335.97167969 398.974609375 1410 451.455078125 1410 c 2
 562.815429688 1410 l 2
 642.41796875 1410 731.053710938 1360.88867188 734.743164062 1189.78808594 c 0xaa
 734.147460938 1045.59277344 641.639648438 918.823242188 494.127929688 732.7421875 c 0
 361.287109375 565.168945312 102.580078125 314.154296875 102.580078125 50 c 0
 102.580078125 -4.4775390625 153.952148438 -40 192.580078125 -40 c 2
 871.443359375 -40 l 2
 920.46484375 -40 961.443359375 0.978515625 961.443359375 50 c 0
 961.443359375 99.021484375 920.46484375 140 871.443359375 140 c 2
 299.740234375 140 l 1
 351.309570312 288.083984375 516.551757812 471.274414062 635.182617188 620.923828125 c 0
 777.924804688 800.987304688 914.744140625 965.703125 914.744140625 1191.53515625 c 1
 909.788085938 1448.09277344 743.328125 1590 562.815429688 1590 c 2
 451.455078125 1590 l 2
 261.6640625 1590 108.896484375 1396.63183594 108.896484375 1144.88964844 c 0
 108.896484375 1095.86816406 149.875 1054.88964844 198.896484375 1054.88964844 c 0xd4
242.954101562 1054.88964844 m 0
 291.975585938 1054.88964844 332.954101562 1095.86816406 332.954101562 1144.88964844 c 0
 332.954101562 1272.91796875 387.5234375 1390 516.099609375 1390 c 0
 614.98046875 1390 698.010742188 1373.69726562 698.010742188 1180.10839844 c 0xd4
 698.010742188 990.587890625 595.787109375 865.428710938 494.069335938 733.17578125 c 0
 349.048828125 544.623046875 163.69921875 376.629882812 163.69921875 90 c 2
 163.69921875 0 l 1
 253.69921875 0 l 1
 871.473632812 0 l 2
 920.495117188 0 961.473632812 40.978515625 961.473632812 90 c 0
 961.473632812 139.021484375 920.495117188 180 871.473632812 180 c 2
 352.91015625 180 l 1
 384.56640625 328.315429688 500.073242188 445.735351562 636.749023438 623.4375 c 0
 732.939453125 748.502929688 878.010742188 919.658203125 878.010742188 1180.10839844 c 0
 878.010742188 1480.02148438 676.6015625 1570 516.099609375 1570 c 0
 234.7421875 1570 152.954101562 1303.62304688 152.954101562 1144.88964844 c 0
 152.954101562 1095.86816406 193.932617188 1054.88964844 242.954101562 1054.88964844 c 0
EndSplineSet
Validated: 5
EndChar

StartChar: three
Encoding: 51 51 21
Width: 1024
GlyphClass: 2
Flags: MW
HStem: -60 220.001 -20 140<471.898 562.264 381.093 614.326> 1410 145<156.756 688.863 688.863 688.863>
VStem: 708.905 222.23<368.918 613.307> 751.136 137.77<364.79 610.041>
LayerCount: 2
Fore
SplineSet
66.755859375 1500 m 0xb0
 66.755859375 1450.97851562 107.734375 1410 156.755859375 1410 c 2
 688.86328125 1410 l 1
 321.354492188 976.561523438 l 2
 307.565429688 960.298828125 300 938.373046875 300 918.357421875 c 2
 300 895.598632812 l 2
 300 841.12109375 351.372070312 805.598632812 390 805.598632812 c 0
 606.22265625 805.598632812 751.135742188 738.364257812 751.135742188 481.717773438 c 0
 751.135742188 247.861328125 649.573242188 120 474.954101562 120 c 0x68
 287.232421875 120 258.168945312 229.331054688 137.328125 229.331054688 c 0
 88.306640625 229.331054688 47.328125 188.352539062 47.328125 139.331054688 c 0
 47.328125 103.526367188 68.943359375 70.5859375 102.529296875 56.330078125 c 1
 138.040039062 34.97265625 280.209960938 -60 474.954101562 -60 c 0
 778.834960938 -60 931.135742188 195.060546875 931.135742188 481.717773438 c 0
 931.135742188 774.268554688 760.762695312 927.432617188 552.0234375 970.282226562 c 1
 890.767578125 1369.79589844 l 2
 903.711914062 1385.0625 912.122070312 1406.67871094 912.122070312 1428 c 2
 912.122070312 1481 l 1
 912.122070312 1500 l 2
 912.122070312 1538.62792969 876.599609375 1590 822.122070312 1590 c 2
 156.755859375 1590 l 2
 107.734375 1590 66.755859375 1549.02148438 66.755859375 1500 c 0xb0
66.228515625 1465 m 0
 66.228515625 1415.97851562 107.20703125 1375 156.228515625 1375 c 2
 623.586914062 1375 l 1
 319.149414062 986.349609375 l 2
 306.700195312 970.458007812 300 948.841796875 300 930.850585938 c 2
 300 882.443359375 l 2
 300 827.965820312 351.372070312 792.443359375 390 792.443359375 c 0
 581.889648438 792.443359375 708.905273438 749.712890625 708.905273438 476.901367188 c 0
 708.905273438 260.934570312 627.088867188 160.674804688 473.916992188 160.000976562 c 1xb0
 288.588867188 164.755859375 265.627929688 283.985351562 137.328125 283.985351562 c 0
 88.306640625 283.985351562 47.328125 243.006835938 47.328125 193.985351562 c 0
 47.328125 159.259765625 67.345703125 127.314453125 99.939453125 112.116210938 c 1
 135.456054688 88.560546875 274.3125 -15.57421875 471.8984375 -20 c 1
 756.75390625 -20 888.905273438 211.7421875 888.905273438 476.901367188 c 0
 888.905273438 778.926757812 728.340820312 925.0625 528.07421875 961.169921875 c 1
 842.4453125 1362.50097656 l 2
 853.540039062 1376.6640625 861.594726562 1397.8125 861.594726562 1418 c 2
 861.594726562 1453 l 1
 861.594726562 1465 l 2
 861.594726562 1503.62792969 826.072265625 1555 771.594726562 1555 c 2
 156.228515625 1555 l 2
 107.20703125 1555 66.228515625 1514.02148438 66.228515625 1465 c 0
EndSplineSet
Validated: 5
EndChar

StartChar: four
Encoding: 52 52 22
Width: 1024
GlyphClass: 2
Flags: MW
VStem: 610 150<-24.5107 303.424 0 303.424 483.424 1309.51>
LayerCount: 2
Fore
SplineSet
670 -90 m 0
 719.021484375 -90 760 -49.021484375 760 0 c 2
 760 303.423828125 l 1
 950.711914062 303.423828125 l 2
 999.733398438 303.423828125 1040.71191406 344.40234375 1040.71191406 393.423828125 c 0
 1040.71191406 442.4453125 999.733398438 483.423828125 950.711914062 483.423828125 c 2
 760 483.423828125 l 1
 760 1500 l 2
 760 1554.47753906 708.627929688 1590 670 1590 c 2
 641.8515625 1590 l 1
 605.661132812 1590 l 2
 568.486328125 1590 535.025390625 1565.02148438 522.366210938 1534.08691406 c 2
 95.9560546875 492.1015625 l 2
 91.5830078125 481.415039062 89.2587890625 468.211914062 89.2509765625 458.080078125 c 2
 89.2119140625 404.590820312 l 1
 89.2041015625 393.489257812 l 2
 89.1650390625 339.033203125 140.456054688 303.423828125 179.204101562 303.423828125 c 2
 580 303.423828125 l 1
 580 0 l 2
 580 -49.021484375 620.978515625 -90 670 -90 c 0
580 483.423828125 m 1
 286.893554688 483.423828125 l 1
 580 1199.66503906 l 1
 580 483.423828125 l 1
610 303.423828125 m 1
 610 0 l 2
 610 -49.021484375 650.978515625 -90 700 -90 c 0
 749.021484375 -90 790 -49.021484375 790 0 c 2
 790 303.423828125 l 1
 950.83984375 303.423828125 l 2
 999.861328125 303.423828125 1040.83984375 344.40234375 1040.83984375 393.423828125 c 0
 1040.83984375 442.4453125 999.861328125 483.423828125 950.83984375 483.423828125 c 2
 790 483.423828125 l 1
 790 1500 l 2
 790 1538.62792969 754.477539062 1590 700 1590 c 2
 655.853515625 1590 l 1
 595.654296875 1590 l 2
 564.81640625 1590 528.193359375 1570.06640625 513.30859375 1536.32128906 c 2
 54.9755859375 497.206054688 l 2
 50.482421875 487.017578125 47.3203125 473.287109375 47.3212890625 460.875976562 c 2
 47.328125 393.415039062 l 2
 47.3330078125 348.342773438 86.19921875 303.423828125 137.328125 303.423828125 c 2
 610 303.423828125 l 1
610 483.423828125 m 1
 245.62890625 483.423828125 l 1
 610 1309.51269531 l 1
 610 483.423828125 l 1
EndSplineSet
Validated: 37
EndChar

StartChar: five
Encoding: 53 53 23
Width: 1024
GlyphClass: 2
Flags: MW
HStem: -60 224.704 -15.2979 135.298<447.357 542.354 357.932 600.444> 893.972 203.719 917.69 156.28 1410 130<284.887 880>
VStem: 704.364 215.961<438.018 551.745> 740.325 144.039<421.848 551.884 420.938 659.986>
LayerCount: 2
Fore
SplineSet
47.328125 94.6357421875 m 0x5a
 47.328125 53.32421875 76.5146484375 17.755859375 114.405273438 7.6025390625 c 1
 147.178710938 -5.4697265625 272.42578125 -60 454.954101562 -60 c 0
 783.565429688 -60 920.325195312 259.733398438 920.325195312 553.770507812 c 0
 920.325195312 844.572265625 711.213867188 1097.12695312 440.775390625 1097.69042969 c 0xac
 377.243164062 1097.82226562 322.329101562 1087.59960938 284.46484375 1076.22753906 c 1
 284.88671875 1410 l 1
 880 1410 l 2
 929.021484375 1410 970 1450.97851562 970 1500 c 0
 970 1549.02148438 929.021484375 1590 880 1590 c 2
 195 1590 l 2
 150.12109375 1590 105.064453125 1551.28222656 105 1500.11328125 c 2
 104.353515625 988.328125 l 2
 104.322265625 963.153320312 117.723632812 932.477539062 141.786132812 915.162109375 c 2
 185.283203125 883.862304688 l 2
 214.96484375 862.50390625 255.072265625 859.154296875 292.674804688 885.4296875 c 0
 293.551757812 886.01171875 342.337890625 917.89453125 440.400390625 917.690429688 c 0
 589.397460938 917.380859375 740.325195312 766.201171875 740.325195312 553.770507812 c 0
 740.325195312 289.924804688 629.754882812 120 454.954101562 120 c 0
 260.909179688 120 228.2578125 184.635742188 137.328125 184.635742188 c 0
 88.306640625 184.635742188 47.328125 143.657226562 47.328125 94.6357421875 c 0x5a
288.752929688 856.887695312 m 0
 292.467773438 859.032226562 357.23046875 893.971679688 424.62109375 893.971679688 c 0
 523.612304688 896.819335938 697.916992188 789.823242188 704.190429688 562.311523438 c 0
 704.305664062 558.12109375 704.364257812 553.885742188 704.364257812 549.604492188 c 0
 704.364257812 326.430664062 597.954101562 165.520507812 449.322265625 164.704101562 c 1xac
 257.603515625 169.390625 232.50390625 235.331054688 137.328125 235.331054688 c 0
 88.306640625 235.331054688 47.328125 194.352539062 47.328125 145.331054688 c 0
 47.328125 104.584960938 75.5283203125 69.4248046875 113.307617188 58.591796875 c 1
 147.594726562 43.91015625 265.452148438 -11.22265625 447.357421875 -15.2978515625 c 1
 753.53125 -15.2978515625 884.364257812 292.271484375 884.364257812 549.604492188 c 0
 884.364257812 554.1640625 884.31640625 558.701171875 884.220703125 563.215820312 c 0
 877.354492188 887.325195312 627.428710938 1078.69433594 422.078125 1073.97070312 c 0x5a
 369.245117188 1073.6953125 325.529296875 1063.59863281 289.76171875 1052.30664062 c 1
 314.290039062 1360 l 1
 880 1360 l 2
 929.021484375 1360 970 1400.97851562 970 1450 c 0
 970 1499.02148438 929.021484375 1540 880 1540 c 2
 231.1796875 1540 l 2
 185.463867188 1540 145.168945312 1503.62792969 141.463867188 1457.15234375 c 2
 104.637695312 995.204101562 l 2
 102.75 971.522460938 111.603515625 944.094726562 129.7578125 925.3828125 c 2
 171.541992188 882.314453125 l 1
 180.594726562 872.983398438 l 2
 206.17578125 846.616210938 252.306640625 837.388671875 288.752929688 856.887695312 c 0
EndSplineSet
Validated: 37
EndChar

StartChar: six
Encoding: 54 54 24
Width: 1024
GlyphClass: 2
Flags: MW
HStem: -59.998 214.998 -25 144.998 866.171 181.245<474.049 557.459 457.979 571.821>
VStem: 89.9092 212.646<348.572 542.816> 122.556 147.354<354.092 556.143> 722.044 214.403<348.107 631.92 335.863 639.305> 756.447 145.597<353.687 625.303>
LayerCount: 2
Fore
SplineSet
162.350585938 817.333007812 m 0x6a
 162.064453125 816.24609375 161.627929688 814.436523438 161.331054688 813.124023438 c 0
 137.44921875 713.883789062 122.555664062 609.592773438 122.555664062 502.693359375 c 0
 122.555664062 150.084960938 266.389648438 -25 514.293945312 -25 c 0
 760.844726562 -25 902.043945312 151.047851562 902.043945312 502.693359375 c 0
 902.043945312 804.741210938 777.474609375 1046.17089844 514.293945312 1046.17089844 c 0
 483.087890625 1046.17089844 453.505859375 1042.77734375 426.143554688 1036.7265625 c 1
 544.861328125 1312.46289062 709.1640625 1440.70898438 709.1640625 1550 c 0
 709.1640625 1599.02148438 668.185546875 1640 619.1640625 1640 c 0
 586.881835938 1640 557.772460938 1622.57226562 541.114257812 1594.84765625 c 0
 512.053710938 1553.34179688 317.9453125 1295.43652344 204.805664062 962.576171875 c 0
 188.877929688 915.71484375 174.484375 867.159179688 162.350585938 817.333007812 c 0x6a
334.416992188 762.92578125 m 0
 338.5859375 770.287109375 346.879882812 783.41015625 359.068359375 797.297851562 c 0
 387.741210938 829.967773438 433.803710938 866.170898438 514.293945312 866.170898438 c 0
 629.34765625 866.170898438 722.043945312 775.916992188 722.043945312 502.693359375 c 0
 722.043945312 193.520507812 641.209960938 155 514.293945312 155 c 0
 384.225585938 155 302.555664062 194.450195312 302.555664062 502.693359375 c 0xb4
 302.555664062 589.828125 314.462890625 677.615234375 334.416992188 762.92578125 c 0
383.412109375 1030.65722656 m 1
 496.255859375 1315.55371094 653.8984375 1441.62890625 653.8984375 1550 c 0
 653.8984375 1599.02148438 612.919921875 1640 563.8984375 1640 c 0
 530.576171875 1640 500.333984375 1620.96679688 484.573242188 1592.53222656 c 0
 450.864257812 1542.04980469 218.666992188 1221.78222656 126.9765625 810.161132812 c 0
 104.137695312 707.6328125 89.9091796875 598.938476562 89.9091796875 486.693359375 c 0
 89.9091796875 184.607421875 218.225585938 -58.30859375 512.20703125 -59.998046875 c 0
 808.262695312 -61.7001953125 936.447265625 185.032226562 936.447265625 486.693359375 c 0
 936.447265625 777.147460938 831.982421875 1047.41601562 557.458984375 1047.41601562 c 2
 472.859375 1047.41601562 l 2
 443.09765625 1047.41601562 413.125 1041.44628906 383.412109375 1030.65722656 c 1
269.909179688 486.693359375 m 0x6a
 269.909179688 800.006835938 436.618164062 867.416015625 472.859375 867.416015625 c 2
 557.458984375 867.416015625 l 2
 669.107421875 867.416015625 756.447265625 763.913085938 756.447265625 486.693359375 c 0
 756.447265625 220.680664062 671.225585938 119.090820312 513.2421875 119.998046875 c 0
 354.559570312 120.91015625 269.909179688 221.490234375 269.909179688 486.693359375 c 0x6a
EndSplineSet
Validated: 37
EndChar

StartChar: seven
Encoding: 55 55 25
Width: 1024
GlyphClass: 2
Flags: MW
HStem: 1410 130<144.354 714.29 714.29 714.29>
VStem: 264.678 231.483<0 0> 316.167 128.511<0 0>
LayerCount: 2
Fore
SplineSet
406.921875 -89.9970703125 m 0xa0
 455.942382812 -89.583984375 496.57421875 -48.26171875 496.161132812 0.7578125 c 0xc0
 490.99609375 613.921875 907.092773438 1391.37597656 909.5703125 1395.93359375 c 0
 917.1015625 1410.58789062 920 1423.81738281 920 1438 c 2
 920 1500 l 2
 920 1554.47753906 868.627929688 1590 830 1590 c 2
 144.353515625 1590 l 2
 95.33203125 1590 54.353515625 1549.02148438 54.353515625 1500 c 0
 54.353515625 1450.97851562 95.33203125 1410 144.353515625 1410 c 2
 714.290039062 1410 l 1
 610.228515625 1201.81445312 311.404296875 564.65234375 316.166992188 -0.7578125 c 0
 316.580078125 -49.7783203125 357.90234375 -90.41015625 406.921875 -89.9970703125 c 0xa0
354.677734375 -90 m 0
 403.69921875 -90 444.677734375 -49.021484375 444.677734375 0 c 0xa0
 444.677734375 512.826171875 907.754882812 1392.75488281 909.797851562 1396.56152344 c 0
 917.178710938 1411.11914062 920 1424.2421875 920 1438.1953125 c 2
 920 1450 l 2
 920 1504.47753906 868.627929688 1540 830 1540 c 2
 144.353515625 1540 l 2
 95.33203125 1540 54.353515625 1499.02148438 54.353515625 1450 c 0
 54.353515625 1400.97851562 95.33203125 1360 144.353515625 1360 c 2
 689.1640625 1360 l 1
 559.87109375 1097.72949219 264.677734375 463.7421875 264.677734375 0 c 0
 264.677734375 -49.021484375 305.65625 -90 354.677734375 -90 c 0
EndSplineSet
Validated: 37
EndChar

StartChar: eight
Encoding: 56 56 26
Width: 1024
GlyphClass: 2
Flags: MW
HStem: -60 215<449.696 580.201 449.696 619.681> -25 145<444.15 585.157 444.15 631.725> 1378 212<463.864 465.348 465.348 563.959 398.837 564.849> 1410 148<465.348 563.959 563.959 575.168>
VStem: 86.3066 213.238<311.535 372.574 311.535 468.724> 118.307 209.192<1150.14 1234.5 1078.41 1300.99> 119.544 146.763 147.499 150.809 701.808 209.192<1078.59 1151.91 1068.03 1234.35> 729.762 213.238<311.386 372.573> 731 150.808 763 146.763
LayerCount: 2
Fore
SplineSet
311.936523438 779.666015625 m 1xa480
 180.83203125 692.92578125 86.306640625 558.291992188 86.306640625 379.15625 c 0
 86.306640625 65.2021484375 304.59765625 -60 514.653320312 -60 c 0
 724.708984375 -60 943 65.2021484375 943 379.15625 c 0xa840
 943 558.05078125 848 692.727539062 717.045898438 779.513671875 c 1
 838.606445312 860.733398438 911 984.15625 911 1151.91015625 c 0
 905.112304688 1450.61621094 698.538085938 1590 563.958984375 1590 c 2
 465.34765625 1590 l 2
 332.326171875 1590 118.306640625 1451.8359375 118.306640625 1150.13671875 c 0
 121.579101562 984.112304688 191.350585938 861.145507812 311.936523438 779.666015625 c 1xa480
514.31640625 876.5 m 1
 504.475585938 880.525390625 494.788085938 884.690429688 485.920898438 888.7265625 c 0
 352.42578125 949.484375 301.309570312 1012.35742188 298.307617188 1151.91113281 c 0
 298.848632812 1358.21875 441.810546875 1410 465.34765625 1410 c 2
 563.958984375 1410 l 2
 586.376953125 1410 726.369140625 1358.20800781 731 1150.11230469 c 0x1120
 730.469726562 1012.26953125 677.721679688 949.912109375 542.659179688 888.672851562 c 0
 533.76171875 884.638671875 524.12109375 880.50390625 514.31640625 876.5 c 1
514.310546875 683.376953125 m 1
 523.655273438 679.49609375 532.805664062 675.483398438 541.69140625 671.364257812 c 0
 685.858398438 604.533203125 763 515.01171875 763 379.15625 c 0
 763 171.866210938 655.66015625 120 514.653320312 120 c 0
 373.646484375 120 266.306640625 171.866210938 266.306640625 379.15625 c 0x4210
 266.306640625 515.439453125 343.360351562 604.967773438 487.754882812 671.73828125 c 0
 496.380859375 675.727539062 505.251953125 679.61328125 514.310546875 683.376953125 c 1
704.044921875 776.151367188 m 1
 823.384765625 861.08203125 881.807617188 989.836914062 881.807617188 1153.11621094 c 0
 881.807617188 1400.3515625 717.028320312 1558 514.306640625 1558 c 0
 311.384765625 1558 147.499023438 1400.06640625 147.499023438 1153.11621094 c 0x5120
 147.499023438 989.809570312 205.373046875 861.083007812 324.65234375 776.123046875 c 1
 196.782226562 675.614257812 118.522460938 527.2890625 119.543945312 371.794921875 c 0
 120.104492188 160.047851562 280.8984375 -25 515 -25 c 0
 748.44921875 -25 909.201171875 158.731445312 909.762695312 371.793945312 c 0
 910.772460938 525.931640625 832.352539062 675.483398438 704.044921875 776.151367188 c 1
514.305664062 876.736328125 m 1
 507.676757812 879.537109375 501.254882812 882.375976562 495.083984375 885.237304688 c 0
 371.854492188 942.358398438 327.499023438 1003.69921875 327.499023438 1153.11621094 c 0
 327.499023438 1315.87695312 413.421875 1378 514.306640625 1378 c 0
 615.391601562 1378 701.807617188 1315.59179688 701.807617188 1153.11621094 c 0x2480
 701.807617188 1004.06152344 656.905273438 942.206054688 532.775390625 884.889648438 c 0
 526.837890625 882.147460938 520.665039062 879.422851562 514.305664062 876.736328125 c 1
514.311523438 682.586914062 m 1
 519.124023438 680.344726562 523.958984375 677.983398438 528.548828125 675.631835938 c 0
 657.493164062 609.534179688 730.778320312 485.862304688 729.76171875 372.573242188 c 0
 729.76171875 250.198242188 645.40234375 155 515 155 c 0
 384.392578125 155 299.544921875 250.49609375 299.544921875 372.57421875 c 0x8840
 298.525390625 486.092773438 371.423828125 609.631835938 500.108398438 675.643554688 c 0
 504.690429688 677.994140625 509.509765625 680.348632812 514.311523438 682.586914062 c 1
EndSplineSet
Validated: 41
EndChar

StartChar: nine
Encoding: 57 57 27
Width: 1024
GlyphClass: 2
Flags: MW
HStem: 507.57 201.245<451.647 510.206> 528.815 158.755<426.229 529.409> 1399.99 215<448.604 471.928 339.537 577.096> 1434.99 145<416.926 471.255>
VStem: 89.9092 214.402<920.233 1206.88 917.697 1216.15> 124.312 145.598<932.517 1204.28 932.517 1228.12> 723.801 212.646<1013.46 1206.41> 756.447 147.354<998.843 1202.26>
LayerCount: 2
Fore
SplineSet
692.6640625 795.168945312 m 0xaa
 688.75390625 789.470703125 682.327148438 781.016601562 673.5078125 771.92578125 c 0
 646.533203125 744.12109375 599.051757812 708.815429688 512.061523438 708.815429688 c 0
 391.233398438 708.815429688 304.311523438 783.100585938 304.311523438 1052.29296875 c 0
 304.311523438 1361.46582031 385.145507812 1399.98632812 512.061523438 1399.98632812 c 0
 642.130859375 1399.98632812 723.80078125 1360.53613281 723.80078125 1052.29296875 c 0
 723.80078125 966.415039062 712.145507812 879.510742188 692.6640625 795.168945312 c 0xaa
863.997070312 737.616210938 m 0
 864.294921875 738.755859375 864.727539062 740.54296875 865.005859375 741.783203125 c 0
 888.887695312 841.0234375 903.80078125 945.393554688 903.80078125 1052.29296875 c 0
 903.80078125 1404.90136719 759.966796875 1579.98632812 512.061523438 1579.98632812 c 0
 265.510742188 1579.98632812 124.311523438 1403.93847656 124.311523438 1052.29296875 c 0
 124.311523438 746.215820312 254.655273438 528.815429688 512.061523438 528.815429688 c 0x55
 546.756835938 528.815429688 579.301757812 532.591796875 609.075195312 539.208007812 c 1
 489.44921875 252.126953125 317.19140625 114.810546875 317.19140625 4.986328125 c 0
 317.19140625 -44.03515625 358.169921875 -85.013671875 407.19140625 -85.013671875 c 0
 439.473632812 -85.013671875 468.583007812 -67.5859375 485.241210938 -39.861328125 c 0
 514.755859375 2.29296875 713.94921875 266.821289062 826.368164062 606.779296875 c 0
 840.383789062 649.161132812 853.1015625 692.874023438 863.997070312 737.616210938 c 0
647.956054688 537.118164062 m 1
 534.551757812 245.057617188 372.458007812 113.729492188 372.458007812 4.986328125 c 0
 372.458007812 -44.03515625 413.436523438 -85.013671875 462.458007812 -85.013671875 c 0
 495.780273438 -85.013671875 526.022460938 -65.98046875 541.783203125 -37.5458984375 c 0
 575.694335938 13.2392578125 810.338867188 336.8046875 900.938476562 751.890625 c 0
 922.86328125 852.340820312 936.447265625 958.623046875 936.447265625 1068.29296875 c 0
 936.447265625 1362.17773438 818.338867188 1609.35546875 556.055664062 1614.87695312 c 0
 549.8125 1615.00683594 473.6484375 1614.98632812 470.208007812 1614.98632812 c 0
 208.865234375 1614.98632812 89.9091796875 1363.99804688 89.9091796875 1068.29296875 c 0
 89.9091796875 772.172851562 213.517578125 507.5703125 482.353515625 507.5703125 c 0xaa
 538.05859375 507.5703125 594.375 516.533203125 647.956054688 537.118164062 c 1
756.447265625 1068.29296875 m 0x55
 756.447265625 760.391601562 620.672851562 687.5703125 482.353515625 687.5703125 c 0
 370.10546875 687.5703125 269.909179688 796.741210938 269.909179688 1068.29296875 c 0
 269.909179688 1340.26171875 363.64453125 1434.98632812 470.208007812 1434.98632812 c 0
 472.301757812 1434.98632812 542.524414062 1434.94824219 552.807617188 1434.90429688 c 0
 664.868164062 1432.25585938 756.447265625 1336.22363281 756.447265625 1068.29296875 c 0x55
EndSplineSet
Validated: 37
EndChar

StartChar: colon
Encoding: 58 58 28
Width: 416
GlyphClass: 2
Flags: MW
HStem: -47 443.103<176.22 225.241 213.989 225.241 225.241 263.011> 630 443.103<176.22 225.241 213.989 225.241 225.241 263.011>
VStem: 110.73 217.77<18.4893 306.103 43 306.103 720 983.103> 148.5 142.23<18.4893 306.103 43 306.103 720 983.103>
LayerCount: 2
Fore
SplineSet
238.5 396.102539062 m 0xe0
 189.478515625 396.102539062 148.5 355.124023438 148.5 306.102539062 c 2
 148.5 43 l 2xd0
 148.5 -6.021484375 189.478515625 -47 238.5 -47 c 0
 287.521484375 -47 328.5 -6.021484375 328.5 43 c 2
 328.5 306.102539062 l 2
 328.5 355.124023438 287.521484375 396.102539062 238.5 396.102539062 c 0xe0
200.73046875 396.102539062 m 0
 151.708984375 396.102539062 110.73046875 355.124023438 110.73046875 306.102539062 c 2
 110.73046875 43 l 2xe0
 110.73046875 -6.021484375 151.708984375 -47 200.73046875 -47 c 0
 249.751953125 -47 290.73046875 -6.021484375 290.73046875 43 c 2
 290.73046875 306.102539062 l 2
 290.73046875 355.124023438 249.751953125 396.102539062 200.73046875 396.102539062 c 0
238.5 1073.10253906 m 0
 189.478515625 1073.10253906 148.5 1032.12402344 148.5 983.102539062 c 2
 148.5 720 l 2xd0
 148.5 670.978515625 189.478515625 630 238.5 630 c 0
 287.521484375 630 328.5 670.978515625 328.5 720 c 2
 328.5 983.102539062 l 2
 328.5 1032.12402344 287.521484375 1073.10253906 238.5 1073.10253906 c 0
200.73046875 1073.10253906 m 0
 151.708984375 1073.10253906 110.73046875 1032.12402344 110.73046875 983.102539062 c 2
 110.73046875 720 l 2xe0
 110.73046875 670.978515625 151.708984375 630 200.73046875 630 c 0
 249.751953125 630 290.73046875 670.978515625 290.73046875 720 c 2
 290.73046875 983.102539062 l 2
 290.73046875 1032.12402344 249.751953125 1073.10253906 200.73046875 1073.10253906 c 0
EndSplineSet
Validated: 5
EndChar

StartChar: semicolon
Encoding: 59 59 29
Width: 416
GlyphClass: 2
Flags: MW
HStem: -47 182.935<213.989 225.241 213.989 263.011> 630 443.103<176.22 225.241 213.989 225.241 225.241 263.011>
VStem: 110.73 217.77<18.4893 43 43 45.9346 45.9346 306.103 720 983.103> 148.5 142.23<18.4893 306.103 43 70.4453 43 70.4453 43 306.103 720 983.103> 148.5 180<18.4893 43 29.8838 45.9346 45.9346 70.4453 29.9297 45.9346 45.9346 70.4453 43 45.9346 45.9346 306.103 720 983.103>
LayerCount: 2
Fore
SplineSet
238.5 396.102539062 m 0xe0
 189.478515625 396.102539062 148.5 355.124023438 148.5 306.102539062 c 2
 148.5 43 l 2xc8
 148.5 -6.021484375 189.478515625 -47 238.5 -47 c 0
 287.521484375 -47 328.5 -6.021484375 328.5 43 c 2
 328.5 306.102539062 l 2
 328.5 355.124023438 287.521484375 396.102539062 238.5 396.102539062 c 0xe0
200.73046875 396.102539062 m 0
 151.708984375 396.102539062 110.73046875 355.124023438 110.73046875 306.102539062 c 2
 110.73046875 43 l 2xe0
 110.73046875 -6.021484375 151.708984375 -47 200.73046875 -47 c 0
 249.751953125 -47 290.73046875 -6.021484375 290.73046875 43 c 2
 290.73046875 306.102539062 l 2xd0
 290.73046875 355.124023438 249.751953125 396.102539062 200.73046875 396.102539062 c 0
238.5 1073.10253906 m 0
 189.478515625 1073.10253906 148.5 1032.12402344 148.5 983.102539062 c 2
 148.5 720 l 2xc8
 148.5 670.978515625 189.478515625 630 238.5 630 c 0
 287.521484375 630 328.5 670.978515625 328.5 720 c 2
 328.5 983.102539062 l 2
 328.5 1032.12402344 287.521484375 1073.10253906 238.5 1073.10253906 c 0
200.73046875 1073.10253906 m 0
 151.708984375 1073.10253906 110.73046875 1032.12402344 110.73046875 983.102539062 c 2
 110.73046875 720 l 2xe0
 110.73046875 670.978515625 151.708984375 630 200.73046875 630 c 0
 249.751953125 630 290.73046875 670.978515625 290.73046875 720 c 2
 290.73046875 983.102539062 l 2xd0
 290.73046875 1032.12402344 249.751953125 1073.10253906 200.73046875 1073.10253906 c 0
238.5 135.934570312 m 0
 189.478515625 135.934570312 148.5 94.9560546875 148.5 45.9345703125 c 0xd0
 148.5 13.9248046875 79.7734375 -60.1005859375 61.9462890625 -87.375 c 0
 35.126953125 -128.409179688 47.0087890625 -185.129882812 88.04296875 -211.950195312 c 0
 129.077148438 -238.76953125 185.797851562 -226.887695312 212.618164062 -185.853515625 c 2
 313.8359375 -30.9921875 l 2
 321.475585938 -19.3037109375 328.5 0.70703125 328.5 18.2470703125 c 2xe0
 328.5 45.9345703125 l 2xc8
 328.5 94.9560546875 287.521484375 135.934570312 238.5 135.934570312 c 0
238.5 135.934570312 m 0
 189.478515625 135.934570312 148.5 94.9560546875 148.5 45.9345703125 c 0xd0
 148.5 13.8330078125 79.4619140625 -60.4375 61.59375 -87.7451171875 c 0
 34.75390625 -128.766601562 46.607421875 -185.493164062 87.6279296875 -212.333984375 c 0
 128.649414062 -239.173828125 185.375976562 -227.3203125 212.216796875 -186.299804688 c 2
 313.811523438 -31.0302734375 l 2
 321.46875 -19.3271484375 328.5 0.69140625 328.5 18.2470703125 c 2xe0
 328.5 45.9345703125 l 2xc8
 328.5 94.9560546875 287.521484375 135.934570312 238.5 135.934570312 c 0
EndSplineSet
Validated: 37
EndChar

StartChar: less
Encoding: 60 60 30
Width: 1024
GlyphClass: 2
Flags: W
LayerCount: 2
Fore
SplineSet
925.486328125 1502.61328125 m 0
 891.05078125 1537.50390625 833.099609375 1537.88476562 798.209960938 1503.45019531 c 2
 128.591796875 842.572265625 l 2
 89.9853515625 804.469726562 99.970703125 742.999023438 128.259765625 714.788085938 c 2
 796.434570312 48.462890625 l 2
 831.146484375 13.84765625 889.098632812 13.927734375 923.713867188 48.638671875 c 0
 958.329101562 83.3505859375 958.249023438 141.302734375 923.538085938 175.91796875 c 2
 319.599609375 778.184570312 l 1
 924.649414062 1375.33691406 l 2
 959.540039062 1409.77246094 959.920898438 1467.72363281 925.486328125 1502.61328125 c 0
906.015625 1518.65917969 m 0
 870.330078125 1552.26953125 812.403320312 1550.53417969 778.793945312 1514.84765625 c 2
 143.4140625 840.220703125 l 2
 109.428710938 804.135742188 114.888671875 747.409179688 143.096679688 717.1484375 c 2
 777.033203125 37.0751953125 l 2
 810.459960938 1.216796875 868.375976562 -0.8173828125 904.234375 32.6083984375 c 0
 940.092773438 66.03515625 942.126953125 123.951171875 908.701171875 159.809570312 c 2
 332.263671875 778.198242188 l 1
 909.827148438 1391.4375 l 2
 943.4375 1427.12304688 941.702148438 1485.04980469 906.015625 1518.65917969 c 0
EndSplineSet
Validated: 37
EndChar

StartChar: equal
Encoding: 61 61 31
Width: 1024
GlyphClass: 2
Flags: W
LayerCount: 2
Fore
SplineSet
77.48828125 446.1875 m 0
 77.48828125 397.166015625 118.466796875 356.1875 167.48828125 356.1875 c 2
 879.48828125 356.1875 l 2
 928.509765625 356.1875 969.48828125 397.166015625 969.48828125 446.1875 c 0
 969.48828125 495.208984375 928.509765625 536.1875 879.48828125 536.1875 c 2
 167.48828125 536.1875 l 2
 118.466796875 536.1875 77.48828125 495.208984375 77.48828125 446.1875 c 0
77.48828125 446.1875 m 0
 77.48828125 397.166015625 118.466796875 356.1875 167.48828125 356.1875 c 2
 879.48828125 356.1875 l 2
 928.509765625 356.1875 969.48828125 397.166015625 969.48828125 446.1875 c 0
 969.48828125 495.208984375 928.509765625 536.1875 879.48828125 536.1875 c 2
 167.48828125 536.1875 l 2
 118.466796875 536.1875 77.48828125 495.208984375 77.48828125 446.1875 c 0
77.48828125 786.1875 m 0
 77.48828125 737.166015625 118.466796875 696.1875 167.48828125 696.1875 c 2
 879.48828125 696.1875 l 2
 928.509765625 696.1875 969.48828125 737.166015625 969.48828125 786.1875 c 0
 969.48828125 835.208984375 928.509765625 876.1875 879.48828125 876.1875 c 2
 167.48828125 876.1875 l 2
 118.466796875 876.1875 77.48828125 835.208984375 77.48828125 786.1875 c 0
77.48828125 786.1875 m 0
 77.48828125 737.166015625 118.466796875 696.1875 167.48828125 696.1875 c 2
 879.48828125 696.1875 l 2
 928.509765625 696.1875 969.48828125 737.166015625 969.48828125 786.1875 c 0
 969.48828125 835.208984375 928.509765625 876.1875 879.48828125 876.1875 c 2
 167.48828125 876.1875 l 2
 118.466796875 876.1875 77.48828125 835.208984375 77.48828125 786.1875 c 0
EndSplineSet
Validated: 5
EndChar

StartChar: greater
Encoding: 62 62 32
Width: 1024
GlyphClass: 2
Flags: W
LayerCount: 2
Fore
SplineSet
110.373046875 1502.61328125 m 0
 75.9384765625 1467.72363281 76.3193359375 1409.77246094 111.209960938 1375.33691406 c 2
 716.259765625 778.184570312 l 1
 112.321289062 175.91796875 l 2
 77.6103515625 141.302734375 77.5302734375 83.3505859375 112.145507812 48.638671875 c 0
 146.760742188 13.927734375 204.712890625 13.84765625 239.424804688 48.462890625 c 2
 907.599609375 714.788085938 l 2
 935.888671875 742.999023438 945.874023438 804.469726562 907.267578125 842.572265625 c 2
 237.649414062 1503.45019531 l 2
 202.759765625 1537.88476562 144.80859375 1537.50390625 110.373046875 1502.61328125 c 0
129.84375 1518.65917969 m 0
 94.1572265625 1485.04980469 92.421875 1427.12304688 126.032226562 1391.4375 c 2
 703.595703125 778.198242188 l 1
 127.158203125 159.809570312 l 2
 93.732421875 123.951171875 95.7666015625 66.03515625 131.625 32.6083984375 c 0
 167.483398438 -0.8173828125 225.399414062 1.216796875 258.826171875 37.0751953125 c 2
 892.762695312 717.1484375 l 2
 920.970703125 747.409179688 926.430664062 804.135742188 892.4453125 840.220703125 c 2
 257.065429688 1514.84765625 l 2
 223.456054688 1550.53417969 165.529296875 1552.26953125 129.84375 1518.65917969 c 0
EndSplineSet
Validated: 37
EndChar

StartChar: question
Encoding: 63 63 33
Width: 928
GlyphClass: 2
Flags: MW
HStem: -90 444.495<403.191 452.213 440.961 452.213 452.213 489.982> 1388 202<383.865 397.455 397.455 508.815 298.63 512.061> 1410 158<397.455 508.815 508.815 541.83 342.839 548.617>
VStem: 337.702 217.77<-24.5107 264.495 0 264.495> 375.472 142.23<-24.5107 264.495 0 264.495> 644.011 216.733<1072.36 1191.54 977.72 1276.62> 680.743 143.268
LayerCount: 2
Fore
SplineSet
52.18359375 1265.01074219 m 0xc4
 86.8486328125 1230.34960938 144.80078125 1230.35253906 179.462890625 1265.01855469 c 0
 204.102539062 1289.66113281 305.37109375 1410 397.455078125 1410 c 2
 508.815429688 1410 l 2
 588.41796875 1410 677.053710938 1360.88476562 680.743164062 1189.79296875 c 1xa2
 680.168945312 923.901367188 374.38671875 931.045898438 374.38671875 490.25390625 c 0
 374.38671875 441.232421875 415.365234375 400.25390625 464.38671875 400.25390625 c 0
 513.408203125 400.25390625 554.38671875 441.232421875 554.38671875 490.25390625 c 0
 554.38671875 784.116210938 860.744140625 763.905273438 860.744140625 1191.53515625 c 1
 855.788085938 1448.09277344 689.328125 1590 508.815429688 1590 c 2
 397.455078125 1590 l 2
 199.8046875 1590 65.751953125 1408.43164062 50.0048828125 1390.06347656 c 0
 17.9580078125 1354.46777344 17.9287109375 1299.26171875 52.18359375 1265.01074219 c 0xc4
82.74609375 1235.08398438 m 0
 116.400390625 1199.43945312 174.328125 1197.77539062 209.973632812 1231.42871094 c 0
 247.219726562 1266.59472656 305.629882812 1388 462.099609375 1388 c 0
 562.022460938 1388 644.010742188 1373.12402344 644.010742188 1180.10839844 c 0xc4
 644.010742188 964.619140625 337.109375 901.263671875 337.109375 489.784179688 c 0
 337.109375 440.762695312 378.087890625 399.784179688 427.109375 399.784179688 c 0
 476.130859375 399.784179688 517.109375 440.762695312 517.109375 489.784179688 c 0
 517.109375 762.6171875 824.010742188 802.56640625 824.010742188 1180.10839844 c 0
 824.010742188 1480.59472656 621.559570312 1568 462.099609375 1568 c 0
 223.578125 1568 98.6357421875 1381.91210938 78.3701171875 1353.66992188 c 0
 51.24609375 1319.74707031 51.5673828125 1268.10742188 82.74609375 1235.08398438 c 0
465.471679688 -90 m 0
 514.493164062 -90 555.471679688 -49.021484375 555.471679688 0 c 2
 555.471679688 264.495117188 l 2x90
 555.471679688 313.516601562 514.493164062 354.495117188 465.471679688 354.495117188 c 0
 416.450195312 354.495117188 375.471679688 313.516601562 375.471679688 264.495117188 c 2
 375.471679688 0 l 2x88
 375.471679688 -49.021484375 416.450195312 -90 465.471679688 -90 c 0
427.702148438 -90 m 0
 476.723632812 -90 517.702148438 -49.021484375 517.702148438 0 c 2
 517.702148438 264.495117188 l 2x88
 517.702148438 313.516601562 476.723632812 354.495117188 427.702148438 354.495117188 c 0
 378.680664062 354.495117188 337.702148438 313.516601562 337.702148438 264.495117188 c 2
 337.702148438 0 l 2
 337.702148438 -49.021484375 378.680664062 -90 427.702148438 -90 c 0
EndSplineSet
Validated: 37
EndChar

StartChar: at
Encoding: 64 64 34
Width: 1368
GlyphClass: 2
Flags: HMW
HStem: -281.358 205.812<652.719 746.614 652.719 769.754> -255.546 154.188<649.256 764.796 513.479 772.766> -69.8672 218.87 -47.667 0.150391 -47.584 16.9268 -47.5166 179.69<924.616 978.43> -30.9971 141.141<620.469 649.832 620.469 699.59> 649.719 212.426<589.119 635.042 470.366 651.375> 682.145 147.574<576.516 635.042 635.042 650.905> 878.452 202.639<518.854 692.564> 901.091 157.361<520.469 691.146>
VStem: 67.1465 212.792<237.908 498.513 197.516 576.458> 99.9385 147.208<260.872 509.136> 301.889 220.29<298.183 507.809> 342.179 139.71<305.656 513.307 285.502 527.552> 1022.43 218.418<480.734 544.955> 1060.85 141.582<481.109 562.71>
LayerCount: 2
Fore
SplineSet
743.639648438 874.37109375 m 1x9050
 727.333984375 857.486328125 717.713867188 834.329101562 717.713867188 811.162109375 c 2
 717.713867188 660.602539062 l 1
 717.713867188 42.3330078125 l 2
 717.713867188 -12.1181640625 769.018554688 -47.701171875 807.79296875 -47.6669921875 c 2
 978.4296875 -47.5166015625 l 1
 931.840820312 -58.7060546875 840.509765625 -75.5458984375 652.71875 -75.5458984375 c 1
 468.491210938 -68.4560546875 279.938476562 28.9755859375 279.938476562 366.055664062 c 0
 279.938476562 630.970703125 356.12890625 878.452148438 681.578125 878.452148438 c 0
 703.55078125 878.452148438 724.392578125 877.002929688 743.639648438 874.37109375 c 1x9050
1032.82128906 -34.01171875 m 1
 1035.46289062 -32.3720703125 1040.32324219 -28.822265625 1040.32324219 -28.822265625 c 2
 1062.20214844 -11.6806640625 1202.43457031 116.8046875 1202.43457031 465.100585938 c 0
 1202.43457031 701.729492188 1115.42285156 923.973632812 902.122070312 1016 c 0
 836.848632812 1044.16113281 762.727539062 1058.45214844 681.578125 1058.45214844 c 0
 206.55859375 1058.45214844 99.9384765625 652.216796875 99.9384765625 366.055664062 c 0
 99.9384765625 -68.8720703125 382.053710938 -245.262695312 649.255859375 -255.545898438 c 1
 896.276367188 -255.545898438 1000.02246094 -228.193359375 1051.49902344 -214.596679688 c 0
 1059.87988281 -212.3828125 1065.61230469 -211.005859375 1067.5859375 -210.623046875 c 0
 1116.46972656 -208.916015625 1155.03417969 -168.494140625 1155.03417969 -120.657226562 c 0
 1155.03417969 -71.6357421875 1114.05566406 -30.6572265625 1065.03417969 -30.6572265625 c 0x482880
 1052.65332031 -30.6572265625 1041.81152344 -32.2666015625 1032.82128906 -34.01171875 c 1
924.616210938 811.162109375 m 1
 924.616210938 825.456054688 l 1
 1010.54492188 758.67578125 1060.85253906 644.310546875 1060.85253906 481.109375 c 0
 1060.06445312 292.03125 1006.37792969 181.377929688 975.580078125 132.173828125 c 1
 924.616210938 132.173828125 l 1x040080
 924.616210938 811.162109375 l 1
862.719726562 227.366210938 m 0
 823.278320312 257.518554688 766.865234375 248.788085938 736.702148438 210.728515625 c 0
 731.865234375 204.758789062 678.984375 149.002929688 615.603515625 149.002929688 c 0
 571.581054688 149.002929688 522.178710938 191.930664062 522.178710938 404.434570312 c 0
 522.178710938 648.35546875 561.63671875 649.71875 616.6015625 649.71875 c 0x2104
 686.149414062 649.71875 725.340820312 594.474609375 729.98828125 587.067382812 c 0
 755.294921875 544.37890625 810.1953125 530.228515625 852.27734375 554.192382812 c 0
 894.360351562 578.157226562 910.25390625 632.497070312 886.336914062 676.254882812 c 0
 882.192382812 683.533203125 801.169921875 829.71875 616.6015625 829.71875 c 0
 408.603515625 829.71875 342.178710938 650.669921875 342.178710938 404.434570312 c 0
 342.178710938 206.877929688 389.000976562 -30.9970703125 615.603515625 -30.9970703125 c 0
 783.577148438 -30.9970703125 874.860351562 95.05859375 880.036132812 101.830078125 c 0
 908.26953125 140.12890625 902.159179688 197.215820312 862.719726562 227.366210938 c 0
EndSplineSet
Validated: 37
EndChar

StartChar: A
Encoding: 65 65 35
Width: 1296
GlyphClass: 2
Flags: MW
HStem: 503.424 180<311.966 984.848 357.204 938.712 938.712 963.223>
LayerCount: 2
Fore
SplineSet
130.84765625 -90 m 0
 174.482421875 -90 211.33984375 -57.5810546875 219.215820312 -17.060546875 c 0
 240.359375 62.5380859375 546.421875 1041.69628906 648.247070312 1366.82128906 c 1
 750.921875 1038.98535156 1056.49707031 61.173828125 1077.27832031 -17.060546875 c 0
 1085.43945312 -59.0478515625 1122.87011719 -90 1165.64648438 -90 c 0
 1214.66796875 -90 1255.64648438 -49.021484375 1255.64648438 0 c 0
 1255.64648438 74.1630859375 790.224609375 1515.71875 786.709960938 1526.92675781 c 0
 775.908203125 1561.37890625 740.872070312 1590 700.833007812 1590 c 2
 647.74609375 1590 l 1
 595.661132812 1590 l 2
 559.555664062 1590 521.762695312 1565.13183594 509.784179688 1526.92675781 c 0
 506.268554688 1515.71582031 40.84765625 74.1669921875 40.84765625 0 c 0
 40.84765625 -49.021484375 81.826171875 -90 130.84765625 -90 c 0
188.84765625 -90 m 0
 233.678710938 -90 271.095703125 -56.0283203125 277.930664062 -12.8740234375 c 0
 296.111328125 65.2197265625 532.111328125 862.99609375 648.399414062 1254.18847656 c 1
 764.813476562 864.264648438 1000.85058594 68.0380859375 1018.32128906 -11.0947265625 c 0
 1024.85644531 -57.595703125 1063.29785156 -90 1107.64648438 -90 c 0
 1156.66796875 -90 1197.64648438 -49.021484375 1197.64648438 0 c 0
 1197.64648438 88.9833984375 758.173828125 1515.3984375 755.043945312 1525.84082031 c 0
 744.27734375 1561.7578125 708.891601562 1590 668.833007812 1590 c 2
 647.745117188 1590 l 1
 627.661132812 1590 l 2
 590.006835938 1590 552.861328125 1564.10742188 541.4140625 1525.71875 c 0
 538.220703125 1515.00878906 98.84765625 81.8203125 98.84765625 0 c 0
 98.84765625 -49.021484375 139.826171875 -90 188.84765625 -90 c 0
267.204101562 593.423828125 m 0
 267.204101562 544.40234375 308.182617188 503.423828125 357.204101562 503.423828125 c 2
 938.711914062 503.423828125 l 2
 987.733398438 503.423828125 1028.71191406 544.40234375 1028.71191406 593.423828125 c 0
 1028.71191406 642.4453125 987.733398438 683.423828125 938.711914062 683.423828125 c 2
 357.204101562 683.423828125 l 2
 308.182617188 683.423828125 267.204101562 642.4453125 267.204101562 593.423828125 c 0
221.965820312 593.423828125 m 0
 221.965820312 544.40234375 262.944335938 503.423828125 311.965820312 503.423828125 c 2
 984.84765625 503.423828125 l 2
 1033.86914062 503.423828125 1074.84765625 544.40234375 1074.84765625 593.423828125 c 0
 1074.84765625 642.4453125 1033.86914062 683.423828125 984.84765625 683.423828125 c 2
 311.965820312 683.423828125 l 2
 262.944335938 683.423828125 221.965820312 642.4453125 221.965820312 593.423828125 c 0
EndSplineSet
Validated: 5
EndChar

StartChar: B
Encoding: 66 66 36
Width: 1304
GlyphClass: 2
Flags: MW
HStem: -40 220.095<727.148 728.846 727.148 768.608 727.148 943.182> -0.0947266 140.095<252.158 768.608> 730 180<302.133 622.657 342.122 622.657 622.657 634.582 622.657 634.657 634.582 634.657> 1375 217.759<342.122 719.221 719.221 721.297> 1412.76 142.241<302.133 719.221>
VStem: 122.133 39.9893<22.7612 89.9053 62.6724 89.9053 89.9053 807.854 832.146 1465 832.146 832.146> 952.203 232.514<1179.86 1223.02> 1004.72 127.485 1013.82 234.399<459.197 528.76 310.833 542.586> 1068.22 125.601
LayerCount: 2
Fore
SplineSet
120.641601562 820 m 0x24
 120.418945312 818.1875 120.5859375 819.090820312 120.809570312 820 c 0
 120.5859375 820.909179688 120.418945312 821.8125 120.641601562 820 c 0x24
120.809570312 820 m 0
 121.034179688 820.916015625 121.317382812 821.83984375 121.317382812 820 c 0
 121.317382812 818.16015625 121.034179688 819.083984375 120.809570312 820 c 0
122.1328125 832.145507812 m 2
 121.637695312 828.116210938 121.317382812 823.665039062 121.317382812 820 c 0
 121.317382812 816.334960938 121.637695312 811.883789062 122.1328125 807.854492188 c 2
 122.1328125 50 l 2
 122.1328125 -4.4775390625 173.504882812 -40 212.1328125 -40 c 2
 768.608398438 -40 l 2
 1117.75585938 -40 1248.21679688 189.322265625 1248.21679688 432.342773438 c 0xb480
 1248.21679688 625.176757812 1162.74609375 763.157226562 1022.9765625 835.28125 c 1
 1121.26367188 905.993164062 1184.71679688 1018.49121094 1184.71679688 1167.03125 c 0
 1184.71679688 1406.63183594 1021.77832031 1592.75878906 721.296875 1592.75878906 c 2
 212.1328125 1592.75878906 l 2xb6
 157.655273438 1592.75878906 122.1328125 1541.38671875 122.1328125 1502.75878906 c 2
 122.1328125 832.145507812 l 2
302.1328125 910 m 1
 302.1328125 1412.75878906 l 1
 721.296875 1412.75878906 l 2
 936.666992188 1412.75878906 1004.71679688 1314.37402344 1004.71679688 1167.03125 c 0x2d
 1004.71679688 1021.01757812 923.931640625 958.596679688 789.103515625 927.245117188 c 0
 737.745117188 915.303710938 680.102539062 910 622.657226562 910 c 2
 302.1328125 910 l 1
302.1328125 730 m 1
 622.657226562 730 l 2
 690.107421875 730 751.96875 725.893554688 805.805664062 716.779296875 c 0
 982.756835938 686.823242188 1068.21679688 620.661132812 1068.21679688 432.342773438 c 0
 1068.21679688 254.828125 1013.33789062 140 768.608398438 140 c 2
 302.1328125 140 l 1x6440
 302.1328125 730 l 1
342.424804688 910 m 1
 342.122070312 910 l 1
 342.122070312 1375 l 1
 719.220703125 1375 l 2
 895.52734375 1375 952.203125 1266.16992188 952.203125 1179.86425781 c 0x36
 954.8984375 1036.7265625 872.771484375 962.951171875 758.243164062 928.108398438 c 0
 720.926757812 916.755859375 680.928710938 910.787109375 642.599609375 910.07421875 c 0
 639.943359375 910.024414062 637.294921875 910 634.657226562 910 c 2
 342.424804688 910 l 1
342.122070312 730 m 1
 634.58203125 730 l 2
 686.650390625 730 735.834960938 726.126953125 779.708007812 717.936523438 c 0
 931.161132812 689.6640625 1013.81738281 625.975585938 1013.81738281 459.197265625 c 0
 1016.65625 274.461914062 959.908203125 183.424804688 737.215820312 180.16796875 c 0
 733.900390625 180.119140625 730.543945312 180.094726562 727.1484375 180.094726562 c 2xa480
 342.122070312 179.94140625 l 1
 342.122070312 730 l 1
976.180664062 840.750976562 m 1
 1071.56542969 916.287109375 1134.63476562 1032.96972656 1132.20214844 1181.59667969 c 0x6d
 1131.73535156 1356.24707031 994.774414062 1555 719.220703125 1555 c 2
 252.122070312 1555 l 2
 197.64453125 1555 162.122070312 1503.62792969 162.122070312 1465 c 2
 162.122070312 820.956054688 l 1
 162.122070312 89.9052734375 l 2
 162.122070312 35.439453125 213.463867188 -0.1103515625 252.158203125 -0.0947265625 c 2
 727.166015625 0.0947265625 l 2
 1052.87207031 0.0947265625 1197.48828125 200.092773438 1193.81738281 460.575195312 c 0x6c40
 1193.45898438 643.823242188 1106.53613281 773.076171875 976.180664062 840.750976562 c 1
EndSplineSet
Validated: 37
EndChar

StartChar: C
Encoding: 67 67 37
Width: 1360
GlyphClass: 2
Flags: MW
HStem: -56.251 225.829<583.485 816.222 583.485 902.842> -10.4219 134.171<567.955 848.135 567.955 865.124> 1373.5 218.295<575.64 660.987 660.987 768.701 441.337 824.156> 1411.79 141.705<660.987 768.701 768.701 867.41>
VStem: 81.8154 221.419<598.405 973.295 598.405 974.421> 123.234 138.581<582.943 968.185 561.847 989.915> 1059 240<428.445 599.511> 1119 120<434.595 599.511>
LayerCount: 2
Fore
SplineSet
1145 926.135742188 m 0xaa
 1194.02148438 926.135742188 1235 967.114257812 1235 1016.13574219 c 0
 1235 1332.28515625 1039.83398438 1553.49511719 703.259765625 1553.49511719 c 0
 305.017578125 1553.49511719 123.234375 1208.390625 123.234375 771.439453125 c 0
 123.234375 394.447265625 304.278320312 -10.421875 706.793945312 -10.421875 c 0
 1023.453125 -10.421875 1239 203.192382812 1239 575 c 0x55
 1239 624.021484375 1198.02148438 665 1149 665 c 0
 1099.97851562 665 1059 624.021484375 1059 575 c 0
 1059 281.889648438 925.650390625 169.578125 706.793945312 169.578125 c 0
 460.176757812 169.578125 303.234375 425.37109375 303.234375 771.439453125 c 0
 303.234375 1175.15039062 448.01953125 1373.49511719 703.259765625 1373.49511719 c 0
 945.052734375 1373.49511719 1055 1249.4453125 1055 1016.13574219 c 0
 1055 967.114257812 1095.97851562 926.135742188 1145 926.135742188 c 0xaa
1205 926.135742188 m 0
 1254.02148438 926.135742188 1295 967.114257812 1295 1016.13574219 c 0
 1295 1331.55566406 1080.03125 1591.79003906 768.701171875 1591.79003906 c 2
 660.987304688 1591.79003906 l 2
 221.6875 1591.79003906 81.8154296875 1177.18652344 81.8154296875 771.655273438 c 0
 81.8154296875 314.034179688 286.951171875 -56.2509765625 707.259765625 -56.2509765625 c 0
 1098.42480469 -56.2509765625 1299 224.431640625 1299 575 c 0xaa
 1299 624.021484375 1258.02148438 665 1209 665 c 0
 1159.97851562 665 1119 624.021484375 1119 575 c 0
 1119 294.189453125 989.010742188 123.749023438 707.259765625 123.749023438 c 0
 428.650390625 123.749023438 261.815429688 352.038085938 261.815429688 771.655273438 c 0
 261.815429688 1164.71386719 382.78125 1411.79003906 660.987304688 1411.79003906 c 2
 768.701171875 1411.79003906 l 2
 966.119140625 1411.79003906 1115 1252.83105469 1115 1016.13574219 c 0
 1115 967.114257812 1155.97851562 926.135742188 1205 926.135742188 c 0
EndSplineSet
Validated: 5
EndChar

StartChar: D
Encoding: 68 68 38
Width: 1328
GlyphClass: 2
Flags: MW
HStem: -40 225<342.122 464.101 464.101 507.197 342.122 641.678> 5 135<302.133 464.101 302.133 507.197 302.133 734.024> 1375 217.759<342.122 468.652> 1412.76 142.241<302.133 468.652 468.652 499.118>
VStem: 1006.67 237.792<783.448 805.423> 1064.47 122.208
LayerCount: 2
Fore
SplineSet
468.65234375 1412.75878906 m 2x54
 749.143554688 1412.75878906 1064.46679688 1338.01367188 1064.46679688 783.596679688 c 0
 1063.58105469 243.478515625 760.590820312 140 464.100585938 140 c 2
 302.1328125 140 l 1
 302.1328125 1412.75878906 l 1
 468.65234375 1412.75878906 l 2x54
468.65234375 1592.75878906 m 2xa8
 212.1328125 1592.75878906 l 2
 157.655273438 1592.75878906 122.1328125 1541.38671875 122.1328125 1502.75878906 c 2
 122.1328125 50 l 2
 122.1328125 -4.4775390625 173.504882812 -40 212.1328125 -40 c 2
 464.100585938 -40 l 2
 819.254882812 -40 1243.39746094 131.81640625 1244.46679688 783.448242188 c 0
 1244.46679688 1457.08789062 796.057617188 1592.75878906 468.65234375 1592.75878906 c 2xa8
499.118164062 1375 m 2
 869.864257812 1375 1006.95605469 1152.19921875 1006.82714844 823.013671875 c 0
 1006.82421875 816.944335938 1006.79296875 812.755859375 1006.67480469 805.422851562 c 0
 1006.67480469 407.21875 838.2109375 185 507.197265625 185 c 2
 342.122070312 185 l 1
 342.122070312 1375 l 1
 499.118164062 1375 l 2
499.118164062 1555 m 2x54
 252.122070312 1555 l 2
 197.64453125 1555 162.122070312 1503.62792969 162.122070312 1465 c 2
 162.122070312 95 l 2
 162.122070312 40.5224609375 213.494140625 5 252.122070312 5 c 2
 507.197265625 5 l 2
 960.8515625 5 1186.33398438 352.909179688 1186.67480469 803.971679688 c 0
 1186.78027344 810.818359375 1186.82421875 816.551757812 1186.82714844 822.943359375 c 0
 1186.98046875 1213.96191406 983.598632812 1555 499.118164062 1555 c 2x54
EndSplineSet
Validated: 41
EndChar

StartChar: E
Encoding: 69 69 39
Width: 1160
GlyphClass: 2
Flags: MW
HStem: -0.0947266 140.095<252.145 1000> 1412.76 142.241<302.133 1000>
LayerCount: 2
Fore
SplineSet
1090 50 m 0
 1090 99.021484375 1049.02148438 140 1000 140 c 2
 302.1328125 140 l 1
 302.1328125 1412.75878906 l 1
 1000 1412.75878906 l 2
 1049.02148438 1412.75878906 1090 1453.73730469 1090 1502.75878906 c 0
 1090 1551.78027344 1049.02148438 1592.75878906 1000 1592.75878906 c 2
 212.1328125 1592.75878906 l 2
 173.504882812 1592.75878906 122.1328125 1557.23632812 122.1328125 1502.75878906 c 2
 122.1328125 50 l 2
 122.1328125 11.3720703125 157.655273438 -40 212.1328125 -40 c 2
 1000 -40 l 2
 1049.02148438 -40 1090 0.978515625 1090 50 c 0
1090 90.1171875 m 0
 1090 139.139648438 1048.99902344 180.107421875 999.977539062 180.094726562 c 2
 342.122070312 179.927734375 l 1
 342.122070312 1375 l 1
 1000 1375 l 2
 1049.02148438 1375 1090 1415.97851562 1090 1465 c 0
 1090 1514.02148438 1049.02148438 1555 1000 1555 c 2
 252.122070312 1555 l 2
 213.494140625 1555 162.122070312 1519.47753906 162.122070312 1465 c 2
 162.122070312 89.9052734375 l 2
 162.122070312 51.2353515625 197.674804688 -0.1083984375 252.14453125 -0.0947265625 c 2
 1000.02246094 0.0947265625 l 2
 1049.04394531 0.107421875 1090 41.095703125 1090 90.1171875 c 0
161.981445312 824.450195312 m 0
 161.981445312 775.428710938 202.959960938 734.450195312 251.981445312 734.450195312 c 2
 919.794921875 734.450195312 l 2
 968.81640625 734.450195312 1009.79492188 775.428710938 1009.79492188 824.450195312 c 0
 1009.79492188 873.471679688 968.81640625 914.450195312 919.794921875 914.450195312 c 2
 251.981445312 914.450195312 l 2
 202.959960938 914.450195312 161.981445312 873.471679688 161.981445312 824.450195312 c 0
125.245117188 847.735351562 m 0
 112.5625 800.381835938 141.54296875 750.197265625 188.895507812 737.514648438 c 0
 240.837890625 723.602539062 908.211914062 734.4375 919.889648438 734.450195312 c 0
 968.911132812 734.501953125 1009.84667969 775.5234375 1009.79492188 824.544921875 c 0
 1009.74316406 873.56640625 968.721679688 914.501953125 919.700195312 914.450195312 c 2
 919.700195312 914.450195312 261.168945312 913.774414062 215.991210938 914.372070312 c 0
 175.116210938 915.794921875 136.236328125 888.770507812 125.245117188 847.735351562 c 0
EndSplineSet
Validated: 37
EndChar

StartChar: F
Encoding: 70 70 40
Width: 1128
GlyphClass: 2
Flags: MW
HStem: 734.453 180<212.181 889.186> 1412.76 142.241<302.133 1000>
VStem: 162.122 140.011<-24.5107 1412.76 0 1412.76 0 1465>
LayerCount: 2
Fore
SplineSet
212.1328125 -90 m 0
 261.154296875 -90 302.1328125 -49.021484375 302.1328125 0 c 2
 302.1328125 1412.75878906 l 1
 1000 1412.75878906 l 2
 1049.02148438 1412.75878906 1090 1453.73730469 1090 1502.75878906 c 0
 1090 1551.78027344 1049.02148438 1592.75878906 1000 1592.75878906 c 2
 212.1328125 1592.75878906 l 2
 173.504882812 1592.75878906 122.1328125 1557.23632812 122.1328125 1502.75878906 c 2
 122.1328125 0 l 2
 122.1328125 -49.021484375 163.111328125 -90 212.1328125 -90 c 0
252.122070312 -90 m 0
 301.143554688 -90 342.122070312 -49.021484375 342.122070312 0 c 2
 342.122070312 1375 l 1
 1000 1375 l 2
 1049.02148438 1375 1090 1415.97851562 1090 1465 c 0
 1090 1514.02148438 1049.02148438 1555 1000 1555 c 2
 252.122070312 1555 l 2
 213.494140625 1555 162.122070312 1519.47753906 162.122070312 1465 c 2
 162.122070312 0 l 2
 162.122070312 -49.021484375 203.100585938 -90 252.122070312 -90 c 0
162.071289062 824.450195312 m 0
 162.071289062 775.428710938 203.049804688 734.450195312 252.071289062 734.450195312 c 2
 888.717773438 734.450195312 l 2
 937.739257812 734.450195312 978.717773438 775.428710938 978.717773438 824.450195312 c 0
 978.717773438 873.471679688 937.739257812 914.450195312 888.717773438 914.450195312 c 2
 252.071289062 914.450195312 l 2
 203.049804688 914.450195312 162.071289062 873.471679688 162.071289062 824.450195312 c 0
122.180664062 824.453125 m 0
 122.180664062 775.431640625 163.159179688 734.453125 212.180664062 734.453125 c 2
 889.185546875 734.453125 l 2
 938.20703125 734.453125 979.185546875 775.431640625 979.185546875 824.453125 c 0
 979.185546875 873.474609375 938.20703125 914.453125 889.185546875 914.453125 c 2
 212.180664062 914.453125 l 2
 163.159179688 914.453125 122.180664062 873.474609375 122.180664062 824.453125 c 0
EndSplineSet
Validated: 5
EndChar

StartChar: G
Encoding: 71 71 41
Width: 1392
GlyphClass: 2
Flags: MW
HStem: -56.251 225.829<583.485 795.083 583.485 898.057> -10.4219 134.171<567.955 820.368> 1391.14 200.653<577.144 660.987 660.987 768.701 441.337 825.166> 1411.79 159.347<660.987 768.701 768.701 870.538 502.635 873.842>
VStem: 81.8154 221.419<598.405 974.389 598.405 974.421> 123.234 138.581<582.943 968.185 561.847 988.821> 1053.27 219.989<263.356 265.058 265.058 635> 1093.26 140.011<235.299 290.869 290.869 635 366.756 485.683> 1093.26 180<-24.5107 0 0 18.3813 18.3813 635 366.756 485.683>
LayerCount: 2
Fore
SplineSet
1183.25683594 -90 m 0x02
 1232.27832031 -90 1273.25683594 -49.021484375 1273.25683594 0 c 0x0080
 1273.25683594 36.7626953125 1240.61425781 224.922851562 1233.26757812 272.037109375 c 1
 1233.26757812 725 l 2x01
 1233.26757812 779.477539062 1181.89550781 815 1143.26757812 815 c 2
 785 815 l 2
 735.978515625 815 695 774.021484375 695 725 c 0
 695 675.978515625 735.978515625 635 785 635 c 2
 1053.26757812 635 l 1
 1053.26757812 265.057617188 l 2
 1053.26757812 261.654296875 1053.65625 255.581054688 1054.34667969 251.165039062 c 2
 1054.34667969 251.165039062 1089.81933594 23.4990234375 1093.48632812 -6.548828125 c 0
 1097.50976562 -52.5458984375 1136.0234375 -90 1183.25683594 -90 c 0x02
1183.25683594 -90 m 0
 1232.27832031 -90 1273.25683594 -49.021484375 1273.25683594 0 c 2
 1273.25683594 725 l 2x0080
 1273.25683594 779.477539062 1221.88476562 815 1183.25683594 815 c 2
 785 815 l 2
 735.978515625 815 695 774.021484375 695 725 c 0
 695 675.978515625 735.978515625 635 785 635 c 2
 1093.25683594 635 l 1x01
 1093.25683594 0 l 2
 1093.25683594 -49.021484375 1134.23535156 -90 1183.25683594 -90 c 0
1187.93164062 1039.65625 m 0
 1236.953125 1039.65625 1277.93164062 1080.63476562 1277.93164062 1129.65625 c 0
 1277.93164062 1376.66796875 1067.16796875 1591.79003906 768.701171875 1591.79003906 c 2
 660.987304688 1591.79003906 l 2
 221.6875 1591.79003906 81.8154296875 1177.18652344 81.8154296875 771.655273438 c 0
 81.8154296875 314.034179688 286.951171875 -56.2509765625 707.259765625 -56.2509765625 c 0
 1088.85351562 -56.2509765625 1273.25683594 183.905273438 1273.25683594 461.171875 c 0xa880
 1273.25683594 510.193359375 1232.27832031 551.171875 1183.25683594 551.171875 c 0
 1134.23535156 551.171875 1093.25683594 510.193359375 1093.25683594 461.171875 c 0
 1093.25683594 272.340820312 998.58203125 123.749023438 707.259765625 123.749023438 c 0
 428.650390625 123.749023438 261.815429688 352.038085938 261.815429688 771.655273438 c 0
 261.815429688 1164.71386719 382.78125 1411.79003906 660.987304688 1411.79003906 c 2
 768.701171875 1411.79003906 l 2x55
 978.982421875 1411.79003906 1097.93164062 1269.08203125 1097.93164062 1129.65625 c 0
 1097.93164062 1080.63476562 1138.91015625 1039.65625 1187.93164062 1039.65625 c 0
1131 1038.88867188 m 0
 1180.02148438 1038.88867188 1221 1079.8671875 1221 1128.88867188 c 0
 1221 1336.58105469 1037.81542969 1571.13671875 703.259765625 1571.13671875 c 0
 302.009765625 1571.13671875 123.234375 1206.203125 123.234375 771.439453125 c 0
 123.234375 394.447265625 304.278320312 -10.421875 706.793945312 -10.421875 c 0
 933.94140625 -10.421875 1099.03222656 81.97265625 1176.48339844 157.493164062 c 0
 1198.83789062 179.291015625 1233.26757812 204.239257812 1233.26757812 266.358398438 c 0x55
 1233.26757812 315.379882812 1192.2890625 356.358398438 1143.26757812 356.358398438 c 0
 1104.54199219 356.358398438 1069.85742188 331.671875 1057.36035156 293.208984375 c 0
 1056.57714844 292.31640625 1053.49511719 288.9765625 1050.81933594 286.368164062 c 0
 1009.42285156 246.001953125 883.37109375 169.578125 706.793945312 169.578125 c 0
 460.176757812 169.578125 303.234375 425.37109375 303.234375 771.439453125 c 0
 303.234375 1177.33789062 451.02734375 1391.13671875 703.259765625 1391.13671875 c 0
 947.071289062 1391.13671875 1041 1232.08691406 1041 1128.88867188 c 0
 1041 1079.8671875 1081.97851562 1038.88867188 1131 1038.88867188 c 0
EndSplineSet
Validated: 5
EndChar

StartChar: H
Encoding: 72 72 42
Width: 1312
GlyphClass: 2
Flags: MW
HStem: 751.424 180<211.966 1092.85 251.204 1054.71 1054.71 1079.22>
VStem: 122.133 219.989<-24.5107 1550 0 1550> 161.204 180.918<816.913 865.935> 162.122 140.011<-24.5107 1550 0 1550> 964.133 180.579<816.913 865.935 816.913 1550> 964.133 219.989<-24.5107 1550 0 1550> 1004.12 140.011<-24.5107 1550 0 1550>
LayerCount: 2
Fore
SplineSet
212.1328125 1640 m 0x90
 163.111328125 1640 122.1328125 1599.02148438 122.1328125 1550 c 2
 122.1328125 0 l 2xc0
 122.1328125 -49.021484375 163.111328125 -90 212.1328125 -90 c 0
 261.154296875 -90 302.1328125 -49.021484375 302.1328125 0 c 2
 302.1328125 1550 l 2
 302.1328125 1599.02148438 261.154296875 1640 212.1328125 1640 c 0x90
252.122070312 1640 m 0
 203.100585938 1640 162.122070312 1599.02148438 162.122070312 1550 c 2
 162.122070312 0 l 2x90
 162.122070312 -49.021484375 203.100585938 -90 252.122070312 -90 c 0
 301.143554688 -90 342.122070312 -49.021484375 342.122070312 0 c 2
 342.122070312 1550 l 2
 342.122070312 1599.02148438 301.143554688 1640 252.122070312 1640 c 0
1054.1328125 1640 m 0
 1005.11132812 1640 964.1328125 1599.02148438 964.1328125 1550 c 2
 964.1328125 0 l 2x84
 964.1328125 -49.021484375 1005.11132812 -90 1054.1328125 -90 c 0
 1103.15429688 -90 1144.1328125 -49.021484375 1144.1328125 0 c 2
 1144.1328125 1550 l 2x82
 1144.1328125 1599.02148438 1103.15429688 1640 1054.1328125 1640 c 0
1094.12207031 1640 m 0
 1045.10058594 1640 1004.12207031 1599.02148438 1004.12207031 1550 c 2
 1004.12207031 0 l 2x82
 1004.12207031 -49.021484375 1045.10058594 -90 1094.12207031 -90 c 0
 1143.14355469 -90 1184.12207031 -49.021484375 1184.12207031 0 c 2
 1184.12207031 1550 l 2
 1184.12207031 1599.02148438 1143.14355469 1640 1094.12207031 1640 c 0
161.204101562 841.423828125 m 0xa8
 161.204101562 792.40234375 202.182617188 751.423828125 251.204101562 751.423828125 c 2
 1054.71191406 751.423828125 l 2
 1103.73339844 751.423828125 1144.71191406 792.40234375 1144.71191406 841.423828125 c 0
 1144.71191406 890.4453125 1103.73339844 931.423828125 1054.71191406 931.423828125 c 2
 251.204101562 931.423828125 l 2
 202.182617188 931.423828125 161.204101562 890.4453125 161.204101562 841.423828125 c 0xa8
121.965820312 841.423828125 m 0
 121.965820312 792.40234375 162.944335938 751.423828125 211.965820312 751.423828125 c 2
 1092.84765625 751.423828125 l 2
 1141.86914062 751.423828125 1182.84765625 792.40234375 1182.84765625 841.423828125 c 0
 1182.84765625 890.4453125 1141.86914062 931.423828125 1092.84765625 931.423828125 c 2
 211.965820312 931.423828125 l 2
 162.944335938 931.423828125 121.965820312 890.4453125 121.965820312 841.423828125 c 0
EndSplineSet
Validated: 5
EndChar

StartChar: I
Encoding: 73 73 43
Width: 504
GlyphClass: 2
Flags: MW
HStem: -40 225<41.4199 454.85 203.622 252.644> 5 135<41.4199 454.85 239.611 288.633> 1375 215<41.4199 454.85> 1410 145<41.4199 454.85>
VStem: -48.5801 593.43<25.4893 74.5107 70.4893 74.5107 74.5107 119.511 1440.49 1489.51 1475.49 1489.51 1489.51 1524.51> 138.133 215.989<25.4893 1465 95 1465 1465 1489.51 95 1500> 174.122 144.011<70.4893 95 95 1465>
LayerCount: 2
Fore
SplineSet
228.1328125 1590 m 0xa2
 179.111328125 1590 138.1328125 1549.02148438 138.1328125 1500 c 2
 138.1328125 50 l 2xa4
 138.1328125 0.978515625 179.111328125 -40 228.1328125 -40 c 0
 277.154296875 -40 318.1328125 0.978515625 318.1328125 50 c 2
 318.1328125 1500 l 2
 318.1328125 1549.02148438 277.154296875 1590 228.1328125 1590 c 0xa2
264.122070312 1555 m 0x54
 215.100585938 1555 174.122070312 1514.02148438 174.122070312 1465 c 2
 174.122070312 95 l 2x52
 174.122070312 45.978515625 215.100585938 5 264.122070312 5 c 0
 313.143554688 5 354.122070312 45.978515625 354.122070312 95 c 2
 354.122070312 1465 l 2
 354.122070312 1514.02148438 313.143554688 1555 264.122070312 1555 c 0x54
-48.580078125 50 m 0x48
 -48.580078125 0.978515625 -7.6015625 -40 41.419921875 -40 c 2
 454.849609375 -40 l 2x88
 503.87109375 -40 544.849609375 0.978515625 544.849609375 50 c 0
 544.849609375 99.021484375 503.87109375 140 454.849609375 140 c 2
 41.419921875 140 l 2
 -7.6015625 140 -48.580078125 99.021484375 -48.580078125 50 c 0x48
-48.580078125 95 m 0
 -48.580078125 45.978515625 -7.6015625 5 41.419921875 5 c 2
 454.849609375 5 l 2x48
 503.87109375 5 544.849609375 45.978515625 544.849609375 95 c 0
 544.849609375 144.021484375 503.87109375 185 454.849609375 185 c 2
 41.419921875 185 l 2
 -7.6015625 185 -48.580078125 144.021484375 -48.580078125 95 c 0
-48.580078125 1465 m 0
 -48.580078125 1415.97851562 -7.6015625 1375 41.419921875 1375 c 2
 454.849609375 1375 l 2x28
 503.87109375 1375 544.849609375 1415.97851562 544.849609375 1465 c 0
 544.849609375 1514.02148438 503.87109375 1555 454.849609375 1555 c 2
 41.419921875 1555 l 2x18
 -7.6015625 1555 -48.580078125 1514.02148438 -48.580078125 1465 c 0
-48.580078125 1500 m 0
 -48.580078125 1450.97851562 -7.6015625 1410 41.419921875 1410 c 2
 454.849609375 1410 l 2x18
 503.87109375 1410 544.849609375 1450.97851562 544.849609375 1500 c 0
 544.849609375 1549.02148438 503.87109375 1590 454.849609375 1590 c 2
 41.419921875 1590 l 2
 -7.6015625 1590 -48.580078125 1549.02148438 -48.580078125 1500 c 0
EndSplineSet
Validated: 5
EndChar

StartChar: J
Encoding: 74 74 44
Width: 1112
GlyphClass: 2
Flags: MW
HStem: -60.0049 224.988 -14.9834 134.991
VStem: 766.789 216.166<367.264 1550 546.021 1550 546.021 1550> 802.955 143.834<542.393 1550 542.393 542.393>
LayerCount: 2
Fore
SplineSet
892.955078125 1640 m 0xa0
 843.93359375 1640 802.955078125 1599.02148438 802.955078125 1550 c 2
 802.955078125 542.392578125 l 1
 818.549804688 157.85546875 592.568359375 126.697265625 434.629882812 120.0078125 c 1x50
 272.870117188 121.231445312 203.083007812 190.692382812 118 190.692382812 c 0
 68.978515625 190.692382812 28 149.713867188 28 100.692382812 c 0
 28 60.2373046875 55.0947265625 24.373046875 95.5400390625 13.5361328125 c 0
 129.064453125 0.94921875 267.55078125 -59.58203125 437.985351562 -60.0048828125 c 1
 631.138671875 -52.271484375 1002.31054688 32.203125 982.955078125 546.020507812 c 1
 982.955078125 1550 l 2
 982.955078125 1599.02148438 941.9765625 1640 892.955078125 1640 c 0xa0
856.7890625 1640 m 0
 807.767578125 1640 766.7890625 1599.02148438 766.7890625 1550 c 2
 766.7890625 518.529296875 l 2
 766.7890625 215.999023438 624.66796875 168.473632812 444.8203125 164.983398438 c 0xa0
 301.311523438 162.198242188 204.990234375 247.859375 118 247.859375 c 0
 68.978515625 247.859375 28 206.880859375 28 157.859375 c 0
 28 120.2265625 50.8427734375 86.5263671875 88.609375 72.7802734375 c 0
 118.8828125 59.8408203125 282.4765625 -18.201171875 448.3125 -14.9833984375 c 0
 686.916015625 -10.3525390625 946.7890625 110.782226562 946.7890625 518.529296875 c 2
 946.7890625 1550 l 2
 946.7890625 1599.02148438 905.810546875 1640 856.7890625 1640 c 0
EndSplineSet
Validated: 37
EndChar

StartChar: K
Encoding: 75 75 45
Width: 1224
GlyphClass: 2
Flags: MW
VStem: 124.73 217.77<-24.5107 1550 0 1550> 161.884 180.616<736.76 772.646> 162.5 142.23<-24.5107 1550 0 1550>
LayerCount: 2
Fore
SplineSet
252.5 -90 m 0x20
 301.521484375 -90 342.5 -49.021484375 342.5 0 c 2
 342.5 1550 l 2x80
 342.5 1599.02148438 301.521484375 1640 252.5 1640 c 0
 203.478515625 1640 162.5 1599.02148438 162.5 1550 c 2
 162.5 0 l 2
 162.5 -49.021484375 203.478515625 -90 252.5 -90 c 0x20
214.73046875 -90 m 0
 263.751953125 -90 304.73046875 -49.021484375 304.73046875 0 c 2
 304.73046875 1550 l 2x20
 304.73046875 1599.02148438 263.751953125 1640 214.73046875 1640 c 0
 165.708984375 1640 124.73046875 1599.02148438 124.73046875 1550 c 2
 124.73046875 0 l 2
 124.73046875 -49.021484375 165.708984375 -90 214.73046875 -90 c 0
1006.42382812 1640 m 0
 978.302734375 1640 951.217773438 1625.52441406 935.28515625 1605.13085938 c 0
 878.412109375 1541.70996094 212 849.36328125 186.205078125 822.818359375 c 0
 172.001953125 808.110351562 161.883789062 784.022460938 161.883789062 761.270507812 c 0x40
 161.883789062 712.249023438 202.862304688 671.270507812 251.883789062 671.270507812 c 0
 343.879882812 671.270507812 1096.42382812 1461.12304688 1096.42382812 1550 c 0
 1096.42382812 1599.02148438 1055.4453125 1640 1006.42382812 1640 c 0
1054.42382812 1640 m 0
 1027.61035156 1640 1003.11914062 1628.1640625 985.220703125 1607.57421875 c 0
 937.694335938 1556.41992188 214.245117188 816.25 157.765625 762.122070312 c 0
 135.569335938 742.827148438 125.446289062 719.330078125 125.446289062 693.01171875 c 0
 125.446289062 643.990234375 166.424804688 603.01171875 215.446289062 603.01171875 c 0
 309.184570312 603.01171875 1144.42382812 1461.17675781 1144.42382812 1550 c 0
 1144.42382812 1599.02148438 1103.4453125 1640 1054.42382812 1640 c 0
418.290039062 1058.63867188 m 0
 375.665039062 1034.42578125 360.274414062 978.5546875 384.48828125 935.930664062 c 2
 384.48828125 935.930664062 874.202148438 72.341796875 920.23046875 -26.8212890625 c 1
 932.74609375 -65.3388671875 967.418945312 -90 1006.14746094 -90 c 0
 1055.16894531 -90 1096.14746094 -49.021484375 1096.14746094 0 c 0
 1096.14746094 106.704101562 544.59375 1018.50878906 540.998046875 1024.83691406 c 0
 516.78515625 1067.46191406 460.9140625 1082.85253906 418.290039062 1058.63867188 c 0
448.200195312 1051.73828125 m 0
 405.83984375 1027.06640625 391.052734375 971.033203125 415.723632812 928.671875 c 2
 415.723632812 928.671875 929.94140625 45.162109375 971.568359375 -34.7080078125 c 0
 985.897460938 -68.46484375 1018.79101562 -90 1054.60839844 -90 c 0
 1103.62988281 -90 1144.60839844 -49.021484375 1144.60839844 0 c 0
 1144.60839844 96.86328125 575.038085938 1012.78515625 571.266601562 1019.26171875 c 0
 546.594726562 1061.62207031 490.561523438 1076.40917969 448.200195312 1051.73828125 c 0
EndSplineSet
Validated: 37
EndChar

StartChar: L
Encoding: 76 76 46
Width: 1104
GlyphClass: 2
Flags: MW
HStem: 5 135<302.133 945 302.133 945 302.133 969.511>
VStem: 162.122 140.011<67.7612 1550 140 1550 140 1550>
LayerCount: 2
Fore
SplineSet
212.1328125 1640 m 0
 163.111328125 1640 122.1328125 1599.02148438 122.1328125 1550 c 2
 122.1328125 50 l 2
 122.1328125 -4.4775390625 173.504882812 -40 212.1328125 -40 c 2
 945 -40 l 2
 994.021484375 -40 1035 0.978515625 1035 50 c 0
 1035 99.021484375 994.021484375 140 945 140 c 2
 302.1328125 140 l 1
 302.1328125 1550 l 2
 302.1328125 1599.02148438 261.154296875 1640 212.1328125 1640 c 0
252.122070312 1640 m 0
 203.100585938 1640 162.122070312 1599.02148438 162.122070312 1550 c 2
 162.122070312 95 l 2
 162.122070312 40.5224609375 213.494140625 5 252.122070312 5 c 2
 945 5 l 2
 994.021484375 5 1035 45.978515625 1035 95 c 0
 1035 144.021484375 994.021484375 185 945 185 c 2
 342.122070312 185 l 1
 342.122070312 1550 l 2
 342.122070312 1599.02148438 301.143554688 1640 252.122070312 1640 c 0
EndSplineSet
Validated: 5
EndChar

StartChar: M
Encoding: 77 77 47
Width: 1520
GlyphClass: 2
Flags: MW
VStem: 162.122 139.878<-24.5107 1349.69 0 1349.69 0 1450> 1186.63 139.878<-24.5107 1450 0 1349.23>
LayerCount: 2
Fore
SplineSet
1276.6328125 -90 m 0
 1325.65429688 -90 1366.6328125 -49.021484375 1366.6328125 0 c 2
 1366.6328125 1500 l 2
 1366.6328125 1554.47753906 1315.26074219 1590 1276.6328125 1590 c 2
 1221.57519531 1590 l 1
 1147.49804688 1590 l 2
 1110.12402344 1590 1076.1015625 1565.59179688 1063.33203125 1531.87695312 c 2
 744.942382812 691.223632812 l 1
 425.259765625 1531.98632812 l 2
 411.979492188 1566.91308594 377.055664062 1590 341.135742188 1590 c 2
 267.057617188 1590 l 1
 212 1590 l 2
 157.522460938 1590 122 1538.62792969 122 1500 c 2
 122 0 l 2
 122 -49.021484375 162.978515625 -90 212 -90 c 0
 261.021484375 -90 302 -49.021484375 302 0 c 2
 302 1349.69433594 l 1
 638.192382812 465.510742188 l 2
 650.966796875 431.913085938 684.970703125 407.48828125 722.337890625 407.497070312 c 2
 745.590820312 407.502929688 l 1
 767.833984375 407.5078125 l 2
 803.862304688 407.516601562 838.741210938 430.681640625 851.978515625 465.630859375 c 2
 1186.6328125 1349.2265625 l 1
 1186.6328125 0 l 2
 1186.6328125 -49.021484375 1227.61132812 -90 1276.6328125 -90 c 0
1236.51074219 -90 m 0
 1285.53222656 -90 1326.51074219 -49.021484375 1326.51074219 0 c 2
 1326.51074219 1450 l 2
 1326.51074219 1504.47753906 1275.13867188 1540 1236.51074219 1540 c 2
 1207.08789062 1540 l 1
 1167.51953125 1540 l 2
 1130.39160156 1540 1097.02246094 1514.92382812 1084.39550781 1484.50195312 c 2
 744.31640625 665.168945312 l 1
 404.237304688 1484.50195312 l 2
 390.00390625 1518.79296875 354.051757812 1540 321.11328125 1540 c 2
 282.559570312 1540 l 1
 252.122070312 1540 l 2
 197.64453125 1540 162.122070312 1488.62792969 162.122070312 1450 c 2
 162.122070312 0 l 2
 162.122070312 -49.021484375 203.100585938 -90 252.122070312 -90 c 0
 301.143554688 -90 342.122070312 -49.021484375 342.122070312 0 c 2
 342.122070312 1164.6171875 l 1
 633.204101562 463.330078125 l 2
 645.831054688 432.908203125 679.200195312 407.83203125 716.328125 407.83203125 c 2
 744.826171875 407.83203125 l 1
 772.305664062 407.83203125 l 2
 805.244140625 407.83203125 841.196289062 429.0390625 855.4296875 463.330078125 c 2
 1146.51074219 1164.61621094 l 1
 1146.51074219 0 l 2
 1146.51074219 -49.021484375 1187.48925781 -90 1236.51074219 -90 c 0
EndSplineSet
Validated: 37
EndChar

StartChar: N
Encoding: 78 78 48
Width: 1312
GlyphClass: 2
Flags: MW
VStem: 162.122 139.878<-24.5107 1366.25 0 1366.25 0 1450> 1005 138.823<153.316 1550 153.316 153.316>
LayerCount: 2
Fore
SplineSet
212 -90 m 0
 261.021484375 -90 302 -49.021484375 302 0 c 2
 302 1366.24609375 l 1
 867.671875 15.240234375 l 2
 881.999023438 -18.9775390625 918.049804688 -40 950.688476562 -40 c 2
 1034.87011719 -40 l 1
 1095 -40 l 2
 1149.47753906 -40 1185 11.3720703125 1185 50 c 2
 1185 1550 l 2
 1185 1599.02148438 1144.02148438 1640 1095 1640 c 0
 1045.97851562 1640 1005 1599.02148438 1005 1550 c 2
 1005 153.31640625 l 1
 426.583984375 1534.75976562 l 2
 413.978515625 1564.86523438 380.6640625 1590 343.567382812 1590 c 2
 267.23828125 1590 l 1
 212 1590 l 2
 173.372070312 1590 122 1554.47753906 122 1500 c 2
 122 0 l 2
 122 -49.021484375 162.978515625 -90 212 -90 c 0
252.122070312 -90 m 0
 301.143554688 -90 342.122070312 -49.021484375 342.122070312 0 c 2
 342.122070312 1208.42480469 l 1
 888.15234375 61.318359375 l 2
 902.971679688 30.185546875 935.373046875 10 969.416015625 10 c 2
 1018.65332031 10 l 1
 1053.82324219 10 l 2
 1108.30078125 10 1143.82324219 61.3720703125 1143.82324219 100 c 2
 1143.82324219 1550 l 2
 1143.82324219 1599.02148438 1102.84472656 1640 1053.82324219 1640 c 0
 1004.80175781 1640 963.823242188 1599.02148438 963.823242188 1550 c 2
 963.823242188 321.149414062 l 1
 408.0703125 1488.68164062 l 2
 393.438476562 1519.41992188 361.286132812 1540 326.806640625 1540 c 2
 282.399414062 1540 l 1
 252.122070312 1540 l 2
 213.494140625 1540 162.122070312 1504.47753906 162.122070312 1450 c 2
 162.122070312 0 l 2
 162.122070312 -49.021484375 203.100585938 -90 252.122070312 -90 c 0
EndSplineSet
Validated: 5
EndChar

StartChar: O
Encoding: 79 79 49
Width: 1448
GlyphClass: 2
Flags: MW
HStem: -56.251 218.295<718.62 726.28 591.481 928.547> -17.9561 141.705<719.042 728.435> 1364.96 226.829<585.696 676.987 676.987 763.529 485.66 855.706> 1411.79 133.171<676.987 763.529 763.529 875.906>
VStem: 89.8154 221.419<563.246 938.051 563.246 979.354> 131.234 138.581<564.276 951.679> 1128.56 222.141<573.046 938.69> 1170.7 137.859<562.601 951.994 556.195 963.262>
LayerCount: 2
Fore
SplineSet
1308.56054688 765.099609375 m 0x55
 1308.56054688 1138.88867188 1145.2265625 1544.9609375 720.979492188 1544.9609375 c 0
 296.129882812 1544.9609375 131.234375 1139.25878906 131.234375 764.099609375 c 0
 131.234375 325.14453125 322.33203125 -17.9560546875 720.2578125 -17.9560546875 c 0
 736.611328125 -17.9560546875 752.729492188 -17.369140625 768.602539062 -16.1884765625 c 0
 1136.68945312 11.185546875 1308.56054688 347.290039062 1308.56054688 765.099609375 c 0x55
1128.56054688 765.099609375 m 0xaa
 1128.56054688 380.993164062 986.98828125 180.548828125 755.256835938 163.315429688 c 0
 743.965820312 162.4765625 732.302734375 162.043945312 720.2578125 162.043945312 c 0
 462.705078125 162.043945312 311.234375 362.392578125 311.234375 764.099609375 c 0
 311.234375 1112.00292969 450.413085938 1364.9609375 720.979492188 1364.9609375 c 0
 990.431640625 1364.9609375 1128.56054688 1112.28125 1128.56054688 765.099609375 c 0xaa
89.8154296875 771.655273438 m 0
 89.8154296875 316.401367188 299.837890625 -50.3046875 710.44140625 -56.1806640625 c 0
 713.676757812 -56.2275390625 716.982421875 -56.2509765625 720.2578125 -56.2509765625 c 0
 1136.83691406 -56.2509765625 1350.70117188 312.525390625 1350.70117188 771.655273438 c 0
 1350.70117188 1187.03125 1146.33203125 1591.79003906 763.529296875 1591.79003906 c 2
 676.987304688 1591.79003906 l 2
 294.333007812 1591.79003906 89.8154296875 1187.05371094 89.8154296875 771.655273438 c 0
269.815429688 771.655273438 m 0x55
 269.815429688 1154.84667969 452.383789062 1411.79003906 676.987304688 1411.79003906 c 2
 763.529296875 1411.79003906 l 2
 988.283203125 1411.79003906 1170.70117188 1154.86914062 1170.70117188 771.655273438 c 0
 1170.70117188 353.546875 996.594726562 123.749023438 720.2578125 123.749023438 c 0
 717.826171875 123.749023438 715.446289062 123.766601562 713.017578125 123.801757812 c 0
 441.66015625 127.68359375 269.815429688 356.897460938 269.815429688 771.655273438 c 0x55
EndSplineSet
Validated: 9
EndChar

StartChar: P
Encoding: 80 80 50
Width: 1264
GlyphClass: 2
Flags: MW
HStem: 730 200<302.133 622.657 622.657 634.582 634.582 634.657> 750 160<302.133 302.133 302.133 622.657 302.133 302.133 302.133 622.657 342.122 622.657> 1375 217.759<342.122 719.221 719.221 721.297> 1412.76 142.241<302.133 719.221>
VStem: 122.133 39.9893<-24.5107 0 0 807.854 832.146 832.146 832.146 840 840 1465> 162.122 140.011<-24.5107 730 0 730 0 840 910 1412.76> 952.203 232.514<1179.86 1223.02> 1004.72 127.485
LayerCount: 2
Fore
SplineSet
122.1328125 807.854492188 m 2xaa
 122.1328125 0 l 2xaa
 122.1328125 -49.021484375 163.111328125 -90 212.1328125 -90 c 0
 261.154296875 -90 302.1328125 -49.021484375 302.1328125 0 c 2
 302.1328125 730 l 1xa4
 622.657226562 730 l 2
 856.927734375 730 1184.71679688 814.614257812 1184.71679688 1167.03125 c 0
 1184.71679688 1406.63183594 1021.77832031 1592.75878906 721.296875 1592.75878906 c 2
 212.1328125 1592.75878906 l 2
 157.655273438 1592.75878906 122.1328125 1541.38671875 122.1328125 1502.75878906 c 2
 122.1328125 832.145507812 l 2
 121.637695312 828.116210938 121.317382812 823.665039062 121.317382812 820 c 0
 121.317382812 816.334960938 121.637695312 811.883789062 122.1328125 807.854492188 c 2xaa
302.1328125 910 m 1x55
 302.1328125 1412.75878906 l 1
 721.296875 1412.75878906 l 2
 936.666992188 1412.75878906 1004.71679688 1314.37402344 1004.71679688 1167.03125 c 0
 1004.71679688 973.930664062 843.68359375 910 622.657226562 910 c 2
 302.1328125 910 l 1x55
342.122070312 750 m 1
 634.657226562 750 l 2
 638.353515625 750 642.060546875 750.028320312 645.776367188 750.084960938 c 0
 851.607421875 753.241210938 1137.46972656 859.225585938 1132.20214844 1181.59765625 c 0
 1131.73535156 1356.24609375 994.774414062 1555 719.220703125 1555 c 2
 252.122070312 1555 l 2
 197.64453125 1555 162.122070312 1503.62792969 162.122070312 1465 c 2x59
 162.122070312 840 l 1x54
 162.122070312 0 l 2x58
 162.122070312 -49.021484375 203.100585938 -90 252.122070312 -90 c 0
 301.143554688 -90 342.122070312 -49.021484375 342.122070312 0 c 2
 342.122070312 750 l 1
342.122070312 930 m 1xa2
 342.122070312 1375 l 1
 719.220703125 1375 l 2
 895.52734375 1375 952.203125 1266.16992188 952.203125 1179.86425781 c 0
 955.576171875 1000.71191406 814.631835938 933.134765625 644.4140625 930.086914062 c 0
 641.15234375 930.029296875 637.899414062 930 634.657226562 930 c 2
 342.122070312 930 l 1xa2
724.58203125 840 m 0
 724.58203125 889.021484375 683.603515625 930 634.58203125 930 c 2
 252.353515625 930 l 2x80
 203.33203125 930 162.353515625 889.021484375 162.353515625 840 c 0
 162.353515625 790.978515625 203.33203125 750 252.353515625 750 c 2
 634.58203125 750 l 2x40
 683.603515625 750 724.58203125 790.978515625 724.58203125 840 c 0
724.58203125 840 m 0
 724.58203125 889.021484375 683.603515625 930 634.58203125 930 c 2
 252.353515625 930 l 2x80
 203.33203125 930 162.353515625 889.021484375 162.353515625 840 c 0
 162.353515625 790.978515625 203.33203125 750 252.353515625 750 c 2
 634.58203125 750 l 2x40
 683.603515625 750 724.58203125 790.978515625 724.58203125 840 c 0
EndSplineSet
Validated: 37
EndChar

StartChar: Q
Encoding: 81 81 51
Width: 1448
GlyphClass: 2
Flags: MW
HStem: -340 208<1095.32 1229.14 1095.32 1229.14> -312 152<1098.8 1229.14 1098.8 1229.14> -17.9561 141.705<719.042 728.435> 1364.96 226.829<585.696 676.987 676.987 763.529 485.66 855.706> 1411.79 133.171<676.987 763.529 763.529 875.906>
VStem: 89.8154 221.419<563.246 938.051 563.246 979.354> 131.234 138.581<564.276 951.679> 630.363 180<153.854 395.151 153.854 395.151 153.854 395.151 153.854 395.151> 1128.56 222.141<573.046 938.69> 1170.7 137.859<562.601 951.994 556.195 963.262>
LayerCount: 2
Fore
SplineSet
1308.56054688 765.099609375 m 0x2b40
 1308.56054688 1138.88867188 1145.2265625 1544.9609375 720.979492188 1544.9609375 c 0
 296.129882812 1544.9609375 131.234375 1139.25878906 131.234375 764.099609375 c 0
 131.234375 325.14453125 322.33203125 -17.9560546875 720.2578125 -17.9560546875 c 0
 736.611328125 -17.9560546875 752.729492188 -17.369140625 768.602539062 -16.1884765625 c 0
 1136.68945312 11.185546875 1308.56054688 347.290039062 1308.56054688 765.099609375 c 0x2b40
1128.56054688 765.099609375 m 0x3580
 1128.56054688 380.993164062 986.98828125 180.548828125 755.256835938 163.315429688 c 0
 743.965820312 162.4765625 732.302734375 162.043945312 720.2578125 162.043945312 c 0
 462.705078125 162.043945312 311.234375 362.392578125 311.234375 764.099609375 c 0
 311.234375 1112.00292969 450.413085938 1364.9609375 720.979492188 1364.9609375 c 0
 990.431640625 1364.9609375 1128.56054688 1112.28125 1128.56054688 765.099609375 c 0x3580
89.8154296875 771.655273438 m 0
 89.8154296875 316.401367188 299.837890625 -50.3046875 710.44140625 -56.1806640625 c 0
 713.676757812 -56.2275390625 716.982421875 -56.2509765625 720.2578125 -56.2509765625 c 0
 1136.83691406 -56.2509765625 1350.70117188 312.525390625 1350.70117188 771.655273438 c 0
 1350.70117188 1187.03125 1146.33203125 1591.79003906 763.529296875 1591.79003906 c 2
 676.987304688 1591.79003906 l 2
 294.333007812 1591.79003906 89.8154296875 1187.05371094 89.8154296875 771.655273438 c 0
269.815429688 771.655273438 m 0x2b40
 269.815429688 1154.84667969 452.383789062 1411.79003906 676.987304688 1411.79003906 c 2
 763.529296875 1411.79003906 l 2
 988.283203125 1411.79003906 1170.70117188 1154.86914062 1170.70117188 771.655273438 c 0
 1170.70117188 353.546875 996.594726562 123.749023438 720.2578125 123.749023438 c 0
 717.826171875 123.749023438 715.446289062 123.766601562 713.017578125 123.801757812 c 0
 441.66015625 127.68359375 269.815429688 356.897460938 269.815429688 771.655273438 c 0x2b40
720.36328125 460.640625 m 0
 671.341796875 460.640625 630.36328125 419.662109375 630.36328125 370.640625 c 0
 630.36328125 -136.643554688 894.803710938 -340 1204.62695312 -340 c 0xa1
 1253.6484375 -340 1294.62695312 -299.021484375 1294.62695312 -250 c 0
 1294.62695312 -200.978515625 1253.6484375 -160 1204.62695312 -160 c 0x61
 992.981445312 -160 810.36328125 -62.9326171875 810.36328125 370.640625 c 0
 810.36328125 419.662109375 769.384765625 460.640625 720.36328125 460.640625 c 0
720.36328125 460.640625 m 0
 671.341796875 460.640625 630.36328125 419.662109375 630.36328125 370.640625 c 0
 630.36328125 -140.81640625 901.776367188 -312 1204.62695312 -312 c 0x61
 1253.6484375 -312 1294.62695312 -271.021484375 1294.62695312 -222 c 0
 1294.62695312 -172.978515625 1253.6484375 -132 1204.62695312 -132 c 0
 986.008789062 -132 810.36328125 -58.759765625 810.36328125 370.640625 c 0
 810.36328125 419.662109375 769.384765625 460.640625 720.36328125 460.640625 c 0
EndSplineSet
Validated: 5
EndChar

StartChar: R
Encoding: 82 82 52
Width: 1280
GlyphClass: 2
Flags: MW
HStem: 730 200<302.133 622.657 622.657 634.582 634.582 634.657> 750 160<302.133 302.133 302.133 622.657 302.133 302.133 302.133 622.657 342.122 606.866 606.866 622.657> 1375 217.759<342.122 719.221 719.221 721.297> 1412.76 142.241<302.133 719.221>
VStem: 122.133 39.9893<-24.5107 0 0 807.854 832.146 832.146 832.146 840 840 1465> 162.122 140.011<-24.5107 730 0 730 0 840 910 1412.76> 952.203 232.514<1179.86 1223.02> 1004.72 127.485
LayerCount: 2
Fore
SplineSet
122.1328125 807.854492188 m 2xaa
 122.1328125 0 l 2xaa
 122.1328125 -49.021484375 163.111328125 -90 212.1328125 -90 c 0
 261.154296875 -90 302.1328125 -49.021484375 302.1328125 0 c 2
 302.1328125 730 l 1xa4
 622.657226562 730 l 2
 856.927734375 730 1184.71679688 814.614257812 1184.71679688 1167.03125 c 0
 1184.71679688 1406.63183594 1021.77832031 1592.75878906 721.296875 1592.75878906 c 2
 212.1328125 1592.75878906 l 2
 157.655273438 1592.75878906 122.1328125 1541.38671875 122.1328125 1502.75878906 c 2
 122.1328125 832.145507812 l 2
 121.637695312 828.116210938 121.317382812 823.665039062 121.317382812 820 c 0
 121.317382812 816.334960938 121.637695312 811.883789062 122.1328125 807.854492188 c 2xaa
302.1328125 910 m 1x55
 302.1328125 1412.75878906 l 1
 721.296875 1412.75878906 l 2
 936.666992188 1412.75878906 1004.71679688 1314.37402344 1004.71679688 1167.03125 c 0
 1004.71679688 973.930664062 843.68359375 910 622.657226562 910 c 2
 302.1328125 910 l 1x55
342.122070312 750 m 1
 606.866210938 750 l 1
 634.657226562 750 l 2
 638.353515625 750 642.060546875 750.028320312 645.776367188 750.084960938 c 0
 851.607421875 753.241210938 1137.46972656 859.225585938 1132.20214844 1181.59765625 c 0
 1131.73535156 1356.24609375 994.774414062 1555 719.220703125 1555 c 2
 252.122070312 1555 l 2
 197.64453125 1555 162.122070312 1503.62792969 162.122070312 1465 c 2x59
 162.122070312 840 l 1x54
 162.122070312 0 l 2x58
 162.122070312 -49.021484375 203.100585938 -90 252.122070312 -90 c 0
 301.143554688 -90 342.122070312 -49.021484375 342.122070312 0 c 2
 342.122070312 750 l 1
342.122070312 930 m 1xa2
 342.122070312 1375 l 1
 719.220703125 1375 l 2
 895.52734375 1375 952.203125 1266.16992188 952.203125 1179.86425781 c 0
 955.576171875 1000.71191406 814.631835938 933.134765625 644.4140625 930.086914062 c 0
 641.15234375 930.029296875 637.899414062 930 634.657226562 930 c 2
 606.866210938 930 l 1
 342.122070312 930 l 1xa2
724.58203125 840 m 0
 724.58203125 889.021484375 683.603515625 930 634.58203125 930 c 2
 252.353515625 930 l 2x80
 203.33203125 930 162.353515625 889.021484375 162.353515625 840 c 0
 162.353515625 790.978515625 203.33203125 750 252.353515625 750 c 2
 634.58203125 750 l 2x40
 683.603515625 750 724.58203125 790.978515625 724.58203125 840 c 0
724.58203125 840 m 0
 724.58203125 889.021484375 683.603515625 930 634.58203125 930 c 2
 252.353515625 930 l 2x80
 203.33203125 930 162.353515625 889.021484375 162.353515625 840 c 0
 162.353515625 790.978515625 203.33203125 750 252.353515625 750 c 2
 634.58203125 750 l 2x40
 683.603515625 750 724.58203125 790.978515625 724.58203125 840 c 0
559.868164062 918.69921875 m 0
 517.051757812 894.826171875 501.216796875 839.079101562 525.088867188 796.263671875 c 2
 525.088867188 796.263671875 937.001953125 56.3232421875 976.765625 -28.47265625 c 1
 989.666992188 -65.9404296875 1024.01074219 -90 1062.14746094 -90 c 0
 1111.16894531 -90 1152.14746094 -49.021484375 1152.14746094 0 c 0
 1152.14746094 99.833984375 685.91015625 877.452148438 682.303710938 883.919921875 c 0
 658.430664062 926.736328125 602.68359375 942.571289062 559.868164062 918.69921875 c 0
587.453125 897.438476562 m 0
 545.440429688 872.178710938 531.435546875 815.944335938 556.694335938 773.931640625 c 2
 556.694335938 773.931640625 997.494140625 40.1455078125 1037.65234375 -34.8447265625 c 0
 1051.64550781 -67.8095703125 1084.75390625 -89.7138671875 1120.51269531 -89.7138671875 c 0
 1169.53417969 -89.7138671875 1210.51269531 -48.7353515625 1210.51269531 0.2861328125 c 0
 1210.51269531 97.873046875 714.2890625 861.142578125 710.959960938 866.6796875 c 0
 685.700195312 908.692382812 629.465820312 922.697265625 587.453125 897.438476562 c 0
EndSplineSet
Validated: 37
EndChar

StartChar: S
Encoding: 83 83 53
Width: 1232
GlyphClass: 2
Flags: MW
HStem: -60 225<501.671 637.414 501.671 733.095> -14.999 134.999 1380 209.945 1409.95 150.055<488.051 528.107>
VStem: 93.667 219.113<1165.83 1213.01 1058.99 1329.95> 132.78 140.888 894.001 242.598<1095 1095> 912.929 224.535<314.233 374.711> 956.601 117.398<1095 1095> 957.464 135.465
LayerCount: 2
Fore
SplineSet
227.126953125 530 m 0x95
 178.10546875 530 137.126953125 489.021484375 137.126953125 440 c 0
 137.126953125 314.309570312 236.966796875 -14.08984375 635.22265625 -14.9990234375 c 0
 640.498046875 -15.119140625 644.875976562 -15.17578125 649.749023438 -15.193359375 c 0
 923.540039062 -16.1875 1092.43652344 149.70703125 1092.92871094 373.618164062 c 0x4040
 1095.49804688 620.797851562 951.341796875 778.401367188 697.584960938 844.40625 c 1
 579.936523438 878.669921875 l 2
 422.741210938 924.451171875 312.780273438 966.866210938 312.780273438 1151.11621094 c 0
 312.780273438 1274.8984375 424.776367188 1379.29980469 592.365234375 1380 c 1
 818.491210938 1375.45507812 893.30078125 1223.84472656 894.000976562 1095.50878906 c 0x6a
 894.268554688 1046.48828125 935.469726562 1005.734375 984.491210938 1006.00097656 c 0
 1033.51171875 1006.26855469 1074.265625 1047.46972656 1073.99902344 1096.49121094 c 0x6080
 1072.89257812 1299.15136719 932.0703125 1553.89648438 594.01171875 1560 c 1
 352.624023438 1560 132.780273438 1397.96289062 132.780273438 1151.11621094 c 0
 132.780273438 843.592773438 370.823242188 752.09375 529.604492188 705.849609375 c 2
 649.951171875 670.80078125 l 1
 853.82421875 618.305664062 914.884765625 537.2890625 912.928710938 374.7109375 c 0
 912.928710938 253.755859375 847.532226562 164.779296875 652.353515625 164.801757812 c 0
 647.106445312 164.802734375 644.623046875 164.82421875 637.4140625 165 c 0
 365.928710938 165 317.126953125 373.313476562 317.126953125 440 c 0
 317.126953125 489.021484375 276.1484375 530 227.126953125 530 c 0x95
171.40234375 530 m 0
 122.380859375 530 81.40234375 489.021484375 81.40234375 440 c 0
 81.40234375 220.537109375 245.030273438 -60 593.517578125 -60 c 0
 872.671875 -60 1137.46386719 52.0390625 1137.46386719 381.15625 c 0x81
 1137.46386719 681.04296875 920.56640625 783.048828125 740.541015625 831.506835938 c 1
 573.560546875 880.504882812 l 1
 384.549804688 930.602539062 279.991210938 959.55078125 273.66796875 1168.1875 c 1
 274.787109375 1348.70507812 447.994140625 1409.9453125 528.107421875 1409.9453125 c 2
 643.90625 1410.0546875 l 2
 797.799804688 1410.20117188 955.576171875 1283.14648438 956.600585938 1095.52539062 c 0x9480
 956.869140625 1046.50390625 998.0703125 1005.75 1047.09082031 1006.01757812 c 0
 1096.11230469 1006.28613281 1136.86621094 1047.48730469 1136.59863281 1096.5078125 c 0
 1134.98632812 1391.50390625 889.354492188 1590.28710938 643.736328125 1590.0546875 c 2
 527.979492188 1589.9453125 l 2
 398.64453125 1589.9453125 93.6669921875 1494.05957031 93.6669921875 1165.83496094 c 1x2a
 102.381835938 835.838867188 339.842773438 756.29296875 525.149414062 707.12109375 c 1
 691.893554688 658.192382812 l 1
 859.39453125 613.310546875 957.463867188 566.6484375 957.463867188 381.15625 c 0
 957.463867188 189.029296875 840.314453125 120 593.517578125 120 c 0
 361.051757812 120 261.40234375 297.50390625 261.40234375 440 c 0
 261.40234375 489.021484375 220.423828125 530 171.40234375 530 c 0
EndSplineSet
Validated: 37
EndChar

StartChar: T
Encoding: 84 84 54
Width: 1208
GlyphClass: 2
Flags: MW
HStem: 1375 215<80 1120> 1410 145<80 1120>
VStem: 490.133 219.989<-24.5107 1465 0 1465 1465 1489.51 0 1500> 530.122 140.011<-24.5107 1500 0 1465>
LayerCount: 2
Fore
SplineSet
580.1328125 1590 m 0x90
 531.111328125 1590 490.1328125 1549.02148438 490.1328125 1500 c 2
 490.1328125 0 l 2xa0
 490.1328125 -49.021484375 531.111328125 -90 580.1328125 -90 c 0
 629.154296875 -90 670.1328125 -49.021484375 670.1328125 0 c 2
 670.1328125 1500 l 2
 670.1328125 1549.02148438 629.154296875 1590 580.1328125 1590 c 0x90
620.122070312 1555 m 0x60
 571.100585938 1555 530.122070312 1514.02148438 530.122070312 1465 c 2
 530.122070312 0 l 2x50
 530.122070312 -49.021484375 571.100585938 -90 620.122070312 -90 c 0
 669.143554688 -90 710.122070312 -49.021484375 710.122070312 0 c 2
 710.122070312 1465 l 2
 710.122070312 1514.02148438 669.143554688 1555 620.122070312 1555 c 0x60
-10 1465 m 0
 -10 1415.97851562 30.978515625 1375 80 1375 c 2
 1120 1375 l 2x80
 1169.02148438 1375 1210 1415.97851562 1210 1465 c 0
 1210 1514.02148438 1169.02148438 1555 1120 1555 c 2
 80 1555 l 2
 30.978515625 1555 -10 1514.02148438 -10 1465 c 0
-10 1500 m 0
 -10 1450.97851562 30.978515625 1410 80 1410 c 2
 1120 1410 l 2x40
 1169.02148438 1410 1210 1450.97851562 1210 1500 c 0
 1210 1549.02148438 1169.02148438 1590 1120 1590 c 2
 80 1590 l 2
 30.978515625 1590 -10 1549.02148438 -10 1500 c 0
EndSplineSet
Validated: 5
EndChar

StartChar: U
Encoding: 85 85 55
Width: 1312
GlyphClass: 2
Flags: MW
HStem: -60 225<578.797 739.192 578.797 757.826> -15 135<587.19 731.125 587.19 777.484>
VStem: 128.79 216.166<538.529 544.217 544.217 1550> 164.956 143.834<334.661 1550 544.217 1550 544.217 1550> 972.789 216.166<381.889 1550 544.217 1550 544.217 1550> 1008.96 143.834<538.529 544.217 544.217 1550>
LayerCount: 2
Fore
SplineSet
1098.95507812 1640 m 0xa8
 1049.93359375 1640 1008.95507812 1599.02148438 1008.95507812 1550 c 2
 1008.95507812 544.216796875 l 2
 1008.95507812 146.895507812 803.376953125 120 658.872070312 120 c 0
 515.508789062 120 308.790039062 151.782226562 308.790039062 544.216796875 c 2
 308.790039062 1550 l 2x54
 308.790039062 1599.02148438 267.811523438 1640 218.790039062 1640 c 0
 169.768554688 1640 128.790039062 1599.02148438 128.790039062 1550 c 2
 128.790039062 544.216796875 l 2
 128.790039062 39.8759765625 459.825195312 -60 658.872070312 -60 c 0
 856.779296875 -60 1188.95507812 34.5869140625 1188.95507812 544.216796875 c 2
 1188.95507812 1550 l 2
 1188.95507812 1599.02148438 1147.9765625 1640 1098.95507812 1640 c 0xa8
1062.7890625 1640 m 0
 1013.76757812 1640 972.7890625 1599.02148438 972.7890625 1550 c 2
 972.7890625 538.529296875 l 2
 972.7890625 225.248046875 819.51171875 165 658.872070312 165 c 0
 498.721679688 165 344.956054688 227.352539062 344.956054688 538.529296875 c 2
 344.956054688 1550 l 2xa8
 344.956054688 1599.02148438 303.977539062 1640 254.956054688 1640 c 0
 205.934570312 1640 164.956054688 1599.02148438 164.956054688 1550 c 2
 164.956054688 538.529296875 l 2
 164.956054688 130.791992188 421.159179688 -15 658.872070312 -15 c 0
 896.095703125 -15 1152.7890625 128.4765625 1152.7890625 538.529296875 c 2
 1152.7890625 1550 l 2
 1152.7890625 1599.02148438 1111.81054688 1640 1062.7890625 1640 c 0
EndSplineSet
Validated: 5
EndChar

StartChar: V
Encoding: 86 86 56
Width: 1296
GlyphClass: 2
Flags: W
LayerCount: 2
Fore
SplineSet
185.135742188 1640 m 0
 136.114257812 1640 95.1357421875 1599.02148438 95.1357421875 1550 c 0
 95.1357421875 1475.39941406 516.682617188 36.1318359375 519.764648438 25.3193359375 c 0
 530.74609375 -13.1982421875 567.306640625 -40.005859375 606.31640625 -40.005859375 c 2
 650.783203125 -40.005859375 l 1
 695.249023438 -40.005859375 l 2
 735.30078125 -40.005859375 771.10546875 -12.1962890625 781.80078125 25.3193359375 c 0
 784.841796875 35.9873046875 1206.4296875 1475.60546875 1206.4296875 1550 c 0
 1206.4296875 1599.02148438 1165.45117188 1640 1116.4296875 1640 c 0
 1072.69921875 1640 1034.41503906 1607.49902344 1027.4921875 1563.79199219 c 0
 1009.52539062 1486.18359375 752.737304688 580.741210938 650.783203125 222.45703125 c 1
 549.640625 577.885742188 292.330078125 1484.93261719 274.073242188 1563.79199219 c 0
 267.506835938 1605.25 229.922851562 1640 185.135742188 1640 c 0
125.11328125 1640 m 0
 76.091796875 1640 35.11328125 1599.02148438 35.11328125 1550 c 0
 35.11328125 1474.97949219 504.979492188 34.2001953125 508.52734375 22.998046875 c 0
 520.612304688 -15.166015625 558.530273438 -39.8330078125 594.328125 -39.8330078125 c 2
 650.783203125 -39.8330078125 l 1
 707.237304688 -39.8330078125 l 2
 747.268554688 -39.8330078125 782.231445312 -11.1298828125 793.038085938 22.998046875 c 0
 796.586914062 34.205078125 1266.45214844 1474.97265625 1266.45214844 1550 c 0
 1266.45214844 1599.02148438 1225.47363281 1640 1176.45214844 1640 c 0
 1133.67773438 1640 1096.24023438 1609.01953125 1088.09082031 1567.09375 c 0
 1066.37890625 1486.08105469 749.618164062 482.541015625 650.783203125 170.076171875 c 1
 552.78515625 479.891601562 235.56640625 1484.66015625 213.474609375 1567.09375 c 0
 205.608398438 1607.56445312 168.747070312 1640 125.11328125 1640 c 0
EndSplineSet
Validated: 5
EndChar

StartChar: W
Encoding: 87 87 57
Width: 1520
GlyphClass: 2
Flags: W
LayerCount: 2
Fore
SplineSet
137.741210938 1640 m 0
 88.7197265625 1640 47.7412109375 1599.02148438 47.7412109375 1550 c 0
 47.7412109375 1483.79003906 285.641601562 43.138671875 286.872070312 35.56640625 c 0
 294.078125 -8.7890625 334.969726562 -40 375.70703125 -40 c 2
 517.331054688 -40 l 2
 561.916992188 -40 600.487304688 -5.861328125 606.489257812 37.7216796875 c 2
 752.647460938 1099.0625 l 1
 898.952148438 37.7099609375 l 2
 905.041015625 -6.4609375 944.1328125 -40 988.109375 -40 c 2
 1129.73242188 -40 l 2
 1174.66992188 -40 1212.03417969 -4.642578125 1218.56738281 35.5654296875 c 0
 1219.78417969 43.0537109375 1457.69921875 1483.75878906 1457.69921875 1550 c 0
 1457.69921875 1599.02148438 1416.72070312 1640 1367.69921875 1640 c 0
 1321.015625 1640 1281.27929688 1604.33496094 1277.79199219 1554.46289062 c 0
 1269.90234375 1482.33789062 1115.65039062 525.549804688 1060.39941406 184.646484375 c 1
 877.387695312 1512.29003906 l 2
 871.381835938 1555.85449219 832.819335938 1590 788.23046875 1590 c 2
 752.119140625 1590 l 1
 717.01171875 1590 l 2
 673.017578125 1590 633.935546875 1556.44726562 627.853515625 1512.27832031 c 2
 445.032226562 184.705078125 l 1
 390.259765625 522.686523438 235.681640625 1481.13085938 227.646484375 1554.4921875 c 0
 224.322265625 1602.03125 185.584960938 1640 137.741210938 1640 c 0
191.609375 1640 m 0
 142.587890625 1640 101.609375 1599.02148438 101.609375 1550 c 0
 101.609375 1487.24609375 310.444335938 44.1220703125 311.418945312 37.2900390625 c 0
 317.725585938 -6.927734375 357.181640625 -40 400.516601562 -40 c 2
 492.521484375 -40 l 2
 539.98828125 -40 577.005859375 -0.2275390625 581.84375 38.9775390625 c 2
 751.0234375 1410 l 1
 754.358398438 1410 l 1
 923.595703125 38.974609375 l 2
 929.411132812 -8.1357421875 973.420898438 -40 1012.91796875 -40 c 2
 1104.92382812 -40 l 2
 1149.58984375 -40 1187.90234375 -5.609375 1194.02148438 37.2900390625 c 0
 1194.98925781 44.0712890625 1403.83105469 1487.22949219 1403.83105469 1550 c 0
 1403.83105469 1599.02148438 1362.85253906 1640 1313.83105469 1640 c 0
 1266.58007812 1640 1226.46582031 1602.625 1223.90820312 1553.82519531 c 0
 1218.55859375 1496.49023438 1121.66601562 807.861328125 1061.97558594 387.21484375 c 1
 923.25390625 1511.02539062 l 2
 918.415039062 1550.22558594 881.399414062 1590 833.931640625 1590 c 2
 671.446289062 1590 l 2
 631.943359375 1590 587.936523438 1558.13183594 582.124023438 1511.02246094 c 2
 443.458007812 387.279296875 l 1
 384.249023438 804.551757812 286.956054688 1495.74902344 281.532226562 1553.83691406 c 0
 279.094726562 1600.33886719 240.0390625 1640 191.609375 1640 c 0
EndSplineSet
Validated: 5
EndChar

StartChar: X
Encoding: 88 88 58
Width: 1232
GlyphClass: 2
Flags: W
LayerCount: 2
Fore
SplineSet
1082.23339844 -90 m 0
 1131.25488281 -90 1172.23339844 -49.021484375 1172.23339844 0 c 0
 1172.23339844 104.748046875 291.713867188 1474.33398438 230.064453125 1586.37207031 c 0
 215.559570312 1618.95019531 182.963867188 1640 147.741210938 1640 c 0
 98.7197265625 1640 57.7412109375 1599.02148438 57.7412109375 1550 c 0
 57.7412109375 1448.15625 934.323242188 85.7529296875 999.150390625 -34.60546875 c 0
 1012.74414062 -66.6318359375 1045.55273438 -90 1082.23339844 -90 c 0
1028.09082031 -90.0419921875 m 0
 1077.11230469 -90.0419921875 1118.09082031 -49.0634765625 1118.09082031 -0.0419921875 c 0
 1118.09082031 96.4248046875 352.265625 1442.64355469 292.161132812 1576.54296875 c 1
 279.477539062 1615.578125 244.912109375 1640 206.153320312 1640 c 0
 157.131835938 1640 116.153320312 1599.02148438 116.153320312 1550 c 0
 116.153320312 1442.14941406 888.130859375 83.3798828125 944.0234375 -32.1787109375 c 0
 956.625976562 -65.009765625 990.28515625 -90.0419921875 1028.09082031 -90.0419921875 c 0
147.741210938 -90 m 0
 184.421875 -90 217.23046875 -66.6318359375 230.82421875 -34.60546875 c 0
 295.651367188 85.7529296875 1172.23339844 1448.15625 1172.23339844 1550 c 0
 1172.23339844 1599.02148438 1131.25488281 1640 1082.23339844 1640 c 0
 1047.01074219 1640 1014.41503906 1618.95019531 999.91015625 1586.37207031 c 0
 938.260742188 1474.33398438 57.7412109375 104.748046875 57.7412109375 0 c 0
 57.7412109375 -49.021484375 98.7197265625 -90 147.741210938 -90 c 0
201.883789062 -90.0419921875 m 0
 239.689453125 -90.0419921875 273.348632812 -65.009765625 285.951171875 -32.1787109375 c 0
 341.84375 83.3798828125 1113.82128906 1442.14941406 1113.82128906 1550 c 0
 1113.82128906 1599.02148438 1072.84277344 1640 1023.82128906 1640 c 0
 985.0625 1640 950.497070312 1615.578125 937.813476562 1576.54296875 c 1
 877.708984375 1442.64355469 111.883789062 96.4248046875 111.883789062 -0.0419921875 c 0
 111.883789062 -49.0634765625 152.862304688 -90.0419921875 201.883789062 -90.0419921875 c 0
EndSplineSet
Validated: 5
EndChar

StartChar: Y
Encoding: 89 89 59
Width: 1208
GlyphClass: 2
Flags: MW
HStem: 625 180<586.288 604.546 586.544 605.682 604.546 611.011 611.011 623.818 605.682 611.011 611.011 623.812 623.812 640.823 623.818 640.701>
VStem: 496.5 217.5<-24.5107 715 0 715> 534 142.5<-24.5107 715 0 715>
LayerCount: 2
Fore
SplineSet
1005.49804688 1640 m 0x80
 962.420898438 1640 926.026367188 1608.99023438 917.180664062 1567.37695312 c 1
 894.45703125 1502.63183594 704.10546875 1094.95410156 605.193359375 885.772460938 c 1
 504.90234375 1097.96386719 315.5234375 1503.95996094 293.140625 1567.54003906 c 1
 283.94921875 1610.78125 247.110351562 1640 204.858398438 1640 c 0
 155.836914062 1640 114.858398438 1599.02148438 114.858398438 1550 c 0
 114.858398438 1445.14453125 501.578125 684.096679688 505.282226562 676.315429688 c 0
 519.913085938 645.581054688 552.064453125 625 586.543945312 625 c 2
 605.681640625 625 l 1
 623.8125 625 l 2
 657.833007812 625 690.241210938 645.171875 705.06640625 676.298828125 c 0
 708.880859375 684.307617188 1095.49804688 1444.34472656 1095.49804688 1550 c 0
 1095.49804688 1599.02148438 1054.51953125 1640 1005.49804688 1640 c 0x80
152.8359375 1640 m 0
 103.814453125 1640 62.8359375 1599.02148438 62.8359375 1550 c 0
 62.8359375 1437.57910156 503.684570312 678.5390625 507.143554688 672.149414062 c 0
 523.21484375 642.465820312 556.825195312 625 586.288085938 625 c 2
 604.545898438 625 l 1
 623.818359375 625 l 2
 657.583007812 625 688.951171875 646.235351562 702.987304688 672.194335938 c 0
 706.49609375 678.684570312 1147.51953125 1438.91113281 1147.51953125 1550 c 0
 1147.51953125 1599.02148438 1106.54101562 1640 1057.51953125 1640 c 0
 1016.45410156 1640 980.310546875 1612.35253906 969.915039062 1570.65917969 c 1
 942.383789062 1502.92675781 714.000976562 1072.70703125 605.017578125 869.87890625 c 1
 496.41015625 1071.80175781 268.604492188 1500.36816406 240.55859375 1570.12011719 c 1
 231.545898438 1609.15527344 195.3046875 1640 152.8359375 1640 c 0
586.5 805 m 0
 537.478515625 805 496.5 764.021484375 496.5 715 c 2
 496.5 0 l 2xc0
 496.5 -49.021484375 537.478515625 -90 586.5 -90 c 0
 635.521484375 -90 676.5 -49.021484375 676.5 0 c 2
 676.5 715 l 2xa0
 676.5 764.021484375 635.521484375 805 586.5 805 c 0
624 805 m 0
 574.978515625 805 534 764.021484375 534 715 c 2
 534 0 l 2xa0
 534 -49.021484375 574.978515625 -90 624 -90 c 0
 673.021484375 -90 714 -49.021484375 714 0 c 2
 714 715 l 2
 714 764.021484375 673.021484375 805 624 805 c 0
EndSplineSet
Validated: 5
EndChar

StartChar: Z
Encoding: 90 90 60
Width: 1160
GlyphClass: 2
Flags: MW
HStem: 0 140<317.205 999.595 999.595 1000.12 317.205 1024.11> 1410 145<156.756 839.948 839.948 839.948>
LayerCount: 2
Fore
SplineSet
66.755859375 1500 m 0
 66.755859375 1450.97851562 107.734375 1410 156.755859375 1410 c 2
 839.948242188 1410 l 1
 126.73828125 169.869140625 l 2
 118.91796875 156.272460938 114.755859375 140.436523438 114.755859375 125 c 2
 114.755859375 66 l 1
 114.755859375 50 l 2
 114.755859375 -4.4775390625 166.127929688 -40 204.755859375 -40 c 2
 1000.12207031 -40 l 2
 1049.14355469 -40 1090.12207031 0.978515625 1090.12207031 50 c 0
 1090.12207031 99.021484375 1049.14355469 140 1000.12207031 140 c 2
 317.205078125 140 l 1
 1032.13964844 1383.13085938 l 2
 1039.8359375 1396.51269531 1044.12207031 1412.31542969 1044.12207031 1428 c 2
 1044.12207031 1485 l 1
 1044.12207031 1500 l 2
 1044.12207031 1538.62792969 1008.59960938 1590 954.122070312 1590 c 2
 156.755859375 1590 l 2
 107.734375 1590 66.755859375 1549.02148438 66.755859375 1500 c 0
66.228515625 1465 m 0
 66.228515625 1415.97851562 107.20703125 1375 156.228515625 1375 c 2
 780.626953125 1375 l 1
 174.056640625 185.896484375 l 2
 167.625976562 173.290039062 164.228515625 158.313476562 164.228515625 145 c 2
 164.228515625 90 l 2
 164.228515625 35.5224609375 215.600585938 0 254.228515625 0 c 2
 999.594726562 0 l 2
 1048.61621094 0 1089.59472656 40.978515625 1089.59472656 90 c 0
 1089.59472656 139.021484375 1048.61621094 180 999.594726562 180 c 2
 373.115234375 180 l 1
 983.766601562 1377.10351562 l 2
 989.81640625 1388.96289062 993.594726562 1403.84863281 993.594726562 1418 c 2
 993.594726562 1465 l 2
 993.594726562 1503.62792969 958.072265625 1555 903.594726562 1555 c 2
 156.228515625 1555 l 2
 107.20703125 1555 66.228515625 1514.02148438 66.228515625 1465 c 0
EndSplineSet
Validated: 5
EndChar

StartChar: bracketleft
Encoding: 91 91 61
Width: 688
GlyphClass: 2
Flags: MW
HStem: 1520 180<250 590 290 590>
VStem: 70 610<-159.511 -135 -135 -110.489 1585.49 1610>
LayerCount: 2
Fore
SplineSet
680 1610 m 0
 680 1659.02148438 639.021484375 1700 590 1700 c 2
 160 1700 l 2
 105.522460938 1700 70 1648.62792969 70 1610 c 2
 70 -135 l 2
 70 -189.477539062 121.372070312 -225 160 -225 c 2
 590 -225 l 2
 639.021484375 -225 680 -184.021484375 680 -135 c 0
 680 -85.978515625 639.021484375 -45 590 -45 c 2
 250 -45 l 1
 250 1520 l 1
 590 1520 l 2
 639.021484375 1520 680 1560.97851562 680 1610 c 0
680 1610 m 0
 680 1659.02148438 639.021484375 1700 590 1700 c 2
 200 1700 l 2
 145.522460938 1700 110 1648.62792969 110 1610 c 2
 110 -135 l 2
 110 -189.477539062 161.372070312 -225 200 -225 c 2
 590 -225 l 2
 639.021484375 -225 680 -184.021484375 680 -135 c 0
 680 -85.978515625 639.021484375 -45 590 -45 c 2
 290 -45 l 1
 290 1520 l 1
 590 1520 l 2
 639.021484375 1520 680 1560.97851562 680 1610 c 0
EndSplineSet
Validated: 5
EndChar

StartChar: backslash
Encoding: 92 92 62
Width: 1032
GlyphClass: 2
Flags: W
LayerCount: 2
Fore
SplineSet
-845.359375 1731.38769531 m 0
 -890.159179688 1711.48632812 -910.97265625 1657.40039062 -891.0703125 1612.60058594 c 2
 -111.356445312 -142.586914062 l 2
 -91.455078125 -187.38671875 -37.369140625 -208.200195312 7.4306640625 -188.298828125 c 0
 52.2314453125 -168.396484375 73.0439453125 -114.311523438 53.142578125 -69.5107421875 c 2
 -726.571289062 1685.67675781 l 2
 -746.473632812 1730.4765625 -800.55859375 1751.29003906 -845.359375 1731.38769531 c 0
-809.743164062 1743.00097656 m 0
 -855.229492188 1724.72265625 -877.97265625 1671.41992188 -859.694335938 1625.93359375 c 2
 -145.25390625 -151.959960938 l 2
 -126.975585938 -197.446289062 -73.6728515625 -220.190429688 -28.1865234375 -201.911132812 c 0
 17.2998046875 -183.6328125 40.0439453125 -130.330078125 21.765625 -84.84375 c 2
 -692.674804688 1693.04980469 l 2
 -710.954101562 1738.53613281 -764.255859375 1761.27929688 -809.743164062 1743.00097656 c 0
EndSplineSet
Validated: 37
EndChar

StartChar: bracketright
Encoding: 93 93 63
Width: 688
GlyphClass: 2
Flags: MW
VStem: 20 610<-135 -110.489 -135 -110.489 1585.49 1610 1610 1629.31 -135 1634.51 1585.49 1610 1610 1629.31 -135 1634.51>
LayerCount: 2
Fore
SplineSet
20 1610 m 0
 20 1560.97851562 60.978515625 1520 110 1520 c 2
 450 1520 l 1
 450 -45 l 1
 110 -45 l 2
 60.978515625 -45 20 -85.978515625 20 -135 c 0
 20 -184.021484375 60.978515625 -225 110 -225 c 2
 540 -225 l 2
 578.627929688 -225 630 -189.477539062 630 -135 c 2
 630 1610 l 2
 630 1648.62792969 594.477539062 1700 540 1700 c 2
 110 1700 l 2
 60.978515625 1700 20 1659.02148438 20 1610 c 0
20 1610 m 0
 20 1560.97851562 60.978515625 1520 110 1520 c 2
 410 1520 l 1
 410 -45 l 1
 110 -45 l 2
 60.978515625 -45 20 -85.978515625 20 -135 c 0
 20 -184.021484375 60.978515625 -225 110 -225 c 2
 500 -225 l 2
 538.627929688 -225 590 -189.477539062 590 -135 c 2
 590 1610 l 2
 590 1648.62792969 554.477539062 1700 500 1700 c 2
 110 1700 l 2
 60.978515625 1700 20 1659.02148438 20 1610 c 0
EndSplineSet
Validated: 5
EndChar

StartChar: asciicircum
Encoding: 94 94 64
Width: 848
GlyphClass: 2
Flags: W
LayerCount: 2
Fore
SplineSet
104 1216 m 1
 104 1408 l 1
 424 1704 l 1
 752 1392 l 1
 752 1200 l 1
 424 1512 l 1
 104 1216 l 1
EndSplineSet
Validated: 1
EndChar

StartChar: underscore
Encoding: 95 95 65
Width: 624
GlyphClass: 2
Flags: MW
HStem: -28.876 157.753<0 624 0 624>
LayerCount: 2
Fore
SplineSet
-78.8759765625 50 m 0
 -78.8759765625 7.037109375 -42.962890625 -28.8759765625 0 -28.8759765625 c 2
 624 -28.8759765625 l 2
 666.962890625 -28.8759765625 702.876953125 7.037109375 702.876953125 50 c 0
 702.876953125 92.962890625 666.962890625 128.876953125 624 128.876953125 c 2
 0 128.876953125 l 2
 -42.962890625 128.876953125 -78.8759765625 92.962890625 -78.8759765625 50 c 0
-78.8759765625 50 m 0
 -78.8759765625 7.037109375 -42.962890625 -28.8759765625 0 -28.8759765625 c 2
 624 -28.8759765625 l 2
 666.962890625 -28.8759765625 702.876953125 7.037109375 702.876953125 50 c 0
 702.876953125 92.962890625 666.962890625 128.876953125 624 128.876953125 c 2
 0 128.876953125 l 2
 -42.962890625 128.876953125 -78.8759765625 92.962890625 -78.8759765625 50 c 0
EndSplineSet
Validated: 5
EndChar

StartChar: grave
Encoding: 96 96 66
Width: 848
GlyphClass: 2
Flags: W
LayerCount: 2
Fore
SplineSet
662.3828125 1328.83105469 m 0
 698.8046875 1361.64257812 701.823242188 1419.515625 669.012695312 1455.9375 c 2
 357.913085938 1801.27539062 l 2
 325.1015625 1837.69726562 267.228515625 1840.71582031 230.806640625 1807.90527344 c 0
 194.384765625 1775.09375 191.366210938 1717.22070312 224.176757812 1680.79882812 c 2
 535.276367188 1335.4609375 l 2
 568.087890625 1299.0390625 625.9609375 1296.02050781 662.3828125 1328.83105469 c 0
686.131835938 1352.57910156 m 0
 718.942382812 1389.00097656 715.923828125 1446.87402344 679.501953125 1479.68554688 c 2
 334.1640625 1790.78613281 l 2
 297.7421875 1823.59667969 239.869140625 1820.578125 207.057617188 1784.15625 c 0
 174.247070312 1747.734375 177.265625 1689.86132812 213.6875 1657.04980469 c 2
 559.025390625 1345.94921875 l 2
 595.447265625 1313.13867188 653.3203125 1316.15722656 686.131835938 1352.57910156 c 0
EndSplineSet
Validated: 37
EndChar

StartChar: a
Encoding: 97 97 67
Width: 976
GlyphClass: 2
Flags: MW
HStem: -59.0225 214.022<391.796 486.482 391.796 551.328> -25 145.978<354.88 479.851 354.88 544.375> 600.905 177.367<679.04 752.072 642.347 793.054> 1005 200<413.196 431.455 431.455 536.435> 1025 160<431.455 542.815 542.815 574.752 342.428 580.594>
VStem: 76.0342 226.422 90.8965 230.058<815.315 870.449 815.315 948.2> 122.456 133.48 140.954 129.942<815.315 888.203> 638.011 180<213.237 836.108 213.237 836.108 229.453 836.108 229.453 836.108> 676.744 141.267<844.666 916.819> 676.745 179.985
LayerCount: 2
Fore
SplineSet
230.954101562 749.826171875 m 0x28c0
 279.975585938 749.826171875 320.954101562 790.8046875 320.954101562 839.826171875 c 0
 320.954101562 901.072265625 338.291992188 1005 488.099609375 1005 c 0
 584.76953125 1005 638.010742188 982.840820312 638.010742188 836.108398438 c 2
 638.010742188 221.3359375 l 1
 638.010742188 213.237304688 l 1x3240
 639.45703125 205.268554688 l 2
 651.641601562 138.111328125 674.416992188 14.7509765625 676.892578125 -5.2666015625 c 0
 680.361328125 -54.3642578125 721.133789062 -90.84375 768.379882812 -89.9853515625 c 0
 817.393554688 -89.0947265625 857.62109375 -47.37890625 856.73046875 1.634765625 c 0x3010
 855.986328125 42.5869140625 832.599609375 149.40625 818.010742188 229.453125 c 1
 818.010742188 836.108398438 l 2
 818.010742188 1076.91113281 661.404296875 1185 488.099609375 1185 c 0
 196.756835938 1185 140.954101562 936.580078125 140.954101562 839.826171875 c 0
 140.954101562 790.8046875 181.932617188 749.826171875 230.954101562 749.826171875 c 0x28c0
180.896484375 749.826171875 m 0
 229.91796875 749.826171875 270.896484375 790.8046875 270.896484375 839.826171875 c 0
 270.896484375 959.106445312 361.376953125 1025 431.455078125 1025 c 2
 542.815429688 1025 l 2
 618.372070312 1025 676.744140625 988.971679688 676.744140625 844.666015625 c 2x28a0
 676.745117188 0 l 2x2810
 676.745117188 -49.021484375 717.723632812 -90 766.745117188 -90 c 0
 815.766601562 -90 856.745117188 -49.021484375 856.745117188 0 c 2
 856.744140625 844.666015625 l 2
 856.744140625 1060.50683594 727.084960938 1205 542.815429688 1205 c 2
 431.455078125 1205 l 2
 259.26171875 1205 90.896484375 1056.57324219 90.896484375 839.826171875 c 0
 90.896484375 790.8046875 131.875 749.826171875 180.896484375 749.826171875 c 0
858.54296875 690.905273438 m 0
 858.54296875 739.926757812 817.564453125 780.905273438 768.54296875 780.905273438 c 0
 640.951171875 780.905273438 77.130859375 786.919921875 75.8642578125 330.368164062 c 0
 75.8359375 327.047851562 75.841796875 323.78515625 76.0341796875 317.970703125 c 0
 77.5654296875 271.69140625 105.537109375 -59.0224609375 433.201171875 -59.0224609375 c 0xa4
 669.454101562 -59.0224609375 840.158203125 214.41796875 840.158203125 214.41796875 c 1
 868.53515625 255.42578125 858.4296875 311.131835938 819.092773438 339.379882812 c 0
 779.7578125 367.626953125 723.641601562 359.26953125 694.0703125 319.5703125 c 0
 684.5859375 306.467773438 526.5 120.977539062 433.201171875 120.977539062 c 0
 276.55859375 120.977539062 257.547851562 275.171875 255.936523438 323.919921875 c 0x61
 255.828125 327.168945312 255.8515625 327.58203125 255.864257812 329.053710938 c 0
 255.864257812 576.641601562 589.537109375 600.905273438 768.54296875 600.905273438 c 0
 817.564453125 600.905273438 858.54296875 641.883789062 858.54296875 690.905273438 c 0
817.561523438 688.272460938 m 0
 817.561523438 737.293945312 776.583007812 778.272460938 727.561523438 778.272460938 c 0
 557.131835938 778.272460938 122.456054688 717.254882812 122.456054688 320.98046875 c 0
 122.456054688 190.25390625 201.350585938 -25 441.984375 -25 c 0x61
 646.764648438 -25 795.145507812 163.376953125 796.198242188 164.583007812 c 0
 828.330078125 202.719726562 823.543945312 259.1328125 787.05859375 290.977539062 c 0
 750.575195312 322.821289062 693.779296875 319.66015625 660.888671875 283.278320312 c 0
 653.061523438 274.4375 530.979492188 155 441.984375 155 c 0
 341.608398438 155 302.456054688 235.798828125 302.456054688 320.98046875 c 0
 302.456054688 534.391601562 551.916992188 598.272460938 727.561523438 598.272460938 c 0
 776.583007812 598.272460938 817.561523438 639.250976562 817.561523438 688.272460938 c 0
EndSplineSet
Validated: 37
EndChar

StartChar: b
Encoding: 98 98 68
Width: 1016
GlyphClass: 2
Flags: MW
HStem: -60 215<465.041 518.679 465.041 693.416> -25 145<489.327 519.233> 1005 200.426<497.533 515.517 450.623 543.626> 1025.4 159.601<517.588 517.588>
VStem: 128.917 180<0.313477 22.5366 -24.1973 209.146 0.313477 209.146 209.146 1323.54 1323.54 1625.06> 167.338 141.579<196.36 209.146 209.146 1323.54 196.36 196.36 1323.54 1625.06> 167.338 180<196.36 1323.54 196.36 196.36 1323.54 1625.06> 703.347 227.653<445.95 749.723 444.554 814.88> 751 132.347<457.584 765.257>
LayerCount: 2
Fore
SplineSet
218.916992188 -89.6865234375 m 0x08
 265.544921875 -89.6865234375 303.814453125 -52.9521484375 308.536132812 -8.03125 c 0
 312.150390625 13.3271484375 334.041015625 113.32421875 345.493164062 169.017578125 c 0
 346.678710938 174.78125 347.337890625 182.567382812 347.337890625 187.145507812 c 2
 347.337890625 1323.54101562 l 1
 347.337890625 1625.05859375 l 2
 347.337890625 1674.08007812 306.359375 1715.05859375 257.337890625 1715.05859375 c 0
 208.31640625 1715.05859375 167.337890625 1674.08007812 167.337890625 1625.05859375 c 2x02
 167.337890625 1323.54101562 l 1x04
 167.337890625 196.360351562 l 1x02
 153.258789062 128.709960938 128.916992188 44.759765625 128.916992188 0.3134765625 c 0
 128.916992188 -48.7080078125 169.895507812 -89.6865234375 218.916992188 -89.6865234375 c 0x08
218.916992188 -89.6865234375 m 0
 267.938476562 -89.6865234375 308.916992188 -48.7080078125 308.916992188 0.3134765625 c 2x08
 308.916992188 209.145507812 l 1
 308.916992188 1323.54101562 l 1x04
 308.916992188 1625.05859375 l 2
 308.916992188 1674.08007812 267.938476562 1715.05859375 218.916992188 1715.05859375 c 0
 169.895507812 1715.05859375 128.916992188 1674.08007812 128.916992188 1625.05859375 c 2
 128.916992188 1323.54101562 l 1
 128.916992188 209.145507812 l 1
 128.916992188 0.3134765625 l 2x08
 128.916992188 -48.7080078125 169.895507812 -89.6865234375 218.916992188 -89.6865234375 c 0
152.448242188 863.698242188 m 0
 185.81640625 827.786132812 243.729492188 825.66015625 279.641601562 859.028320312 c 0
 345.301757812 920.038085938 484.110351562 1016.92773438 517.587890625 1025.39941406 c 1
 609.282226562 1024.57421875 l 2
 675.12109375 1024.57421875 751 929.154296875 751 601.359375 c 0
 751 274.444335938 650.529296875 120 545.029296875 120 c 0x5080
 433.624023438 120 296.232421875 277.725585938 287.94140625 288.6484375 c 0
 257.750976562 327.498046875 201.391601562 334.817382812 162.640625 305.774414062 c 0
 123.888671875 276.73046875 114.921875 220.829101562 144.127929688 180.409179688 c 1
 144.127929688 180.409179688 306.973632812 -60 545.029296875 -60 c 0
 841.802734375 -60 931 287.749023438 931 601.359375 c 0
 931 898.086914062 874.994140625 1203.66015625 610.030273438 1204.57519531 c 2
 515.516601562 1205.42578125 l 2xa1
 385.728515625 1205.42578125 237.579101562 1065.65429688 157.118164062 990.891601562 c 0
 121.206054688 957.5234375 119.080078125 899.610351562 152.448242188 863.698242188 c 0
191.876953125 897.2265625 m 0
 226.106445312 861.271484375 283.744140625 861.560546875 318.278320312 893.306640625 c 0
 325.3984375 900.000976562 451.439453125 1005 543.625976562 1005 c 0
 625.342773438 1005.71875 703.346679688 1027.50488281 703.346679688 602.254882812 c 0
 703.346679688 289.64453125 630.618164062 155.690429688 518.678710938 155 c 0xa1
 411.403320312 155 329.598632812 240.701171875 327.200195312 243.463867188 c 0
 292.19140625 284.069335938 236.85546875 286.997070312 199.623046875 256.012695312 c 0
 162.3984375 225.036132812 156.286132812 168.750976562 187.510742188 129.868164062 c 0
 192.845703125 123.458007812 311.614257812 -25 519.233398438 -25 c 0
 822.981445312 -23.1259765625 883.346679688 312.9140625 883.346679688 602.254882812 c 0
 883.346679688 1046.50097656 751.893554688 1186.83789062 542.834960938 1185 c 0
 350.255859375 1185 197.94921875 1027.26855469 194.438476562 1023.92578125 c 0
 160.5546875 990.522460938 157.647460938 933.18359375 191.876953125 897.2265625 c 0
EndSplineSet
Validated: 37
EndChar

StartChar: c
Encoding: 99 99 69
Width: 1024
GlyphClass: 2
Flags: MW
HStem: -60.0059 200.006<534 534> -40 159.994<532.672 636.298 532.672 649.394> 1005 199.994<466.161 490.859 490.859 575.459 353.65 601.641> 1024.99 160.006<490.859 575.459 575.459 640.599>
VStem: 82.7617 220.317<432.707 738.459> 123.079 139.683<432.125 730.965 402.174 748.677> 732.431 227.227<333.802 429.505 333.802 429.511> 779.657 132.773<346.377 429.505>
LayerCount: 2
Fore
SplineSet
869.657226562 494.994140625 m 0xaa
 820.635742188 494.994140625 779.657226562 454.015625 779.657226562 404.994140625 c 0
 779.657226562 287.760742188 739.924804688 119.994140625 532.671875 119.994140625 c 0
 409.99609375 118.07421875 262.76171875 238.6328125 262.76171875 565.715820312 c 0
 262.76171875 896.213867188 384.666992188 1024.99414062 490.859375 1024.99414062 c 2
 575.458984375 1024.99414062 l 2x55
 705.739257812 1024.99414062 779.159179688 928.310546875 779.159179688 777.380859375 c 0
 779.159179688 728.359375 820.137695312 687.380859375 869.159179688 687.380859375 c 0
 918.180664062 687.380859375 959.159179688 728.359375 959.159179688 777.380859375 c 0
 959.159179688 988.94140625 831.350585938 1204.99414062 575.458984375 1204.99414062 c 2
 490.859375 1204.99414062 l 2
 216.440429688 1204.99414062 82.76171875 911.202148438 82.76171875 565.715820312 c 0
 82.76171875 194.678710938 267.94140625 -63.53515625 534.013671875 -60.005859375 c 0
 891.14453125 -59.0732421875 959.657226562 262.610351562 959.657226562 404.994140625 c 0
 959.657226562 454.015625 918.678710938 494.994140625 869.657226562 494.994140625 c 0xaa
822.430664062 495 m 0
 773.409179688 495 732.430664062 454.021484375 732.430664062 405 c 0
 732.430664062 234.294921875 637.498046875 140 533.325195312 140 c 0
 388.821289062 140 303.079101562 284.296875 303.079101562 581.116210938 c 0
 303.079101562 898.098632812 399.51953125 1005 532.802734375 1005 c 0xaa
 670.479492188 1005 731.086914062 912.796875 731.086914062 776.48828125 c 0
 731.086914062 727.466796875 772.065429688 686.48828125 821.086914062 686.48828125 c 0
 870.108398438 686.48828125 911.086914062 727.466796875 911.086914062 776.48828125 c 0
 911.086914062 973.0234375 793.485351562 1185 532.802734375 1185 c 0
 244.041015625 1185 123.079101562 916.237304688 123.079101562 581.116210938 c 0
 123.079101562 283.1328125 216.372070312 -40 533.325195312 -40 c 0
 765.462890625 -40 912.430664062 170.05859375 912.430664062 405 c 0
 912.430664062 454.021484375 871.452148438 495 822.430664062 495 c 0
EndSplineSet
Validated: 37
EndChar

StartChar: d
Encoding: 100 100 70
Width: 1016
GlyphClass: 2
Flags: MW
HStem: -60.0029 215.003 -25 145<497.481 557.124 497.481 603.691> 1006 200.997<436.726 518.233 301.554 551.723> 1027 159.003<433.635 518.233 518.233 561.009>
VStem: 76.7617 220.317<431.423 736.134> 117.079 139.683<434.674 741.632 411.22 759.67> 716.48 141.578<0.313477 1323.54 230.916 1323.54 230.916 1323.54 1323.54 1625.06> 716.507 179.974
LayerCount: 2
Fore
SplineSet
807.672851562 -89.6787109375 m 0x01
 856.690429688 -89.029296875 897.122070312 -47.51171875 896.47265625 1.505859375 c 0
 895.842773438 49.01953125 871.369140625 155.084960938 858.05859375 230.916015625 c 1
 858.05859375 1323.54101562 l 1
 858.05859375 1625.05859375 l 2x02
 858.05859375 1674.08007812 817.080078125 1715.05859375 768.05859375 1715.05859375 c 0
 719.037109375 1715.05859375 678.05859375 1674.08007812 678.05859375 1625.05859375 c 2
 678.05859375 1323.54101562 l 1
 678.05859375 223.145507812 l 2
 678.05859375 219.364257812 678.529296875 212.713867188 679.3671875 207.852539062 c 0
 691.364257812 138.274414062 714.4921875 18.390625 716.506835938 -2.39453125 c 0
 718.842773438 -50.86328125 758.6328125 -90.328125 807.672851562 -89.6787109375 c 0x01
806.48046875 -89.6865234375 m 0
 855.501953125 -89.6865234375 896.48046875 -48.7080078125 896.48046875 0.3134765625 c 2
 896.48046875 209.145507812 l 1
 896.48046875 1323.54101562 l 1
 896.48046875 1625.05859375 l 2x01
 896.48046875 1674.08007812 855.501953125 1715.05859375 806.48046875 1715.05859375 c 0
 757.458984375 1715.05859375 716.48046875 1674.08007812 716.48046875 1625.05859375 c 2
 716.48046875 1323.54101562 l 1
 716.48046875 209.145507812 l 1
 716.48046875 0.3134765625 l 2
 716.48046875 -48.7080078125 757.458984375 -89.6865234375 806.48046875 -89.6865234375 c 0
840.798828125 372.823242188 m 0
 795.025390625 392.036132812 742.28125 368.529296875 723.501953125 325.889648438 c 0
 714.420898438 304.731445312 616.765625 120 497.481445312 120 c 0
 384.404296875 118.23046875 256.76171875 242.717773438 256.76171875 579.721679688 c 0
 256.76171875 903.541992188 361.055664062 1027 433.634765625 1027 c 2
 518.233398438 1027 l 2x54
 603.78515625 1027 703.754882812 854.668945312 716.702148438 793.454101562 c 1
 720.106445312 744.766601562 759.893554688 708.560546875 806.564453125 708.560546875 c 0
 855.5859375 708.560546875 896.564453125 749.5390625 896.564453125 798.560546875 c 0
 896.564453125 871.895507812 785.904296875 1207 518.233398438 1207 c 2
 433.634765625 1207 l 2
 169.473632812 1207 76.76171875 892.545898438 76.76171875 579.721679688 c 0
 76.76171875 222.026367188 223.344726562 -63.59375 498.646484375 -60.0029296875 c 0xa8
 775.13671875 -58.4228515625 889.255859375 255.728515625 889.255859375 255.728515625 c 1
 906.90234375 299.915039062 886.57421875 353.609375 840.798828125 372.823242188 c 0
818.580078125 298.494140625 m 0
 777.393554688 326.216796875 721.274414062 313.618164062 694.20703125 274.881835938 c 0
 687.310546875 264.970703125 600.465820312 155 490.134765625 155 c 0
 385.577148438 155 297.079101562 281.614257812 297.079101562 581.231445312 c 0
 297.079101562 932.86328125 381.875 1006.00292969 491.577148438 1006.00292969 c 0xa8
 611.869140625 1006.00292969 681.520507812 886.198242188 687.412109375 874.665039062 c 0
 709.84375 830.604492188 763.754882812 812.881835938 807.291015625 834.098632812 c 0
 850.82421875 855.313476562 870.172851562 908.520507812 849.11328125 953.723632812 c 0
 847.373046875 957.29296875 742.541992188 1186.00292969 491.577148438 1186.00292969 c 0
 221.173828125 1186.00292969 117.079101562 938.109375 117.079101562 581.231445312 c 0
 117.079101562 288.116210938 203.510742188 -25 490.134765625 -25 c 0
 717.248046875 -25 840.096679688 169.283203125 843.42578125 174.228515625 c 0
 869.30078125 214.157226562 859.764648438 270.772460938 818.580078125 298.494140625 c 0
EndSplineSet
Validated: 37
EndChar

StartChar: e
Encoding: 101 101 71
Width: 1024
GlyphClass: 2
Flags: MW
HStem: -57.4453 198.33 -39.1152 161.669<472.05 556.96 472.05 644.961> 1004.12 199.967<514.029 559.379 474.155 577.212> 1024.08 160.034
VStem: 88.7773 35.6357 90.4736 212.782 125.127 145.952<499.972 521.865> 721.762 214.12<679.972 679.972> 755.882 145.885<694.628 725.062 679.972 838.579>
LayerCount: 2
Fore
SplineSet
271.079101562 499.971679688 m 1x4a
 845.881835938 499.971679688 l 2
 884.509765625 499.971679688 935.881835938 535.494140625 935.881835938 589.971679688 c 2
 935.881835938 725.0625 l 2
 935.881835938 921.169921875 832.333984375 1204.08496094 559.37890625 1204.08496094 c 2
 474.155273438 1204.08496094 l 1
 224.606445312 1199.82714844 91.32421875 954.01171875 90.4736328125 727.501953125 c 0x65
 89.1455078125 694.850585938 88.4921875 635.610351562 88.46875 633.424804688 c 0
 88.4921875 631.145507812 88.5693359375 623.1640625 88.77734375 608.485351562 c 0
 89.0908203125 586.259765625 89.5908203125 555.55859375 90.4716796875 532.340820312 c 0
 91.1689453125 199.625 248.939453125 -56.8623046875 555.453125 -57.4453125 c 0xa8
 816.418945312 -60.5537109375 936.024414062 145.775390625 936.024414062 248.831054688 c 0
 936.024414062 297.852539062 895.045898438 338.831054688 846.024414062 338.831054688 c 0
 797.584960938 338.831054688 758.567382812 299.713867188 756.067382812 252.010742188 c 1
 749.4140625 222.490234375 694.904296875 120.39453125 556.959960938 122.553710938 c 0
 387.140625 122.553710938 280.76171875 235.166015625 271.079101562 499.971679688 c 1x4a
269.213867188 679.971679688 m 1
 269.548828125 696.553710938 269.828125 708.758789062 270.470703125 723.58203125 c 0
 270.470703125 903.705078125 369.965820312 1021.57714844 475.747070312 1024.08496094 c 2
 559.37890625 1024.08496094 l 2
 671.943359375 1024.08496094 755.881835938 890.83203125 755.881835938 725.0625 c 2
 755.881835938 679.971679688 l 1x1080
 269.213867188 679.971679688 l 1
124.241210938 596.18359375 m 2
 124.1328125 594.112304688 124.0390625 591.541992188 124.0390625 589.971679688 c 0
 124.0390625 587.353515625 124.173828125 584.497070312 124.413085938 581.76953125 c 2
 125.126953125 521.865234375 l 2
 125.578125 178.104492188 306.569335938 -39.115234375 551.745117188 -39.115234375 c 0x5a80
 738.176757812 -39.115234375 888.684570312 116.169921875 888.684570312 248.755859375 c 0
 888.684570312 297.77734375 847.698242188 338.755859375 798.673828125 338.755859375 c 0
 749.629882812 338.755859375 710.375976562 298.758789062 708.682617188 250.28125 c 1
 702.389648438 222.697265625 631.053710938 140.884765625 551.745117188 140.884765625 c 0x8a80
 437.665039062 140.884765625 312.64453125 229.047851562 305.420898438 499.971679688 c 1
 811.733398438 499.971679688 l 2
 856.76953125 499.971679688 901.716796875 538.806640625 901.733398438 589.943359375 c 2
 901.766601562 694.627929688 l 2
 901.766601562 982.530273438 767.150390625 1183.57421875 514.557617188 1184.11914062 c 0
 271.594726562 1184.98144531 123.0625 987.94140625 123.0625 695.091796875 c 2
 124.241210938 596.18359375 l 2
303.255859375 679.971679688 m 1x25
 303.0625 696.1640625 l 2
 303.388671875 933.408203125 394.693359375 1004.8125 514.029296875 1004.11816406 c 0
 640.395507812 1004.11816406 721.766601562 934.879882812 721.766601562 694.684570312 c 2
 721.76171875 679.971679688 l 1
 303.255859375 679.971679688 l 1x25
EndSplineSet
Validated: 37
EndChar

StartChar: f
Encoding: 102 102 72
Width: 624
GlyphClass: 2
Flags: MW
HStem: 1485.24 143.812<360.575 371.279 371.279 566.086>
VStem: 125.372 216.166<-25.1572 1400.79 -0.646484 1347.06> 161.538 143.834<-25.1572 1347.06 -0.646484 1347.06 1347.06 1400.79>
LayerCount: 2
Fore
SplineSet
215.372070312 -90.646484375 m 0xc0
 264.393554688 -90.646484375 305.372070312 -49.66796875 305.372070312 -0.646484375 c 2
 305.372070312 1347.05566406 l 2xa0
 305.372070312 1486.93261719 314.93359375 1485.2421875 360.575195312 1485.2421875 c 2
 566.174804688 1485.2421875 l 2
 615.196289062 1485.2421875 656.174804688 1526.22070312 656.174804688 1575.2421875 c 0
 656.174804688 1624.26367188 615.196289062 1665.2421875 566.174804688 1665.2421875 c 2
 360.575195312 1665.2421875 l 2
 152.7421875 1665.2421875 125.372070312 1475.10058594 125.372070312 1347.05566406 c 2
 125.372070312 -0.646484375 l 2
 125.372070312 -49.66796875 166.350585938 -90.646484375 215.372070312 -90.646484375 c 0xc0
251.538085938 -90.646484375 m 0
 300.559570312 -90.646484375 341.538085938 -49.66796875 341.538085938 -0.646484375 c 2
 341.538085938 1400.79492188 l 2xc0
 341.538085938 1427.71679688 346.100585938 1442.97167969 347.633789062 1446.12207031 c 0
 350.055664062 1447.04394531 357.283203125 1449.0546875 371.279296875 1449.0546875 c 2
 566.0859375 1449.0546875 l 2
 615.107421875 1449.0546875 656.0859375 1490.03320312 656.0859375 1539.0546875 c 0
 656.0859375 1588.07617188 615.107421875 1629.0546875 566.0859375 1629.0546875 c 2
 371.279296875 1629.0546875 l 2
 318.494140625 1629.0546875 264.849609375 1615.52050781 224.543945312 1577.8203125 c 0
 170.21484375 1527.00292969 161.538085938 1458.22949219 161.538085938 1400.79492188 c 2
 161.538085938 -0.646484375 l 2
 161.538085938 -49.66796875 202.516601562 -90.646484375 251.538085938 -90.646484375 c 0
-63.6181640625 1110.70605469 m 0
 -63.6181640625 1061.68457031 -22.6396484375 1020.70605469 26.3818359375 1020.70605469 c 2
 552.7890625 1020.70605469 l 2
 601.810546875 1020.70605469 642.7890625 1061.68457031 642.7890625 1110.70605469 c 0
 642.7890625 1159.72753906 601.810546875 1200.70605469 552.7890625 1200.70605469 c 2
 26.3818359375 1200.70605469 l 2
 -22.6396484375 1200.70605469 -63.6181640625 1159.72753906 -63.6181640625 1110.70605469 c 0
-65.345703125 1110.70605469 m 0
 -65.345703125 1061.68457031 -24.3671875 1020.70605469 24.654296875 1020.70605469 c 2
 551.772460938 1020.70605469 l 2
 600.793945312 1020.70605469 641.772460938 1061.68457031 641.772460938 1110.70605469 c 0
 641.772460938 1159.72753906 600.793945312 1200.70605469 551.772460938 1200.70605469 c 2
 24.654296875 1200.70605469 l 2
 -24.3671875 1200.70605469 -65.345703125 1159.72753906 -65.345703125 1110.70605469 c 0
EndSplineSet
Validated: 37
EndChar

StartChar: g
Encoding: 103 103 73
Width: 944
GlyphClass: 2
Flags: MW
HStem: -318.429 225.162<371.268 429.246> -273.267 134.839 4.04297 211.968<432 432> 36.0107 148.035<431.481 487.619 431.481 550.097> 1006 200.997<391.732 399.635 399.635 484.233 268.094 500.093> 1027 159.003<399.635 484.233 484.233 530.674>
VStem: 74.7617 220.317<452.401 763.048 452.401 770.223> 115.079 139.683<473.58 745.466> 606.994 36.0342 606.994 180<30.1699 931.747 115.493 931.747 115.493 939.002 115.493 946.158> 643.16 180<162.98 1165 1165 1165 159.355 1165>
LayerCount: 2
Fore
SplineSet
733.16015625 1255 m 0x8020
 684.138671875 1255 643.16015625 1214.02148438 643.16015625 1165 c 2
 643.16015625 159.35546875 l 1
 654.263671875 -114.44921875 563.663085938 -132.474609375 425.603515625 -138.427734375 c 1x4020
 273.603515625 -138.309570312 202.694335938 -124.80859375 198.043945312 -123.927734375 c 0
 150.344726562 -115.267578125 103.16015625 -147.368164062 93.6796875 -194.85546875 c 0
 84.19921875 -242.345703125 114.823242188 -289.96484375 163.548828125 -300.579101562 c 0
 172.16796875 -302.299804688 252.971679688 -318.428710938 429.24609375 -318.428710938 c 1
 640.900390625 -309.955078125 836.787109375 -197.09765625 823.16015625 162.98046875 c 1
 823.16015625 1165 l 2
 823.16015625 1214.02148438 782.181640625 1255 733.16015625 1255 c 0x8020
733.16015625 1255 m 0
 683.498046875 1255 644.04296875 1216.33984375 643.096679688 1162.16894531 c 0
 642.884765625 1152.4375 619.829101562 1026.36132812 608.125 953.223632812 c 2
 606.994140625 946.158203125 l 1
 606.994140625 939.001953125 l 1
 606.994140625 115.493164062 l 2
 606.994140625 -55.1533203125 557.6484375 -93.2666015625 437.71484375 -93.2666015625 c 0x8040
 304.821289062 -93.2666015625 210.251953125 -75.97265625 207.11328125 -75.396484375 c 0
 158.233398438 -67.1416015625 111.938476562 -99.8994140625 103.041992188 -147.502929688 c 0
 94.1455078125 -195.106445312 125.353515625 -242.344726562 174.205078125 -252.360351562 c 0
 179.618164062 -253.372070312 285.688476562 -273.266601562 437.71484375 -273.266601562 c 0
 658.79296875 -273.266601562 786.994140625 -122.311523438 786.994140625 115.493164062 c 2
 786.994140625 931.747070312 l 1x4040
 799.270507812 1006.22851562 823.16015625 1106.97070312 823.16015625 1165 c 0
 823.16015625 1214.02148438 782.181640625 1255 733.16015625 1255 c 0
763.060546875 469.456054688 m 0
 716.234375 485.939453125 665.026367188 459.524414062 648.661132812 415.502929688 c 0
 639.893554688 391.052734375 543.756835938 184.045898438 431.481445312 184.045898438 c 0
 324.029296875 182.36328125 254.76171875 252.8671875 254.76171875 615.721679688 c 0
 254.76171875 949.004882812 325.9765625 1027 399.634765625 1027 c 2
 484.233398438 1027 l 2x15
 577.114257812 1027 639.237304688 854.331054688 643.028320312 797.801757812 c 0
 643.899414062 747.892578125 684.600585938 708.560546875 733.028320312 708.560546875 c 0
 782.049804688 708.560546875 823.028320312 749.5390625 823.028320312 798.560546875 c 0
 823.028320312 846.500976562 773.924804688 1207 484.233398438 1207 c 2
 399.634765625 1207 l 2
 136.552734375 1207 74.76171875 924.723632812 74.76171875 615.721679688 c 0
 74.76171875 267.02734375 151.779296875 0.2841796875 432.661132812 4.04296875 c 0x2a80
 717.946289062 5.779296875 818.331054688 355.419921875 818.331054688 355.419921875 c 1
 833.344726562 400.569335938 809.888671875 452.97265625 763.060546875 469.456054688 c 0
737.959960938 385.494140625 m 0
 693.903320312 408.337890625 638.282226562 387.077148438 618.631835938 350.745117188 c 0
 608.329101562 331.598632812 534.487304688 216.010742188 432.134765625 216.010742188 c 0
 335.555664062 216.010742188 295.079101562 313.571289062 295.079101562 591.231445312 c 0
 295.079101562 934.865234375 343.88671875 1006.00292969 439.577148438 1006.00292969 c 0x2a
 560.609375 1006.00292969 611.090820312 910.803710938 615.376953125 902.151367188 c 0
 636.895507812 856.862304688 690.168945312 837.9609375 734.267578125 857.977539062 c 0
 778.366210938 877.994140625 799.162109375 930.65234375 779.346679688 976.4140625 c 0
 775.662109375 984.53125 684.336914062 1186.00292969 439.577148438 1186.00292969 c 0
 155.162109375 1186.00292969 115.079101562 899.701171875 115.079101562 591.231445312 c 0
 115.079101562 355.928710938 137.532226562 36.0107421875 432.134765625 36.0107421875 c 0
 668.059570312 36.0107421875 775.537109375 262.442382812 776.79296875 264.866210938 c 0
 797.954101562 307.481445312 782.033203125 362.642578125 737.959960938 385.494140625 c 0
EndSplineSet
Validated: 37
EndChar

StartChar: h
Encoding: 104 104 74
Width: 1024
GlyphClass: 2
Flags: MW
HStem: 1005 200.358<494.628 521.195 405.743 614.225> 1025.36 159.643
VStem: 124.73 217.77<-24.5107 1625 0 1625> 162.5 142.23<-24.5107 1625 0 1625> 677.505 216.376<-0.00976562 0.00976562 0.00976562 797.954> 713.881 143.624<-24.5205 797.954 0.00976562 797.954 797.954 854.553 0.00976562 862.667>
LayerCount: 2
Fore
SplineSet
252.5 -90 m 0x10
 301.521484375 -90 342.5 -49.021484375 342.5 0 c 2
 342.5 1625 l 2x20
 342.5 1674.02148438 301.521484375 1715 252.5 1715 c 0
 203.478515625 1715 162.5 1674.02148438 162.5 1625 c 2
 162.5 0 l 2
 162.5 -49.021484375 203.478515625 -90 252.5 -90 c 0x10
214.73046875 -90 m 0
 263.751953125 -90 304.73046875 -49.021484375 304.73046875 0 c 2
 304.73046875 1625 l 2x10
 304.73046875 1674.02148438 263.751953125 1715 214.73046875 1715 c 0
 165.708984375 1715 124.73046875 1674.02148438 124.73046875 1625 c 2
 124.73046875 0 l 2
 124.73046875 -49.021484375 165.708984375 -90 214.73046875 -90 c 0
166.926757812 773.755859375 m 0
 209.331054688 747.942382812 264.796875 763.041015625 290.129882812 803.067382812 c 0
 301.353515625 821.408203125 456.17578125 1024.29980469 520.383789062 1025.35742188 c 0
 528.09375 1025.27636719 587.215820312 1024.64160156 589.8515625 1024.64160156 c 0
 704.760742188 1024.64160156 713.880859375 940.467773438 713.880859375 862.666992188 c 2
 713.880859375 -0.009765625 l 2x44
 713.880859375 -49.03125 754.859375 -90.009765625 803.880859375 -90.009765625 c 0
 852.90234375 -90.009765625 893.880859375 -49.03125 893.880859375 -0.009765625 c 2
 893.880859375 862.666992188 l 2
 893.880859375 939.411132812 871.810546875 1203.52539062 589.879882812 1204.64453125 c 0
 588.74609375 1204.65527344 521.920898438 1205.35058594 521.1953125 1205.35839844 c 0x88
 290.291015625 1205.35839844 136.438476562 896.758789062 136.438476562 896.758789062 c 1
 112.411132812 855.69140625 124.520507812 799.569335938 166.926757812 773.755859375 c 0
207.018554688 836.568359375 m 0
 249.228515625 810.465820312 306.236328125 827.381835938 328.697265625 862.325195312 c 0
 339.162109375 878.684570312 429.7109375 1005 559.544921875 1005 c 0
 668.904296875 1005 677.504882812 933.735351562 677.504882812 797.954101562 c 2
 677.504882812 0.009765625 l 2x88
 677.504882812 -49.01171875 718.483398438 -89.990234375 767.504882812 -89.990234375 c 0
 816.526367188 -89.990234375 857.504882812 -49.01171875 857.504882812 0.009765625 c 2
 857.504882812 797.954101562 l 2
 857.504882812 911.151367188 844.203125 1185 559.544921875 1185 c 0
 309.033203125 1185 180.370117188 964.591796875 177.395507812 959.782226562 c 0
 153.080078125 918.883789062 164.795898438 862.678710938 207.018554688 836.568359375 c 0
EndSplineSet
Validated: 37
EndChar

StartChar: i
Encoding: 105 105 75
Width: 432
GlyphClass: 2
Flags: HMW
HStem: 1270.44 443.103<176.22 225.241 213.989 225.241 225.241 263.011>
VStem: 110.73 217.77<-24.5107 1179.1 0 1179.1 0 1360.44 1360.44 1623.54> 148.5 142.23<-24.5107 1179.1 0 1179.1 1360.44 1623.54>
LayerCount: 2
Fore
SplineSet
238.5 -90 m 0xa0
 287.521484375 -90 328.5 -49.021484375 328.5 0 c 2
 328.5 1179.10253906 l 2xc0
 328.5 1228.12402344 287.521484375 1269.10253906 238.5 1269.10253906 c 0
 189.478515625 1269.10253906 148.5 1228.12402344 148.5 1179.10253906 c 2
 148.5 0 l 2
 148.5 -49.021484375 189.478515625 -90 238.5 -90 c 0xa0
200.73046875 -90 m 0
 249.751953125 -90 290.73046875 -49.021484375 290.73046875 0 c 2
 290.73046875 1179.10253906 l 2xa0
 290.73046875 1228.12402344 249.751953125 1269.10253906 200.73046875 1269.10253906 c 0
 151.708984375 1269.10253906 110.73046875 1228.12402344 110.73046875 1179.10253906 c 2
 110.73046875 0 l 2
 110.73046875 -49.021484375 151.708984375 -90 200.73046875 -90 c 0
238.5 1490.4375 m 4
 287.521484375 1490.4375 328.5 1531.41601562 328.5 1580.4375 c 6
 328.5 1623.54003906 l 6xc0
 328.5 1672.56152344 287.521484375 1713.54003906 238.5 1713.54003906 c 4
 189.478515625 1713.54003906 148.5 1672.56152344 148.5 1623.54003906 c 6
 148.5 1580.4375 l 6
 148.5 1531.41601562 189.478515625 1490.4375 238.5 1490.4375 c 4
200.73046875 1490.4375 m 4
 249.751953125 1490.4375 290.73046875 1531.41601562 290.73046875 1580.4375 c 6
 290.73046875 1623.54003906 l 6xa0
 290.73046875 1672.56152344 249.751953125 1713.54003906 200.73046875 1713.54003906 c 4
 151.708984375 1713.54003906 110.73046875 1672.56152344 110.73046875 1623.54003906 c 6
 110.73046875 1580.4375 l 6
 110.73046875 1531.41601562 151.708984375 1490.4375 200.73046875 1490.4375 c 4
EndSplineSet
Validated: 5
EndChar

StartChar: j
Encoding: 106 106 76
Width: 448
GlyphClass: 2
Flags: HMW
HStem: -326.901 232.188<-10.3301 -10.2949 -10.3301 47.1572 -10.3301 120.448> -274.714 127.812<-10.3867 -9.92041> 1270.44 443.103<180.22 229.241 215.989 229.241 229.241 265.011>
VStem: 114.195 216.165<-66.0811 1165 -22.7705 1165 -22.7705 1165> 150.36 143.835<-37.459 -22.7705 -22.7705 1165>
LayerCount: 2
Fore
SplineSet
238.5 1490.4375 m 0
 287.521484375 1490.4375 328.5 1531.41601562 328.5 1580.4375 c 2
 328.5 1623.54003906 l 2xc0
 328.5 1672.56152344 287.521484375 1713.54003906 238.5 1713.54003906 c 0
 189.478515625 1713.54003906 148.5 1672.56152344 148.5 1623.54003906 c 2
 148.5 1580.4375 l 2
 148.5 1531.41601562 189.478515625 1490.4375 238.5 1490.4375 c 0
200.73046875 1490.4375 m 0
 249.751953125 1490.4375 290.73046875 1531.41601562 290.73046875 1580.4375 c 2
 290.73046875 1623.54003906 l 2xa0
 290.73046875 1672.56152344 249.751953125 1713.54003906 200.73046875 1713.54003906 c 0
 151.708984375 1713.54003906 110.73046875 1672.56152344 110.73046875 1623.54003906 c 2
 110.73046875 1580.4375 l 2
 110.73046875 1531.41601562 151.708984375 1490.4375 200.73046875 1490.4375 c 0
240.360351562 1255 m 0xb0
 191.338867188 1255 150.360351562 1214.02148438 150.360351562 1165 c 2
 150.360351562 -22.7705078125 l 2
 150.360351562 -155.548828125 128.55078125 -146.901367188 47.1572265625 -146.901367188 c 2
 -10.4423828125 -146.901367188 l 2x68
 -59.4638671875 -146.901367188 -100.442382812 -187.879882812 -100.442382812 -236.901367188 c 0
 -100.442382812 -285.922851562 -59.4638671875 -326.901367188 -10.4423828125 -326.901367188 c 2
 47.1572265625 -326.901367188 l 2
 193.73828125 -326.901367188 330.360351562 -245.42578125 330.360351562 -22.7705078125 c 2
 330.360351562 1165 l 2
 330.360351562 1214.02148438 289.381835938 1255 240.360351562 1255 c 0xb0
204.1953125 1255 m 0
 155.173828125 1255 114.1953125 1214.02148438 114.1953125 1165 c 2
 114.1953125 -37.458984375 l 2
 114.1953125 -94.703125 109.41796875 -94.1181640625 80.9228515625 -94.7177734375 c 0
 70.6513671875 -94.7392578125 -10.259765625 -94.7138671875 -10.330078125 -94.7138671875 c 0xb0
 -59.3525390625 -94.6982421875 -100.342773438 -135.6640625 -100.358398438 -184.685546875 c 0
 -100.374023438 -233.708007812 -59.408203125 -274.698242188 -10.38671875 -274.713867188 c 0
 -9.4541015625 -274.713867188 78.458984375 -274.79296875 83.4072265625 -274.701171875 c 0
 251.39453125 -272.150390625 294.1953125 -123.014648438 294.1953125 -37.458984375 c 2
 294.1953125 1165 l 2
 294.1953125 1214.02148438 253.216796875 1255 204.1953125 1255 c 0
EndSplineSet
Validated: 37
EndChar

StartChar: k
Encoding: 107 107 77
Width: 944
GlyphClass: 2
Flags: MW
VStem: 124.73 217.77<-24.5107 1625 0 1625> 161.884 180.616<536.76 571.796> 162.5 142.23<-24.5107 1625 0 1625>
LayerCount: 2
Fore
SplineSet
252.5 -90 m 0x20
 301.521484375 -90 342.5 -49.021484375 342.5 0 c 2
 342.5 1625 l 2x80
 342.5 1674.02148438 301.521484375 1715 252.5 1715 c 0
 203.478515625 1715 162.5 1674.02148438 162.5 1625 c 2
 162.5 0 l 2
 162.5 -49.021484375 203.478515625 -90 252.5 -90 c 0x20
214.73046875 -90 m 0
 263.751953125 -90 304.73046875 -49.021484375 304.73046875 0 c 2
 304.73046875 1625 l 2x20
 304.73046875 1674.02148438 263.751953125 1715 214.73046875 1715 c 0
 165.708984375 1715 124.73046875 1674.02148438 124.73046875 1625 c 2
 124.73046875 0 l 2
 124.73046875 -49.021484375 165.708984375 -90 214.73046875 -90 c 0
737.495117188 1255 m 0
 706.512695312 1255 677.541015625 1237.92578125 661.709960938 1213.54785156 c 0
 620.123046875 1158.20605469 199.84375 639.728515625 182.98046875 619.169921875 c 0
 169.379882812 602.9609375 161.883789062 582.322265625 161.883789062 561.270507812 c 0x40
 161.883789062 512.249023438 202.862304688 471.270507812 251.883789062 471.270507812 c 0
 358.665039062 471.270507812 827.495117188 1093.15429688 827.495117188 1165 c 0
 827.495117188 1214.02148438 786.516601562 1255 737.495117188 1255 c 0
785.495117188 1255 m 0
 756.23828125 1255 728.392578125 1239.52246094 712.385742188 1217.49023438 c 0
 674.674804688 1170.44335938 201.348632812 610.795898438 153.811523438 558.606445312 c 0
 134.61328125 540.067382812 125.446289062 517.602539062 125.446289062 493.01171875 c 0
 125.446289062 443.990234375 166.424804688 403.01171875 215.446289062 403.01171875 c 0
 322.23046875 403.01171875 875.495117188 1090.1953125 875.495117188 1165 c 0
 875.495117188 1214.02148438 834.516601562 1255 785.495117188 1255 c 0
371.001953125 822.823242188 m 0
 326.928710938 801.359375 308.029296875 746.576171875 329.494140625 702.502929688 c 2
 329.494140625 702.502929688 641.103515625 60.8623046875 672.70703125 -21.3173828125 c 1
 682.798828125 -61.791015625 719.137695312 -90 760.147460938 -90 c 0
 809.168945312 -90 850.147460938 -49.021484375 850.147460938 0 c 0
 850.147460938 97.947265625 495.247070312 773.256835938 491.322265625 781.315429688 c 0
 469.858398438 825.388671875 415.075195312 844.288085938 371.001953125 822.823242188 c 0
394.416015625 827.1796875 m 0
 350.696289062 805.004882812 332.685546875 749.922851562 354.859375 706.203125 c 2
 354.859375 706.203125 692.509765625 39.794921875 723.59765625 -29.5771484375 c 0
 737.216796875 -66.9951171875 770.998046875 -90 808.608398438 -90 c 0
 857.629882812 -90 898.608398438 -49.021484375 898.608398438 0 c 0
 898.608398438 89.0712890625 519.543945312 779.4375 515.392578125 787.623046875 c 0
 493.21875 831.342773438 438.135742188 849.353515625 394.416015625 827.1796875 c 0
EndSplineSet
Validated: 37
EndChar

StartChar: l
Encoding: 108 108 78
Width: 432
GlyphClass: 2
Flags: MW
HStem: 10 130<356.981 390 323.306 414.511>
VStem: 111.074 216.166<223.802 277.541 277.541 1625.24> 147.24 143.834<198.177 1625.24 277.541 1625.24 277.541 1625.24>
LayerCount: 2
Fore
SplineSet
201.07421875 1715.2421875 m 0xa0
 152.052734375 1715.2421875 111.07421875 1674.26367188 111.07421875 1625.2421875 c 2
 111.07421875 277.541015625 l 2xc0
 111.07421875 149.27734375 138.74609375 -40 346.27734375 -40 c 2
 390 -40 l 2
 439.021484375 -40 480 0.978515625 480 50 c 0
 480 99.021484375 439.021484375 140 390 140 c 2
 346.27734375 140 l 2
 300.333984375 140 291.07421875 137.880859375 291.07421875 277.541015625 c 2
 291.07421875 1625.2421875 l 2
 291.07421875 1674.26367188 250.095703125 1715.2421875 201.07421875 1715.2421875 c 0xa0
237.240234375 1715.2421875 m 0
 188.21875 1715.2421875 147.240234375 1674.26367188 147.240234375 1625.2421875 c 2
 147.240234375 223.801757812 l 2xa0
 147.240234375 172.552734375 153.79296875 112.389648438 199.823242188 65.1708984375 c 0
 243.607421875 20.255859375 302.852539062 10 356.981445312 10 c 2
 390 10 l 2
 439.021484375 10 480 50.978515625 480 100 c 0
 480 149.021484375 439.021484375 190 390 190 c 2
 356.981445312 190 l 2
 343.93359375 190 335.337890625 191.052734375 329.801757812 192.255859375 c 1
 328.580078125 197.786132812 327.240234375 208.594726562 327.240234375 223.801757812 c 2
 327.240234375 1625.2421875 l 2
 327.240234375 1674.26367188 286.26171875 1715.2421875 237.240234375 1715.2421875 c 0
EndSplineSet
Validated: 37
EndChar

StartChar: m
Encoding: 109 109 79
Width: 1504
GlyphClass: 2
Flags: MW
HStem: 1005 200<437.079 482.284 482.284 541.174 366.413 562.095 964.581 1016.85 1016.85 1075.74> 1025 160<482.284 541.174 541.174 599.65 1016.85 1075.74 1075.74 1133.68>
VStem: 124.731 180<959.676 1165 959.676 1165 1141.59 1165 1165 1189.51> 162.5 142.23<-24.5107 150.949 0 150.949 0 984.378> 162.5 180<-24.5107 994.284 0 984.378> 631.505 216.376<-0.00976562 0.00976562 0.00976562 797.954> 667.881 143.624<-24.5205 797.954 0.00976562 797.954 797.954 845.621 0.00976562 872.667> 1165.12 216.361<-0.0996094 -0.0996094 -0.0996094 0 -0.0996094 797.954> 1201.48 143.639<0.0996094 0.0996094>
LayerCount: 2
Fore
SplineSet
252.5 -90 m 0x08
 301.521484375 -90 342.5 -49.021484375 342.5 0 c 2
 342.5 994.284179688 l 2x08
 342.5 1000.61523438 341.447265625 1008.87988281 340.375 1013.72558594 c 0
 329.172851562 1064.35742188 307.736328125 1155.70214844 304.25 1174.42675781 c 0
 298.430664062 1221.81835938 259.669921875 1255 214.731445312 1255 c 0
 165.709960938 1255 124.731445312 1214.02148438 124.731445312 1165 c 0x20
 124.731445312 1118.17285156 147.702148438 1050.32617188 162.5 984.377929688 c 1
 162.5 0 l 2
 162.5 -49.021484375 203.478515625 -90 252.5 -90 c 0x08
214.73046875 -90 m 0
 263.751953125 -90 304.73046875 -49.021484375 304.73046875 0 c 2
 304.73046875 150.94921875 l 1x10
 304.731445312 959.67578125 l 1
 304.731445312 1165 l 2
 304.731445312 1214.02148438 263.752929688 1255 214.731445312 1255 c 0
 165.709960938 1255 124.731445312 1214.02148438 124.731445312 1165 c 2
 124.731445312 959.67578125 l 1x20
 124.73046875 150.94921875 l 1
 124.73046875 0 l 2
 124.73046875 -49.021484375 165.708984375 -90 214.73046875 -90 c 0
170.5703125 863.853515625 m 0
 213.767578125 839.422851562 270.135742188 858.665039062 291.0703125 894.216796875 c 0
 301.629882812 912.237304688 378.977539062 1025 482.284179688 1025 c 2
 541.173828125 1025 l 2
 658.126953125 1025 667.880859375 916.600585938 667.880859375 872.666992188 c 2
 667.880859375 -0.009765625 l 2x42
 667.880859375 -49.03125 708.859375 -90.009765625 757.880859375 -90.009765625 c 0
 806.90234375 -90.009765625 847.880859375 -49.03125 847.880859375 -0.009765625 c 2
 847.880859375 872.666992188 l 2
 847.880859375 913.344726562 831.779296875 1205 541.173828125 1205 c 2
 482.284179688 1205 l 2x84
 250.541015625 1205 137.944335938 988.986328125 136.150390625 985.814453125 c 0
 113.453125 943.99609375 127.358398438 888.29296875 170.5703125 863.853515625 c 0
200.759765625 911.845703125 m 0
 241.435546875 883.38671875 297.822265625 895.0234375 325.4921875 933.13671875 c 0
 329.848632812 938.805664062 382.951171875 1005 491.206054688 1005 c 0
 632.983398438 1005 631.504882812 914.717773438 631.504882812 797.954101562 c 2
 631.504882812 0.009765625 l 2x84
 631.504882812 -49.01171875 672.483398438 -89.990234375 721.504882812 -89.990234375 c 0
 770.526367188 -89.990234375 811.504882812 -49.01171875 811.504882812 0.009765625 c 2
 811.504882812 797.954101562 l 2
 811.504882812 893.288085938 804.192382812 1185 491.206054688 1185 c 0
 285.013671875 1185 186.25390625 1048.10644531 178.161132812 1036.54003906 c 0
 151.569335938 997.083984375 160.083007812 940.305664062 200.759765625 911.845703125 c 0
707.451171875 856.662109375 m 0
 751.109375 833.049804688 806.467773438 852.2421875 828.118164062 890.65625 c 0
 837.041992188 906.625 915.54296875 1025 1016.84863281 1025 c 2
 1075.74316406 1025 l 2
 1191.62597656 1025 1202.43652344 913.93359375 1202.43652344 869.073242188 c 2
 1201.47753906 0.099609375 l 2x4080
 1201.42382812 -48.921875 1242.35644531 -89.9462890625 1291.37792969 -90 c 0
 1340.39941406 -90.0537109375 1381.42382812 -49.12109375 1381.47753906 -0.099609375 c 2x41
 1382.43652344 868.923828125 l 2
 1382.43652344 908.764648438 1367.39550781 1205 1075.74316406 1205 c 2
 1016.84863281 1205 l 2
 782.97265625 1205 671.958007812 980.223632812 670.728515625 977.950195312 c 0
 648.827148438 935.709960938 663.784179688 880.279296875 707.451171875 856.662109375 c 0
672.1796875 809.404296875 m 0
 715.264648438 784.75 770.609375 801.854492188 794.173828125 841.416992188 c 0
 802.821289062 856.172851562 904.358398438 1005 1024.80273438 1005 c 0
 1166.58789062 1005 1165.11621094 914.709960938 1165.11621094 797.954101562 c 2
 1165.11621094 0 l 2x81
 1165.11621094 -49.021484375 1206.09472656 -90 1255.11621094 -90 c 0
 1304.13769531 -90 1345.11621094 -49.021484375 1345.11621094 0 c 2
 1345.11621094 797.954101562 l 2
 1345.11621094 893.295898438 1337.7890625 1185 1024.80273438 1185 c 0
 770.938476562 1185 639.1875 932.958984375 638.374023438 931.537109375 c 0
 615.466796875 889.833984375 629.090820312 834.061523438 672.1796875 809.404296875 c 0
EndSplineSet
Validated: 37
EndChar

StartChar: n
Encoding: 110 110 80
Width: 1024
GlyphClass: 2
Flags: MW
HStem: 1005 200.358<494.628 521.195 405.743 614.225> 1025.36 159.643
VStem: 124.746 179.984<1165 1165> 162.5 142.23<-24.5107 150.949 0 150.949 150.949 906.796> 677.505 216.376<-0.00976562 0.00976562 0.00976562 797.954> 713.881 143.624<-24.5205 797.954 0.00976562 797.954 797.954 854.553 0.00976562 862.667>
LayerCount: 2
Fore
SplineSet
252.5 -90 m 0x10
 301.521484375 -90 342.5 -49.021484375 342.5 0 c 2
 342.5 913.716796875 l 2
 342.5 918.146484375 341.956054688 924.158203125 341.439453125 927.490234375 c 2
 341.439453125 927.490234375 307.860351562 1145.15136719 304.482421875 1172.00390625 c 0
 299.908203125 1220.07226562 261.145507812 1254.546875 215.629882812 1254.99609375 c 0
 166.610351562 1255.47851562 125.229492188 1214.90625 124.74609375 1165.88769531 c 0x20
 124.384765625 1129.17382812 155.05078125 954.981445312 162.5 906.795898438 c 1
 162.5 0 l 2
 162.5 -49.021484375 203.478515625 -90 252.5 -90 c 0x10
214.73046875 -90 m 0
 263.751953125 -90 304.73046875 -49.021484375 304.73046875 0 c 2x20
 304.73046875 150.94921875 l 1
 304.73046875 959.67578125 l 1x10
 304.73046875 1165 l 2
 304.73046875 1214.02148438 263.751953125 1255 214.73046875 1255 c 0
 165.708984375 1255 124.73046875 1214.02148438 124.73046875 1165 c 2
 124.73046875 959.67578125 l 1
 124.73046875 150.94921875 l 1
 124.73046875 0 l 2
 124.73046875 -49.021484375 165.708984375 -90 214.73046875 -90 c 0
166.926757812 773.755859375 m 0
 209.331054688 747.942382812 264.796875 763.041015625 290.129882812 803.067382812 c 0
 301.353515625 821.408203125 456.17578125 1024.29980469 520.383789062 1025.35742188 c 0
 528.09375 1025.27636719 587.215820312 1024.64160156 589.8515625 1024.64160156 c 0
 704.760742188 1024.64160156 713.880859375 940.467773438 713.880859375 862.666992188 c 2
 713.880859375 -0.009765625 l 2x44
 713.880859375 -49.03125 754.859375 -90.009765625 803.880859375 -90.009765625 c 0
 852.90234375 -90.009765625 893.880859375 -49.03125 893.880859375 -0.009765625 c 2
 893.880859375 862.666992188 l 2
 893.880859375 939.411132812 871.810546875 1203.52539062 589.879882812 1204.64453125 c 0
 588.74609375 1204.65527344 521.920898438 1205.35058594 521.1953125 1205.35839844 c 0x88
 290.291015625 1205.35839844 136.438476562 896.758789062 136.438476562 896.758789062 c 1
 112.411132812 855.69140625 124.520507812 799.569335938 166.926757812 773.755859375 c 0
207.018554688 836.568359375 m 0
 249.228515625 810.465820312 306.236328125 827.381835938 328.697265625 862.325195312 c 0
 339.162109375 878.684570312 429.7109375 1005 559.544921875 1005 c 0
 668.904296875 1005 677.504882812 933.735351562 677.504882812 797.954101562 c 2
 677.504882812 0.009765625 l 2x88
 677.504882812 -49.01171875 718.483398438 -89.990234375 767.504882812 -89.990234375 c 0
 816.526367188 -89.990234375 857.504882812 -49.01171875 857.504882812 0.009765625 c 2
 857.504882812 797.954101562 l 2
 857.504882812 911.151367188 844.203125 1185 559.544921875 1185 c 0
 309.033203125 1185 180.370117188 964.591796875 177.395507812 959.782226562 c 0
 153.080078125 918.883789062 164.795898438 862.678710938 207.018554688 836.568359375 c 0
EndSplineSet
Validated: 37
EndChar

StartChar: o
Encoding: 111 111 81
Width: 1040
GlyphClass: 2
Flags: MW
HStem: -57.6182 198.47 -39.1484 161.526<514 514> 1006.25 199.99<514.032 555.459 470.092 572.548> 1026.24 160.01
VStem: 89.9092 212.646<410.183 742.01> 122.556 147.354<416.129 741.92 416.129 774.524> 724.044 212.403<410.476 741.401 410.476 764.727> 756.447 147.597<415.613 742.713>
LayerCount: 2
Fore
SplineSet
514.032226562 1006.25 m 0xaa
 631.063476562 1006.25 724.043945312 951.90234375 724.043945312 577.55078125 c 0
 724.043945312 203.245117188 626.57421875 140.8515625 514.293945312 140.8515625 c 0
 399.373046875 140.8515625 302.555664062 203.463867188 302.555664062 577.55078125 c 0
 302.555664062 949.086914062 404.61328125 1006.88671875 514.032226562 1006.25 c 0xaa
514.559570312 1186.25 m 0x55
 259.7578125 1187.24316406 122.555664062 971.497070312 122.555664062 577.55078125 c 0
 122.555664062 185.604492188 251.2421875 -39.1484375 514.293945312 -39.1484375 c 0
 775.48046875 -39.1484375 904.043945312 185.860351562 904.043945312 577.55078125 c 0
 904.043945312 971.651367188 775.302734375 1185.78222656 514.559570312 1186.25 c 0x55
512.125 -57.6181640625 m 0xaa
 821.643554688 -59.6806640625 936.447265625 243.400390625 936.447265625 577.55078125 c 0
 936.447265625 905.250976562 837.467773438 1206.24023438 555.458984375 1206.24023438 c 2
 470.091796875 1206.24023438 l 1
 188.978515625 1201.44433594 89.9091796875 906.46875 89.9091796875 577.55078125 c 0
 89.9091796875 242.815429688 204.91015625 -55.5712890625 512.125 -57.6181640625 c 0xaa
513.32421875 122.377929688 m 0x55
 367.875 123.346679688 269.909179688 254.708007812 269.909179688 577.55078125 c 0
 269.909179688 906.290039062 366.020507812 1023.86035156 471.692382812 1026.24023438 c 2
 555.458984375 1026.24023438 l 2
 659.622070312 1026.24023438 756.447265625 907.875976562 756.447265625 577.55078125 c 0
 756.447265625 253.67578125 657.844726562 121.415039062 513.32421875 122.377929688 c 0x55
EndSplineSet
Validated: 41
EndChar

StartChar: p
Encoding: 112 112 82
Width: 1016
GlyphClass: 2
Flags: MW
HStem: -60 215<450.565 510.679 450.565 684.636> -25 145<481.008 511.233> 1005 200.426<492.238 507.517 442.287 535.626> 1025.4 159.602<509.77 509.77>
VStem: 120.917 180<-309.511 867.541 -285 867.541 867.541 1165 1142.07 1165 1165 1189.51> 159.338 141.579<-309.511 867.541 -285 867.541 867.541 948.573> 159.338 180<-309.511 867.541 -285 867.541 867.541 948.573> 703.347 227.653<447.462 751.368 443.163 813.395> 751 132.347<456.072 763.611>
LayerCount: 2
Fore
SplineSet
249.337890625 -375 m 0x02
 298.359375 -375 339.337890625 -334.021484375 339.337890625 -285 c 2
 339.337890625 867.541015625 l 1
 339.337890625 956.869140625 l 2x02
 339.337890625 962.151367188 338.581054688 969.204101562 337.842773438 973.20703125 c 0
 326.169921875 1036.44140625 303.526367188 1149.58105469 300.786132812 1170.015625 c 0
 297.370117188 1218.87011719 257.588867188 1255 210.916992188 1255 c 0
 161.895507812 1255 120.916992188 1214.02148438 120.916992188 1165 c 0x08
 120.916992188 1119.1328125 144.84765625 1025.88378906 159.337890625 948.573242188 c 1x02
 159.337890625 867.541015625 l 1x04
 159.337890625 -285 l 2
 159.337890625 -334.021484375 200.31640625 -375 249.337890625 -375 c 0x02
210.916992188 -375 m 0
 259.938476562 -375 300.916992188 -334.021484375 300.916992188 -285 c 2x08
 300.916992188 867.541015625 l 1x04
 300.916992188 1165 l 2
 300.916992188 1214.02148438 259.938476562 1255 210.916992188 1255 c 0
 161.895507812 1255 120.916992188 1214.02148438 120.916992188 1165 c 2
 120.916992188 867.541015625 l 1
 120.916992188 -285 l 2x08
 120.916992188 -334.021484375 161.895507812 -375 210.916992188 -375 c 0
145.700195312 859.336914062 m 0
 179.595703125 823.921875 237.534179688 822.651367188 272.94921875 856.546875 c 0
 337.1015625 917.947265625 475.913085938 1016.51953125 509.76953125 1025.3984375 c 1
 601.282226562 1024.57421875 l 2
 668.931640625 1024.57421875 751 925.86328125 751 601.359375 c 0
 751 277.2265625 644.088867188 120 537.029296875 120 c 0x5080
 424.987304688 120 295.446289062 270.018554688 286.993164062 281.240234375 c 0
 257.109375 320.0859375 200.732421875 327.749023438 161.840820312 298.895507812 c 0
 122.948242188 270.040039062 113.708007812 214.18359375 142.717773438 173.62109375 c 0
 142.978515625 173.270507812 300.0703125 -60 537.029296875 -60 c 0
 832.243164062 -60 931 284.966796875 931 601.359375 c 0
 931 901.376953125 865.194335938 1203.671875 602.033203125 1204.57519531 c 2
 507.516601562 1205.42578125 l 2xa1
 377.056640625 1205.42578125 228.1015625 1062.78027344 148.490234375 986.5859375 c 0
 113.075195312 952.690429688 111.8046875 894.751953125 145.700195312 859.336914062 c 0
183.697265625 894.748046875 m 0
 217.774414062 858.6484375 275.399414062 858.682617188 310.096679688 890.309570312 c 0
 317.931640625 897.619140625 448.849609375 1005 535.625976562 1005 c 0
 619.383789062 1005.73632812 703.346679688 1024.53417969 703.346679688 602.254882812 c 0
 703.346679688 292.669921875 624.234375 155.700195312 510.678710938 155 c 0xa1
 390.451171875 155 321.243164062 241.006835938 317.227539062 246.3359375 c 0
 287.296875 287.08984375 231.52734375 295.439453125 192 267.45703125 c 0
 152.473632812 239.4765625 141.991210938 183.838867188 170.088867188 142.640625 c 0
 176.126953125 134.112304688 287.556640625 -25 511.233398438 -25 c 0
 813.365234375 -23.1357421875 883.346679688 309.888671875 883.346679688 602.254882812 c 0
 883.346679688 1049.47167969 741.852539062 1186.8203125 534.834960938 1185 c 0
 345.142578125 1185 189.870117188 1024.34082031 186.791992188 1021.43554688 c 0
 152.767578125 988.174804688 149.619140625 930.848632812 183.697265625 894.748046875 c 0
EndSplineSet
Validated: 37
EndChar

